<svg width="24" height="24" viewBox="0 0 24 24" fill="none" xmlns="http://www.w3.org/2000/svg">
<path fill-rule="evenodd" clip-rule="evenodd" d="M13 13C13 13.552 12.552 14 12 14C11.448 14 11 13.552 11 13V9C11 8.448 11.448 8 12 8C12.552 8 13 8.448 13 9V13ZM12 17C11.448 17 11 16.552 11 16C11 15.448 11.448 15 12 15C12.552 15 13 15.448 13 16C13 16.552 12.552 17 12 17ZM22.5615 16.303L14.8895 3.584C14.2905 2.592 13.2105 2 12.0005 2C10.7905 2 9.71055 2.592 9.11155 3.584L1.43955 16.303C0.871546 17.246 0.854546 18.38 1.39455 19.336C1.97355 20.363 3.09855 21 4.32855 21H19.6725C20.9025 21 22.0275 20.363 22.6065 19.336C23.1465 18.38 23.1295 17.246 22.5615 16.303Z" fill="#365314"/>
<mask id="mask0_29_4491" style="mask-type:luminance" maskUnits="userSpaceOnUse" x="1" y="2" width="22" height="19">
<path fill-rule="evenodd" clip-rule="evenodd" d="M13 13C13 13.552 12.552 14 12 14C11.448 14 11 13.552 11 13V9C11 8.448 11.448 8 12 8C12.552 8 13 8.448 13 9V13ZM12 17C11.448 17 11 16.552 11 16C11 15.448 11.448 15 12 15C12.552 15 13 15.448 13 16C13 16.552 12.552 17 12 17ZM22.5615 16.303L14.8895 3.584C14.2905 2.592 13.2105 2 12.0005 2C10.7905 2 9.71055 2.592 9.11155 3.584L1.43955 16.303C0.871546 17.246 0.854546 18.38 1.39455 19.336C1.97355 20.363 3.09855 21 4.32855 21H19.6725C20.9025 21 22.0275 20.363 22.6065 19.336C23.1465 18.38 23.1295 17.246 22.5615 16.303Z" fill="white"/>
</mask>
<g mask="url(#mask0_29_4491)">
<rect width="24" height="24" fill="#365314"/>
</g>
</svg>
