<svg width="24" height="24" viewBox="0 0 24 24" fill="none" xmlns="http://www.w3.org/2000/svg">
<path fill-rule="evenodd" clip-rule="evenodd" d="M5.23191 10.6401C5.58591 11.0641 6.21591 11.1221 6.63991 10.7681L10.9999 7.13511V19.0001C10.9999 19.5521 11.4479 20.0001 11.9999 20.0001C12.5519 20.0001 12.9999 19.5521 12.9999 19.0001V7.13511L17.3599 10.7681C17.7849 11.1221 18.4149 11.0641 18.7679 10.6401C19.1219 10.2161 19.0649 9.58511 18.6399 9.23211L12.6399 4.23211C12.5929 4.19211 12.5369 4.17311 12.4849 4.14311C12.4439 4.11911 12.4079 4.09111 12.3629 4.07311C12.2459 4.02711 12.1239 4.00011 11.9999 4.00011C11.8759 4.00011 11.7539 4.02711 11.6369 4.07311C11.5919 4.09111 11.5559 4.11911 11.5149 4.14311C11.4629 4.17311 11.4069 4.19211 11.3599 4.23211L5.35991 9.23211C4.93591 9.58511 4.87791 10.2161 5.23191 10.6401Z" fill="#365314"/>
<mask id="mask0_29_4475" style="mask-type:luminance" maskUnits="userSpaceOnUse" x="5" y="4" width="15" height="17">
<path fill-rule="evenodd" clip-rule="evenodd" d="M5.23191 10.6401C5.58591 11.0641 6.21591 11.1221 6.63991 10.7681L10.9999 7.13511V19.0001C10.9999 19.5521 11.4479 20.0001 11.9999 20.0001C12.5519 20.0001 12.9999 19.5521 12.9999 19.0001V7.13511L17.3599 10.7681C17.7849 11.1221 18.4149 11.0641 18.7679 10.6401C19.1219 10.2161 19.0649 9.58511 18.6399 9.23211L12.6399 4.23211C12.5929 4.19211 12.5369 4.17311 12.4849 4.14311C12.4439 4.11911 12.4079 4.09111 12.3629 4.07311C12.2459 4.02711 12.1239 4.00011 11.9999 4.00011C11.8759 4.00011 11.7539 4.02711 11.6369 4.07311C11.5919 4.09111 11.5559 4.11911 11.5149 4.14311C11.4629 4.17311 11.4069 4.19211 11.3599 4.23211L5.35991 9.23211C4.93591 9.58511 4.87791 10.2161 5.23191 10.6401Z" fill="white"/>
</mask>
<g mask="url(#mask0_29_4475)">
<rect width="24" height="24" fill="#365314"/>
</g>
</svg>
