<svg width="24" height="24" viewBox="0 0 24 24" fill="none" xmlns="http://www.w3.org/2000/svg">
<path fill-rule="evenodd" clip-rule="evenodd" d="M12.0001 3.9999C14.2061 3.9999 16.0001 5.7939 16.0001 7.9999C16.0001 10.2059 14.2061 11.9999 12.0001 11.9999C9.79408 11.9999 8.00008 10.2059 8.00008 7.9999C8.00008 5.7939 9.79408 3.9999 12.0001 3.9999ZM18.9691 20.7509L16.6601 11.7719C17.4961 10.7399 18.0001 9.4289 18.0001 7.9999C18.0001 4.6909 15.3091 1.9999 12.0001 1.9999C8.69108 1.9999 6.00008 4.6909 6.00008 7.9999C6.00008 9.4289 6.50408 10.7399 7.34008 11.7719L5.03108 20.7509C4.93108 21.1429 5.07508 21.5559 5.39808 21.7989C5.72108 22.0419 6.15808 22.0639 6.50608 21.8619L11.8361 18.7329L17.5161 21.8749C17.6671 21.9589 17.8341 21.9999 18.0001 21.9999C18.2171 21.9999 18.4331 21.9299 18.6121 21.7909C18.9281 21.5469 19.0681 21.1379 18.9691 20.7509Z" fill="#365314"/>
<mask id="mask0_29_4591" style="mask-type:luminance" maskUnits="userSpaceOnUse" x="4" y="2" width="16" height="20">
<path fill-rule="evenodd" clip-rule="evenodd" d="M12.0001 3.9999C14.2061 3.9999 16.0001 5.7939 16.0001 7.9999C16.0001 10.2059 14.2061 11.9999 12.0001 11.9999C9.79408 11.9999 8.00008 10.2059 8.00008 7.9999C8.00008 5.7939 9.79408 3.9999 12.0001 3.9999ZM18.9691 20.7509L16.6601 11.7719C17.4961 10.7399 18.0001 9.4289 18.0001 7.9999C18.0001 4.6909 15.3091 1.9999 12.0001 1.9999C8.69108 1.9999 6.00008 4.6909 6.00008 7.9999C6.00008 9.4289 6.50408 10.7399 7.34008 11.7719L5.03108 20.7509C4.93108 21.1429 5.07508 21.5559 5.39808 21.7989C5.72108 22.0419 6.15808 22.0639 6.50608 21.8619L11.8361 18.7329L17.5161 21.8749C17.6671 21.9589 17.8341 21.9999 18.0001 21.9999C18.2171 21.9999 18.4331 21.9299 18.6121 21.7909C18.9281 21.5469 19.0681 21.1379 18.9691 20.7509Z" fill="white"/>
</mask>
<g mask="url(#mask0_29_4591)">
<rect width="24" height="24" fill="#365314"/>
</g>
</svg>
