<svg width="24" height="24" viewBox="0 0 24 24" fill="none" xmlns="http://www.w3.org/2000/svg">
<path fill-rule="evenodd" clip-rule="evenodd" d="M9.4054 9.66949C10.0104 9.66949 10.3644 9.99449 10.3644 10.5225C10.3644 11.0885 9.9814 11.4085 9.1134 11.4085H8.2604V9.66949H9.4054ZM14.7647 11.1885C14.1387 11.1885 13.7267 11.6665 13.7267 12.2845V12.2935H15.7877V12.2845C15.7877 11.6615 15.3857 11.1885 14.7647 11.1885ZM9.4869 12.3037H8.2599V14.2377H9.2189C10.2399 14.2377 10.6569 13.9127 10.6569 13.2937C10.6569 12.6797 10.2439 12.3037 9.4869 12.3037ZM17.025 13.0537H13.727V13.1857C13.727 13.9177 14.168 14.3817 14.818 14.3817C15.327 14.3817 15.686 14.1457 15.793 13.7537H16.977C16.856 14.5277 16.186 15.2967 14.808 15.2967C13.397 15.2967 12.475 14.4687 12.475 12.9907V12.5487C12.475 11.1337 13.401 10.2967 14.755 10.2967C16.157 10.2967 17.025 11.1927 17.025 12.5797V13.0537ZM13.25 9.70269H16.25V9.20269H13.25V9.70269ZM9.698 15.2027H6.975V8.70269H9.703C10.873 8.70269 11.64 9.30869 11.64 10.3037C11.64 11.0937 11.165 11.5707 10.518 11.7277V11.7837C11.304 11.8607 11.975 12.3947 11.975 13.3697C11.975 14.5327 11.026 15.2027 9.698 15.2027ZM12 1.99969C6.477 1.99969 2 6.47769 2 11.9997C2 17.5227 6.477 21.9997 12 21.9997C17.523 21.9997 22 17.5227 22 11.9997C22 6.47769 17.523 1.99969 12 1.99969Z" fill="#365314"/>
<mask id="mask0_29_4719" style="mask-type:luminance" maskUnits="userSpaceOnUse" x="2" y="1" width="20" height="21">
<path fill-rule="evenodd" clip-rule="evenodd" d="M9.4054 9.66949C10.0104 9.66949 10.3644 9.99449 10.3644 10.5225C10.3644 11.0885 9.9814 11.4085 9.1134 11.4085H8.2604V9.66949H9.4054ZM14.7647 11.1885C14.1387 11.1885 13.7267 11.6665 13.7267 12.2845V12.2935H15.7877V12.2845C15.7877 11.6615 15.3857 11.1885 14.7647 11.1885ZM9.4869 12.3037H8.2599V14.2377H9.2189C10.2399 14.2377 10.6569 13.9127 10.6569 13.2937C10.6569 12.6797 10.2439 12.3037 9.4869 12.3037ZM17.025 13.0537H13.727V13.1857C13.727 13.9177 14.168 14.3817 14.818 14.3817C15.327 14.3817 15.686 14.1457 15.793 13.7537H16.977C16.856 14.5277 16.186 15.2967 14.808 15.2967C13.397 15.2967 12.475 14.4687 12.475 12.9907V12.5487C12.475 11.1337 13.401 10.2967 14.755 10.2967C16.157 10.2967 17.025 11.1927 17.025 12.5797V13.0537ZM13.25 9.70269H16.25V9.20269H13.25V9.70269ZM9.698 15.2027H6.975V8.70269H9.703C10.873 8.70269 11.64 9.30869 11.64 10.3037C11.64 11.0937 11.165 11.5707 10.518 11.7277V11.7837C11.304 11.8607 11.975 12.3947 11.975 13.3697C11.975 14.5327 11.026 15.2027 9.698 15.2027ZM12 1.99969C6.477 1.99969 2 6.47769 2 11.9997C2 17.5227 6.477 21.9997 12 21.9997C17.523 21.9997 22 17.5227 22 11.9997C22 6.47769 17.523 1.99969 12 1.99969Z" fill="white"/>
</mask>
<g mask="url(#mask0_29_4719)">
<rect width="24" height="24" fill="#365314"/>
</g>
</svg>
