<svg width="24" height="24" viewBox="0 0 24 24" fill="none" xmlns="http://www.w3.org/2000/svg">
<path fill-rule="evenodd" clip-rule="evenodd" d="M13 18.2495V14.1785L15.467 16.5575L13 18.2495ZM13 5.7605L15.497 7.4935L13 9.8505V5.7605ZM13.629 12.0065L17.644 8.2165C17.895 7.9785 18.023 7.6465 17.997 7.3045C17.97 6.9615 17.792 6.6515 17.507 6.4545L12.833 3.2105C12.474 2.9585 12.008 2.9305 11.618 3.1335C11.237 3.3325 11 3.7205 11 4.1455V10.3515L7.80696 6.3745C7.45996 5.9425 6.83196 5.8745 6.40096 6.2205C5.96996 6.5655 5.90096 7.1955 6.24696 7.6255L9.72096 11.9525L6.21596 16.3795C5.87296 16.8125 5.94596 17.4405 6.37896 17.7845C6.56296 17.9295 6.78196 17.9995 6.99996 17.9995C7.29396 17.9995 7.58596 17.8705 7.78396 17.6205L11 13.5595V19.8535C11 20.2775 11.235 20.6645 11.613 20.8645C11.787 20.9555 11.975 21.0005 12.163 21.0005C12.395 21.0005 12.626 20.9315 12.827 20.7945L17.469 17.6085C17.754 17.4125 17.934 17.1035 17.961 16.7615C17.989 16.4205 17.863 16.0885 17.616 15.8515L13.629 12.0065Z" fill="#365314"/>
<mask id="mask0_29_4532" style="mask-type:luminance" maskUnits="userSpaceOnUse" x="5" y="2" width="14" height="20">
<path fill-rule="evenodd" clip-rule="evenodd" d="M13 18.2495V14.1785L15.467 16.5575L13 18.2495ZM13 5.7605L15.497 7.4935L13 9.8505V5.7605ZM13.629 12.0065L17.644 8.2165C17.895 7.9785 18.023 7.6465 17.997 7.3045C17.97 6.9615 17.792 6.6515 17.507 6.4545L12.833 3.2105C12.474 2.9585 12.008 2.9305 11.618 3.1335C11.237 3.3325 11 3.7205 11 4.1455V10.3515L7.80696 6.3745C7.45996 5.9425 6.83196 5.8745 6.40096 6.2205C5.96996 6.5655 5.90096 7.1955 6.24696 7.6255L9.72096 11.9525L6.21596 16.3795C5.87296 16.8125 5.94596 17.4405 6.37896 17.7845C6.56296 17.9295 6.78196 17.9995 6.99996 17.9995C7.29396 17.9995 7.58596 17.8705 7.78396 17.6205L11 13.5595V19.8535C11 20.2775 11.235 20.6645 11.613 20.8645C11.787 20.9555 11.975 21.0005 12.163 21.0005C12.395 21.0005 12.626 20.9315 12.827 20.7945L17.469 17.6085C17.754 17.4125 17.934 17.1035 17.961 16.7615C17.989 16.4205 17.863 16.0885 17.616 15.8515L13.629 12.0065Z" fill="white"/>
</mask>
<g mask="url(#mask0_29_4532)">
<rect width="24" height="24" fill="#365314"/>
</g>
</svg>
