<svg width="24" height="24" viewBox="0 0 24 24" fill="none" xmlns="http://www.w3.org/2000/svg">
<path fill-rule="evenodd" clip-rule="evenodd" d="M16.3758 4.66791C17.1528 3.89091 18.4228 3.75291 19.2618 4.46091C19.7548 4.87791 20.0078 5.46291 19.9998 6.05691C20.0068 6.59391 19.8018 7.12291 19.3978 7.52691L12.9128 14.0179C12.7298 14.2019 12.4318 14.2019 12.2478 14.0179L9.97478 11.7429C9.79078 11.5589 9.79078 11.2599 9.97478 11.0759L16.3758 4.66791ZM4.05408 16.4139C4.08608 14.5779 5.32908 12.9179 7.12408 12.5479C10.0471 11.9449 12.4621 14.7419 11.1671 17.7379C10.5831 19.0879 9.19608 19.9149 7.72708 19.9409H7.72508L4.47908 19.9999C4.21308 20.0049 3.99508 19.7869 4.00008 19.5209L4.05408 16.4139Z" fill="#365314"/>
<mask id="mask0_29_4693" style="mask-type:luminance" maskUnits="userSpaceOnUse" x="4" y="4" width="16" height="16">
<path fill-rule="evenodd" clip-rule="evenodd" d="M16.3758 4.66791C17.1528 3.89091 18.4228 3.75291 19.2618 4.46091C19.7548 4.87791 20.0078 5.46291 19.9998 6.05691C20.0068 6.59391 19.8018 7.12291 19.3978 7.52691L12.9128 14.0179C12.7298 14.2019 12.4318 14.2019 12.2478 14.0179L9.97478 11.7429C9.79078 11.5589 9.79078 11.2599 9.97478 11.0759L16.3758 4.66791ZM4.05408 16.4139C4.08608 14.5779 5.32908 12.9179 7.12408 12.5479C10.0471 11.9449 12.4621 14.7419 11.1671 17.7379C10.5831 19.0879 9.19608 19.9149 7.72708 19.9409H7.72508L4.47908 19.9999C4.21308 20.0049 3.99508 19.7869 4.00008 19.5209L4.05408 16.4139Z" fill="white"/>
</mask>
<g mask="url(#mask0_29_4693)">
<rect width="24" height="24" fill="#365314"/>
</g>
</svg>
