<svg width="24" height="24" viewBox="0 0 24 24" fill="none" xmlns="http://www.w3.org/2000/svg">
<path fill-rule="evenodd" clip-rule="evenodd" d="M21.8462 11.8273C21.8675 11.8953 21.8888 11.9634 21.903 12.0342C21.965 12.3472 22 12.6692 22 13.0002C22 13.3082 21.964 13.6112 21.908 13.9102C21.8956 13.9784 21.879 14.0437 21.8623 14.1091C21.8547 14.1387 21.8472 14.1683 21.84 14.1982C21.79 14.3972 21.731 14.5922 21.658 14.7832C21.62 14.8822 21.581 14.9792 21.537 15.0752C21.45 15.2652 21.349 15.4472 21.238 15.6262C21.2208 15.6539 21.2043 15.6821 21.1879 15.7103C21.1606 15.7572 21.1333 15.8042 21.102 15.8492C21.0929 15.8622 21.0851 15.8756 21.0774 15.889C21.0691 15.9034 21.0609 15.9177 21.051 15.9312C21.0433 15.9422 21.0325 15.9493 21.0219 15.9563C21.0133 15.962 21.0047 15.9676 20.998 15.9752C20.086 17.1972 18.642 18.0002 17 18.0002H14V16.7332C14.301 16.9072 14.643 17.0002 15 17.0002C15.534 17.0002 16.036 16.7922 16.414 16.4142C17.194 15.6352 17.194 14.3652 16.414 13.5862L13.414 10.5862C13.038 10.2092 12.536 10.0012 12.002 10.0012C11.483 10.0012 10.99 10.1982 10.614 10.5572L7.611 13.4572C6.818 14.2232 6.796 15.4922 7.562 16.2852C7.938 16.6742 8.462 16.8972 9.002 16.8972C9.357 16.8972 9.699 16.8042 10 16.6302V18.0002H7C5.358 18.0002 3.914 17.1972 3.003 15.9752C2.99599 15.9678 2.98745 15.9622 2.97888 15.9567C2.96789 15.9496 2.95687 15.9424 2.949 15.9312C2.93842 15.9167 2.92971 15.9013 2.92095 15.8859C2.91398 15.8735 2.90698 15.8612 2.899 15.8492C2.86708 15.8032 2.83883 15.7552 2.8106 15.7073C2.79462 15.6801 2.77863 15.653 2.762 15.6262C2.652 15.4472 2.55 15.2652 2.463 15.0752C2.42041 14.9823 2.38345 14.8884 2.34576 14.7927L2.342 14.7832C2.27 14.5922 2.21 14.3972 2.161 14.1982C2.15467 14.1729 2.14814 14.1478 2.14161 14.1227C2.12339 14.0528 2.10526 13.9831 2.092 13.9102C2.037 13.6112 2 13.3082 2 13.0002C2 12.6692 2.036 12.3472 2.097 12.0342C2.11157 11.9613 2.13378 11.8913 2.15598 11.8212C2.16881 11.7807 2.18164 11.7402 2.193 11.6992C2.19718 11.6838 2.20135 11.6685 2.20551 11.6531C2.25319 11.4774 2.30087 11.3016 2.368 11.1352C2.40422 11.0446 2.44869 10.9599 2.4933 10.8749C2.51273 10.8379 2.53219 10.8008 2.551 10.7632C2.5574 10.7505 2.56378 10.7378 2.57015 10.7251C2.64042 10.5852 2.70965 10.4473 2.794 10.3162C2.85777 10.2153 2.93001 10.1222 3.00231 10.0291C3.01958 10.0068 3.03684 9.98456 3.054 9.9622L3.05754 9.95764C3.15434 9.83319 3.25031 9.70979 3.358 9.5942C3.45448 9.49015 3.55811 9.39685 3.66298 9.30243C3.66898 9.29702 3.67499 9.29161 3.681 9.2862C3.799 9.1802 3.919 9.0782 4.047 8.9842C4.166 8.8962 4.288 8.8162 4.415 8.7402C4.555 8.6542 4.698 8.5772 4.846 8.5062C4.976 8.4432 5.106 8.3862 5.242 8.3352C5.404 8.2732 5.571 8.2242 5.741 8.1802C5.876 8.1442 6.008 8.1092 6.148 8.0862C6.17442 8.08135 6.20007 8.07438 6.22571 8.0674C6.25829 8.05854 6.29086 8.04968 6.325 8.0452C7.146 5.6612 9.42 4.0002 12 4.0002C14.581 4.0002 16.855 5.6612 17.675 8.0452C17.7092 8.04969 17.7422 8.05857 17.7751 8.06746C17.8009 8.07441 17.8266 8.08137 17.853 8.0862C17.992 8.1092 18.125 8.1442 18.259 8.1802C18.429 8.2242 18.596 8.2732 18.758 8.3352C18.894 8.3862 19.025 8.4432 19.154 8.5062C19.302 8.5772 19.445 8.6542 19.585 8.7402C19.712 8.8162 19.835 8.8962 19.954 8.9842C20.081 9.0782 20.201 9.1802 20.319 9.2862C20.431 9.3862 20.54 9.4842 20.643 9.5942C20.752 9.7112 20.849 9.8362 20.946 9.9622C20.9587 9.97855 20.9714 9.99484 20.9841 10.0111C21.0614 10.1103 21.1383 10.2088 21.207 10.3162C21.2901 10.4468 21.359 10.5841 21.429 10.7234C21.4357 10.7367 21.4423 10.7499 21.449 10.7632C21.4678 10.8008 21.4873 10.8379 21.5067 10.8749C21.5513 10.9599 21.5958 11.0446 21.632 11.1352C21.7003 11.3022 21.7481 11.4785 21.7959 11.6547C21.7999 11.6695 21.804 11.6844 21.808 11.6992C21.8195 11.7423 21.8329 11.7848 21.8462 11.8273ZM11.3052 11.28C11.6992 10.904 12.3222 10.907 12.7072 11.293L15.7072 14.293C16.0982 14.684 16.0982 15.316 15.7072 15.707C15.5122 15.902 15.2562 16 15.0002 16C14.7442 16 14.4882 15.902 14.2932 15.707L13.0002 14.414V20C13.0002 20.553 12.5522 21 12.0002 21C11.4482 21 11.0002 20.553 11.0002 20V14.356L9.6952 15.616C9.2982 16.001 8.6652 15.988 8.2812 15.591C7.8972 15.193 7.9082 14.561 8.3052 14.177L11.3052 11.28Z" fill="#365314"/>
<mask id="mask0_29_4577" style="mask-type:luminance" maskUnits="userSpaceOnUse" x="2" y="4" width="20" height="17">
<path fill-rule="evenodd" clip-rule="evenodd" d="M21.8462 11.8273C21.8675 11.8953 21.8888 11.9634 21.903 12.0342C21.965 12.3472 22 12.6692 22 13.0002C22 13.3082 21.964 13.6112 21.908 13.9102C21.8956 13.9784 21.879 14.0437 21.8623 14.1091C21.8547 14.1387 21.8472 14.1683 21.84 14.1982C21.79 14.3972 21.731 14.5922 21.658 14.7832C21.62 14.8822 21.581 14.9792 21.537 15.0752C21.45 15.2652 21.349 15.4472 21.238 15.6262C21.2208 15.6539 21.2043 15.6821 21.1879 15.7103C21.1606 15.7572 21.1333 15.8042 21.102 15.8492C21.0929 15.8622 21.0851 15.8756 21.0774 15.889C21.0691 15.9034 21.0609 15.9177 21.051 15.9312C21.0433 15.9422 21.0325 15.9493 21.0219 15.9563C21.0133 15.962 21.0047 15.9676 20.998 15.9752C20.086 17.1972 18.642 18.0002 17 18.0002H14V16.7332C14.301 16.9072 14.643 17.0002 15 17.0002C15.534 17.0002 16.036 16.7922 16.414 16.4142C17.194 15.6352 17.194 14.3652 16.414 13.5862L13.414 10.5862C13.038 10.2092 12.536 10.0012 12.002 10.0012C11.483 10.0012 10.99 10.1982 10.614 10.5572L7.611 13.4572C6.818 14.2232 6.796 15.4922 7.562 16.2852C7.938 16.6742 8.462 16.8972 9.002 16.8972C9.357 16.8972 9.699 16.8042 10 16.6302V18.0002H7C5.358 18.0002 3.914 17.1972 3.003 15.9752C2.99599 15.9678 2.98745 15.9622 2.97888 15.9567C2.96789 15.9496 2.95687 15.9424 2.949 15.9312C2.93842 15.9167 2.92971 15.9013 2.92095 15.8859C2.91398 15.8735 2.90698 15.8612 2.899 15.8492C2.86708 15.8032 2.83883 15.7552 2.8106 15.7073C2.79462 15.6801 2.77863 15.653 2.762 15.6262C2.652 15.4472 2.55 15.2652 2.463 15.0752C2.42041 14.9823 2.38345 14.8884 2.34576 14.7927L2.342 14.7832C2.27 14.5922 2.21 14.3972 2.161 14.1982C2.15467 14.1729 2.14814 14.1478 2.14161 14.1227C2.12339 14.0528 2.10526 13.9831 2.092 13.9102C2.037 13.6112 2 13.3082 2 13.0002C2 12.6692 2.036 12.3472 2.097 12.0342C2.11157 11.9613 2.13378 11.8913 2.15598 11.8212C2.16881 11.7807 2.18164 11.7402 2.193 11.6992C2.19718 11.6838 2.20135 11.6685 2.20551 11.6531C2.25319 11.4774 2.30087 11.3016 2.368 11.1352C2.40422 11.0446 2.44869 10.9599 2.4933 10.8749C2.51273 10.8379 2.53219 10.8008 2.551 10.7632C2.5574 10.7505 2.56378 10.7378 2.57015 10.7251C2.64042 10.5852 2.70965 10.4473 2.794 10.3162C2.85777 10.2153 2.93001 10.1222 3.00231 10.0291C3.01958 10.0068 3.03684 9.98456 3.054 9.9622L3.05754 9.95764C3.15434 9.83319 3.25031 9.70979 3.358 9.5942C3.45448 9.49015 3.55811 9.39685 3.66298 9.30243C3.66898 9.29702 3.67499 9.29161 3.681 9.2862C3.799 9.1802 3.919 9.0782 4.047 8.9842C4.166 8.8962 4.288 8.8162 4.415 8.7402C4.555 8.6542 4.698 8.5772 4.846 8.5062C4.976 8.4432 5.106 8.3862 5.242 8.3352C5.404 8.2732 5.571 8.2242 5.741 8.1802C5.876 8.1442 6.008 8.1092 6.148 8.0862C6.17442 8.08135 6.20007 8.07438 6.22571 8.0674C6.25829 8.05854 6.29086 8.04968 6.325 8.0452C7.146 5.6612 9.42 4.0002 12 4.0002C14.581 4.0002 16.855 5.6612 17.675 8.0452C17.7092 8.04969 17.7422 8.05857 17.7751 8.06746C17.8009 8.07441 17.8266 8.08137 17.853 8.0862C17.992 8.1092 18.125 8.1442 18.259 8.1802C18.429 8.2242 18.596 8.2732 18.758 8.3352C18.894 8.3862 19.025 8.4432 19.154 8.5062C19.302 8.5772 19.445 8.6542 19.585 8.7402C19.712 8.8162 19.835 8.8962 19.954 8.9842C20.081 9.0782 20.201 9.1802 20.319 9.2862C20.431 9.3862 20.54 9.4842 20.643 9.5942C20.752 9.7112 20.849 9.8362 20.946 9.9622C20.9587 9.97855 20.9714 9.99484 20.9841 10.0111C21.0614 10.1103 21.1383 10.2088 21.207 10.3162C21.2901 10.4468 21.359 10.5841 21.429 10.7234C21.4357 10.7367 21.4423 10.7499 21.449 10.7632C21.4678 10.8008 21.4873 10.8379 21.5067 10.8749C21.5513 10.9599 21.5958 11.0446 21.632 11.1352C21.7003 11.3022 21.7481 11.4785 21.7959 11.6547C21.7999 11.6695 21.804 11.6844 21.808 11.6992C21.8195 11.7423 21.8329 11.7848 21.8462 11.8273ZM11.3052 11.28C11.6992 10.904 12.3222 10.907 12.7072 11.293L15.7072 14.293C16.0982 14.684 16.0982 15.316 15.7072 15.707C15.5122 15.902 15.2562 16 15.0002 16C14.7442 16 14.4882 15.902 14.2932 15.707L13.0002 14.414V20C13.0002 20.553 12.5522 21 12.0002 21C11.4482 21 11.0002 20.553 11.0002 20V14.356L9.6952 15.616C9.2982 16.001 8.6652 15.988 8.2812 15.591C7.8972 15.193 7.9082 14.561 8.3052 14.177L11.3052 11.28Z" fill="white"/>
</mask>
<g mask="url(#mask0_29_4577)">
<rect width="24" height="24" fill="#365314"/>
</g>
</svg>
