<svg width="24" height="24" viewBox="0 0 24 24" fill="none" xmlns="http://www.w3.org/2000/svg">
<path fill-rule="evenodd" clip-rule="evenodd" d="M18.0001 17H13.0001C12.4491 17 12.0001 16.551 12.0001 16V7.081L15.3751 9.781C15.5602 9.928 15.7801 10 16.0001 10C16.2921 10 16.5831 9.872 16.7811 9.625C17.1262 9.193 17.0561 8.564 16.6251 8.219L11.6251 4.219C11.2591 3.927 10.7411 3.927 10.3751 4.219L5.37515 8.219C4.94415 8.564 4.87415 9.193 5.21915 9.625C5.56315 10.056 6.19415 10.125 6.62515 9.781L10.0001 7.081V16C10.0001 17.654 11.3461 19 13.0001 19H18.0001C18.5521 19 19.0001 18.552 19.0001 18C19.0001 17.448 18.5521 17 18.0001 17Z" fill="#365314"/>
<mask id="mask0_29_4548" style="mask-type:luminance" maskUnits="userSpaceOnUse" x="5" y="4" width="14" height="15">
<path fill-rule="evenodd" clip-rule="evenodd" d="M18.0001 17H13.0001C12.4491 17 12.0001 16.551 12.0001 16V7.081L15.3751 9.781C15.5602 9.928 15.7801 10 16.0001 10C16.2921 10 16.5831 9.872 16.7811 9.625C17.1262 9.193 17.0561 8.564 16.6251 8.219L11.6251 4.219C11.2591 3.927 10.7411 3.927 10.3751 4.219L5.37515 8.219C4.94415 8.564 4.87415 9.193 5.21915 9.625C5.56315 10.056 6.19415 10.125 6.62515 9.781L10.0001 7.081V16C10.0001 17.654 11.3461 19 13.0001 19H18.0001C18.5521 19 19.0001 18.552 19.0001 18C19.0001 17.448 18.5521 17 18.0001 17Z" fill="white"/>
</mask>
<g mask="url(#mask0_29_4548)">
<rect width="24" height="24" fill="#365314"/>
</g>
</svg>
