<svg width="24" height="24" viewBox="0 0 24 24" fill="none" xmlns="http://www.w3.org/2000/svg">
<path fill-rule="evenodd" clip-rule="evenodd" d="M18.781 14.3755C18.436 13.9435 17.806 13.8745 17.376 14.2195L14 16.9195V8.0005C14 6.3455 12.655 5.0005 11 5.0005H6C5.448 5.0005 5 5.4475 5 6.0005C5 6.5525 5.448 7.0005 6 7.0005H11C11.552 7.0005 12 7.4485 12 8.0005V16.9195L8.625 14.2195C8.195 13.8745 7.565 13.9435 7.219 14.3755C6.874 14.8065 6.944 15.4365 7.376 15.7805L12.376 19.7805C12.558 19.9265 12.779 20.0005 13 20.0005C13.221 20.0005 13.442 19.9265 13.625 19.7805L18.625 15.7805C19.056 15.4365 19.126 14.8065 18.781 14.3755Z" fill="#365314"/>
<mask id="mask0_29_4545" style="mask-type:luminance" maskUnits="userSpaceOnUse" x="5" y="5" width="14" height="16">
<path fill-rule="evenodd" clip-rule="evenodd" d="M18.781 14.3755C18.436 13.9435 17.806 13.8745 17.376 14.2195L14 16.9195V8.0005C14 6.3455 12.655 5.0005 11 5.0005H6C5.448 5.0005 5 5.4475 5 6.0005C5 6.5525 5.448 7.0005 6 7.0005H11C11.552 7.0005 12 7.4485 12 8.0005V16.9195L8.625 14.2195C8.195 13.8745 7.565 13.9435 7.219 14.3755C6.874 14.8065 6.944 15.4365 7.376 15.7805L12.376 19.7805C12.558 19.9265 12.779 20.0005 13 20.0005C13.221 20.0005 13.442 19.9265 13.625 19.7805L18.625 15.7805C19.056 15.4365 19.126 14.8065 18.781 14.3755Z" fill="white"/>
</mask>
<g mask="url(#mask0_29_4545)">
<rect width="24" height="24" fill="#365314"/>
</g>
</svg>
