<svg width="24" height="24" viewBox="0 0 24 24" fill="none" xmlns="http://www.w3.org/2000/svg">
<path fill-rule="evenodd" clip-rule="evenodd" d="M16.9998 8.00001C16.4468 8.00001 15.9998 8.44801 15.9998 9.00001V14.586L7.70676 6.29301C7.31576 5.90201 6.68376 5.90201 6.29276 6.29301C5.90176 6.68401 5.90176 7.31601 6.29276 7.70701L14.5858 16H8.99976C8.44676 16 7.99976 16.448 7.99976 17C7.99976 17.552 8.44676 18 8.99976 18H16.9998C17.5528 18 17.9998 17.552 17.9998 17V9.00001C17.9998 8.44801 17.5528 8.00001 16.9998 8.00001Z" fill="#365314"/>
<mask id="mask0_29_4480" style="mask-type:luminance" maskUnits="userSpaceOnUse" x="5" y="5" width="13" height="13">
<path fill-rule="evenodd" clip-rule="evenodd" d="M16.9998 8.00001C16.4468 8.00001 15.9998 8.44801 15.9998 9.00001V14.586L7.70676 6.29301C7.31576 5.90201 6.68376 5.90201 6.29276 6.29301C5.90176 6.68401 5.90176 7.31601 6.29276 7.70701L14.5858 16H8.99976C8.44676 16 7.99976 16.448 7.99976 17C7.99976 17.552 8.44676 18 8.99976 18H16.9998C17.5528 18 17.9998 17.552 17.9998 17V9.00001C17.9998 8.44801 17.5528 8.00001 16.9998 8.00001Z" fill="white"/>
</mask>
<g mask="url(#mask0_29_4480)">
<rect width="24" height="24" fill="#365314"/>
</g>
</svg>
