<svg width="24" height="24" viewBox="0 0 24 24" fill="none" xmlns="http://www.w3.org/2000/svg">
<path fill-rule="evenodd" clip-rule="evenodd" d="M18.9686 16.1406C20.0016 13.4316 19.4676 10.2346 17.3416 8.0326L12.7826 3.3056C12.5966 3.1136 12.3406 3.0026 12.0716 2.9996C11.8026 2.9976 11.5446 3.1046 11.3546 3.2946L8.74356 5.9156L18.9686 16.1406ZM5.98838 8.8164C3.81239 11.7774 4.01439 16.0014 6.63538 18.7154C8.04038 20.1714 9.91838 20.9824 11.9254 21.0004H11.9274C13.6314 21.0134 15.2484 20.4484 16.5734 19.4014L5.98838 8.8164ZM4.70676 3.293L20.7068 19.293C21.0978 19.684 21.0978 20.316 20.7068 20.707C20.5118 20.902 20.2558 21 19.9998 21C19.7438 21 19.4878 20.902 19.2928 20.707L3.29276 4.707C2.90176 4.316 2.90176 3.684 3.29276 3.293C3.68376 2.902 4.31576 2.902 4.70676 3.293Z" fill="#365314"/>
<mask id="mask0_29_4689" style="mask-type:luminance" maskUnits="userSpaceOnUse" x="2" y="2" width="19" height="20">
<path fill-rule="evenodd" clip-rule="evenodd" d="M18.9686 16.1406C20.0016 13.4316 19.4676 10.2346 17.3416 8.0326L12.7826 3.3056C12.5966 3.1136 12.3406 3.0026 12.0716 2.9996C11.8026 2.9976 11.5446 3.1046 11.3546 3.2946L8.74356 5.9156L18.9686 16.1406ZM5.98838 8.8164C3.81239 11.7774 4.01439 16.0014 6.63538 18.7154C8.04038 20.1714 9.91838 20.9824 11.9254 21.0004H11.9274C13.6314 21.0134 15.2484 20.4484 16.5734 19.4014L5.98838 8.8164ZM4.70676 3.293L20.7068 19.293C21.0978 19.684 21.0978 20.316 20.7068 20.707C20.5118 20.902 20.2558 21 19.9998 21C19.7438 21 19.4878 20.902 19.2928 20.707L3.29276 4.707C2.90176 4.316 2.90176 3.684 3.29276 3.293C3.68376 2.902 4.31576 2.902 4.70676 3.293Z" fill="white"/>
</mask>
<g mask="url(#mask0_29_4689)">
<rect width="24" height="24" fill="#365314"/>
</g>
</svg>
