<svg width="24" height="24" viewBox="0 0 24 24" fill="none" xmlns="http://www.w3.org/2000/svg">
<path fill-rule="evenodd" clip-rule="evenodd" d="M12.0996 20.4004C10.2479 20.3838 8.51437 19.6361 7.21652 18.2921C4.54975 15.5302 4.58575 11.0708 7.29683 8.34961L11.5744 4.05731C11.7488 3.881 11.987 3.78315 12.2353 3.785C12.4836 3.78777 12.7199 3.88931 12.8925 4.06746L17.1008 8.42992C19.7676 11.1927 19.7316 15.653 17.0196 18.3715C15.7005 19.6942 13.955 20.4152 12.1014 20.4004H12.0996Z" fill="#365314"/>
<mask id="mask0_29_4688" style="mask-type:luminance" maskUnits="userSpaceOnUse" x="5" y="3" width="15" height="18">
<path fill-rule="evenodd" clip-rule="evenodd" d="M12.0996 20.4004C10.2479 20.3838 8.51437 19.6361 7.21652 18.2921C4.54975 15.5302 4.58575 11.0708 7.29683 8.34961L11.5744 4.05731C11.7488 3.881 11.987 3.78315 12.2353 3.785C12.4836 3.78777 12.7199 3.88931 12.8925 4.06746L17.1008 8.42992C19.7676 11.1927 19.7316 15.653 17.0196 18.3715C15.7005 19.6942 13.955 20.4152 12.1014 20.4004H12.0996Z" fill="white"/>
</mask>
<g mask="url(#mask0_29_4688)">
<rect width="24" height="24" fill="#365314"/>
</g>
</svg>
