<svg width="24" height="24" viewBox="0 0 24 24" fill="none" xmlns="http://www.w3.org/2000/svg">
<path fill-rule="evenodd" clip-rule="evenodd" d="M17.8089 13.395C19.5139 11.978 20.6989 9.953 20.9919 7.624C21.0609 7.077 20.6729 6.577 20.1239 6.508C19.5839 6.434 19.0759 6.827 19.0079 7.375C18.5689 10.867 15.5559 13.5 11.9999 13.5C8.44395 13.5 5.43095 10.867 4.99195 7.375C4.92395 6.827 4.41395 6.438 3.87495 6.508C3.32695 6.577 2.93895 7.077 3.00795 7.624C3.30095 9.953 4.48595 11.978 6.19095 13.395L3.87895 15.707C3.48995 16.096 3.48995 16.732 3.87895 17.121C4.26695 17.51 4.90395 17.51 5.29295 17.121L7.89595 14.518C8.84995 15 9.89695 15.318 10.9999 15.439V19C10.9999 19.55 11.4499 20 11.9999 20C12.5499 20 12.9999 19.55 12.9999 19V15.439C14.1019 15.318 15.1499 15 16.1029 14.518L18.7069 17.121C19.0959 17.51 19.7319 17.51 20.1209 17.121C20.5099 16.732 20.5099 16.096 20.1209 15.707L17.8089 13.395Z" fill="#365314"/>
<mask id="mask0_29_4563" style="mask-type:luminance" maskUnits="userSpaceOnUse" x="3" y="6" width="18" height="14">
<path fill-rule="evenodd" clip-rule="evenodd" d="M17.8089 13.395C19.5139 11.978 20.6989 9.953 20.9919 7.624C21.0609 7.077 20.6729 6.577 20.1239 6.508C19.5839 6.434 19.0759 6.827 19.0079 7.375C18.5689 10.867 15.5559 13.5 11.9999 13.5C8.44395 13.5 5.43095 10.867 4.99195 7.375C4.92395 6.827 4.41395 6.438 3.87495 6.508C3.32695 6.577 2.93895 7.077 3.00795 7.624C3.30095 9.953 4.48595 11.978 6.19095 13.395L3.87895 15.707C3.48995 16.096 3.48995 16.732 3.87895 17.121C4.26695 17.51 4.90395 17.51 5.29295 17.121L7.89595 14.518C8.84995 15 9.89695 15.318 10.9999 15.439V19C10.9999 19.55 11.4499 20 11.9999 20C12.5499 20 12.9999 19.55 12.9999 19V15.439C14.1019 15.318 15.1499 15 16.1029 14.518L18.7069 17.121C19.0959 17.51 19.7319 17.51 20.1209 17.121C20.5099 16.732 20.5099 16.096 20.1209 15.707L17.8089 13.395Z" fill="white"/>
</mask>
<g mask="url(#mask0_29_4563)">
<rect width="24" height="24" fill="#365314"/>
</g>
</svg>
