<svg width="24" height="24" viewBox="0 0 24 24" fill="none" xmlns="http://www.w3.org/2000/svg">
<path fill-rule="evenodd" clip-rule="evenodd" d="M19.4075 17.993L20.7076 19.293C21.0985 19.684 21.0985 20.316 20.7076 20.707C20.5126 20.902 20.2565 21 20.0005 21C19.7445 21 19.4885 20.902 19.2935 20.707L16.5865 18L16.0005 17.414L14.6555 16.069L14.5865 16L12.0842 13.4977C12.0563 13.4992 12.0283 13.5 12 13.5C11.173 13.5 10.5 12.827 10.5 12C10.5 11.9717 10.5008 11.9437 10.5023 11.9158L7.28355 8.697L5.53255 6.946L3.29355 4.707C2.90255 4.316 2.90255 3.684 3.29355 3.293C3.68455 2.902 4.31655 2.902 4.70755 3.293L6.42055 5.006L7.88555 6.471L11.9168 10.5023C11.9444 10.5008 11.9721 10.5 12 10.5C12.827 10.5 13.5 11.173 13.5 12C13.5 12.0279 13.4992 12.0556 13.4977 12.0832L17.4145 16L19.4075 17.993ZM8.5928 5.7642L11.3898 8.5612C11.5888 8.5262 11.7908 8.5002 11.9998 8.5002C13.9298 8.5002 15.4998 10.0702 15.4998 12.0002C15.4998 12.2092 15.4738 12.4112 15.4388 12.6102L18.1208 15.2932L18.9548 16.1272C20.4768 14.7392 21.4528 13.2202 21.8678 12.4972C22.0438 12.1892 22.0438 11.8102 21.8678 11.5022C21.2298 10.3902 17.7058 4.8162 11.7298 5.0032C10.5458 5.0342 9.4738 5.2892 8.5018 5.6742L8.5928 5.7642ZM13.948 16.7771L15.293 18.1211L15.498 18.3261C14.526 18.7111 13.455 18.9661 12.271 18.9961C12.189 18.9991 12.106 19.0001 12.025 19.0001C6.162 19.0001 2.762 13.5951 2.132 12.4971C1.956 12.1891 1.956 11.8101 2.132 11.5021C2.547 10.7801 3.523 9.2611 5.045 7.8731L6.576 9.4051L8.562 11.3901C8.526 11.5891 8.5 11.7911 8.5 12.0001C8.5 13.9301 10.07 15.5001 12 15.5001C12.209 15.5001 12.411 15.4741 12.61 15.4381L13.879 16.7071L13.948 16.7771Z" fill="#365314"/>
<mask id="mask0_29_4565" style="mask-type:luminance" maskUnits="userSpaceOnUse" x="2" y="2" width="20" height="19">
<path fill-rule="evenodd" clip-rule="evenodd" d="M19.4075 17.993L20.7076 19.293C21.0985 19.684 21.0985 20.316 20.7076 20.707C20.5126 20.902 20.2565 21 20.0005 21C19.7445 21 19.4885 20.902 19.2935 20.707L16.5865 18L16.0005 17.414L14.6555 16.069L14.5865 16L12.0842 13.4977C12.0563 13.4992 12.0283 13.5 12 13.5C11.173 13.5 10.5 12.827 10.5 12C10.5 11.9717 10.5008 11.9437 10.5023 11.9158L7.28355 8.697L5.53255 6.946L3.29355 4.707C2.90255 4.316 2.90255 3.684 3.29355 3.293C3.68455 2.902 4.31655 2.902 4.70755 3.293L6.42055 5.006L7.88555 6.471L11.9168 10.5023C11.9444 10.5008 11.9721 10.5 12 10.5C12.827 10.5 13.5 11.173 13.5 12C13.5 12.0279 13.4992 12.0556 13.4977 12.0832L17.4145 16L19.4075 17.993ZM8.5928 5.7642L11.3898 8.5612C11.5888 8.5262 11.7908 8.5002 11.9998 8.5002C13.9298 8.5002 15.4998 10.0702 15.4998 12.0002C15.4998 12.2092 15.4738 12.4112 15.4388 12.6102L18.1208 15.2932L18.9548 16.1272C20.4768 14.7392 21.4528 13.2202 21.8678 12.4972C22.0438 12.1892 22.0438 11.8102 21.8678 11.5022C21.2298 10.3902 17.7058 4.8162 11.7298 5.0032C10.5458 5.0342 9.4738 5.2892 8.5018 5.6742L8.5928 5.7642ZM13.948 16.7771L15.293 18.1211L15.498 18.3261C14.526 18.7111 13.455 18.9661 12.271 18.9961C12.189 18.9991 12.106 19.0001 12.025 19.0001C6.162 19.0001 2.762 13.5951 2.132 12.4971C1.956 12.1891 1.956 11.8101 2.132 11.5021C2.547 10.7801 3.523 9.2611 5.045 7.8731L6.576 9.4051L8.562 11.3901C8.526 11.5891 8.5 11.7911 8.5 12.0001C8.5 13.9301 10.07 15.5001 12 15.5001C12.209 15.5001 12.411 15.4741 12.61 15.4381L13.879 16.7071L13.948 16.7771Z" fill="white"/>
</mask>
<g mask="url(#mask0_29_4565)">
<rect width="24" height="24" fill="#365314"/>
</g>
</svg>
