<svg width="24" height="24" viewBox="0 0 24 24" fill="none" xmlns="http://www.w3.org/2000/svg">
<path fill-rule="evenodd" clip-rule="evenodd" d="M17.3281 14.5001L19.8311 10.7561C20.0361 10.4491 20.0561 10.0551 19.8821 9.7291C19.7081 9.4031 19.3691 9.2001 19.0001 9.2001H13.1141L13.8831 2.1071C13.9321 1.6501 13.6631 1.2181 13.2301 1.0611C12.7971 0.902098 12.3131 1.0611 12.0571 1.4441L8.93811 6.1101L17.3281 14.5001ZM6.67246 9.5001L4.16946 13.2441C3.96446 13.5511 3.94446 13.9451 4.11846 14.2711C4.29246 14.5971 4.63146 14.8001 5.00046 14.8001H10.8865L10.1175 21.8931C10.0685 22.3501 10.3375 22.7821 10.7705 22.9391C10.8825 22.9801 10.9975 23.0001 11.1115 23.0001C11.4385 23.0001 11.7535 22.8401 11.9435 22.5561L15.0625 17.8901L6.67246 9.5001ZM4.70701 3.293L20.707 19.293C21.098 19.684 21.098 20.316 20.707 20.707C20.512 20.902 20.256 21 20 21C19.744 21 19.488 20.902 19.293 20.707L3.29301 4.707C2.90201 4.316 2.90201 3.684 3.29301 3.293C3.68401 2.902 4.31601 2.902 4.70701 3.293Z" fill="#365314"/>
<mask id="mask0_29_4589" style="mask-type:luminance" maskUnits="userSpaceOnUse" x="2" y="1" width="20" height="22">
<path fill-rule="evenodd" clip-rule="evenodd" d="M17.3281 14.5001L19.8311 10.7561C20.0361 10.4491 20.0561 10.0551 19.8821 9.7291C19.7081 9.4031 19.3691 9.2001 19.0001 9.2001H13.1141L13.8831 2.1071C13.9321 1.6501 13.6631 1.2181 13.2301 1.0611C12.7971 0.902098 12.3131 1.0611 12.0571 1.4441L8.93811 6.1101L17.3281 14.5001ZM6.67246 9.5001L4.16946 13.2441C3.96446 13.5511 3.94446 13.9451 4.11846 14.2711C4.29246 14.5971 4.63146 14.8001 5.00046 14.8001H10.8865L10.1175 21.8931C10.0685 22.3501 10.3375 22.7821 10.7705 22.9391C10.8825 22.9801 10.9975 23.0001 11.1115 23.0001C11.4385 23.0001 11.7535 22.8401 11.9435 22.5561L15.0625 17.8901L6.67246 9.5001ZM4.70701 3.293L20.707 19.293C21.098 19.684 21.098 20.316 20.707 20.707C20.512 20.902 20.256 21 20 21C19.744 21 19.488 20.902 19.293 20.707L3.29301 4.707C2.90201 4.316 2.90201 3.684 3.29301 3.293C3.68401 2.902 4.31601 2.902 4.70701 3.293Z" fill="white"/>
</mask>
<g mask="url(#mask0_29_4589)">
<rect width="24" height="24" fill="#365314"/>
</g>
</svg>
