<svg width="24" height="24" viewBox="0 0 24 24" fill="none" xmlns="http://www.w3.org/2000/svg">
<path fill-rule="evenodd" clip-rule="evenodd" d="M19.5 20.5H4.5C3.122 20.5 2 19.409 2 18.068V5.932C2 4.591 3.122 3.5 4.5 3.5H9.101C9.4 3.5 9.685 3.635 9.875 3.867L12.474 7.046H19.5C20.878 7.046 22 8.137 22 9.478V18.068C22 19.409 20.878 20.5 19.5 20.5Z" fill="#365314"/>
<mask id="mask0_29_4560" style="mask-type:luminance" maskUnits="userSpaceOnUse" x="2" y="3" width="20" height="18">
<path fill-rule="evenodd" clip-rule="evenodd" d="M19.5 20.5H4.5C3.122 20.5 2 19.409 2 18.068V5.932C2 4.591 3.122 3.5 4.5 3.5H9.101C9.4 3.5 9.685 3.635 9.875 3.867L12.474 7.046H19.5C20.878 7.046 22 8.137 22 9.478V18.068C22 19.409 20.878 20.5 19.5 20.5Z" fill="white"/>
</mask>
<g mask="url(#mask0_29_4560)">
<rect width="24" height="24" fill="#365314"/>
</g>
</svg>
