<svg width="24" height="24" viewBox="0 0 24 24" fill="none" xmlns="http://www.w3.org/2000/svg">
<path fill-rule="evenodd" clip-rule="evenodd" d="M18.4433 21H12.8183V15.272H19.3633V20.091C19.3633 20.593 18.9513 21 18.4433 21ZM4.63661 20.0905V15.2725H11.1816V21.0005H5.55661C5.04861 21.0005 4.63661 20.5925 4.63661 20.0905ZM20.0995 7.09079H18.2575C18.4365 6.71779 18.5455 6.30479 18.5455 5.86279C18.5455 4.28479 17.2605 2.99979 15.6815 2.99979C13.8005 2.99979 12.6605 4.31979 11.9995 5.56879C11.3385 4.31979 10.1995 2.99979 8.31851 2.99979C6.73951 2.99979 5.45351 4.28479 5.45351 5.86279C5.45351 6.30479 5.56351 6.71779 5.74251 7.09079H3.90051C3.40351 7.09079 2.99951 7.67679 2.99951 8.40079V12.3268C2.99951 13.0498 3.40351 13.6368 3.90051 13.6368H4.63651H11.1815V7.09079H12.8185V13.6368H19.3635H20.0995C20.5965 13.6368 20.9995 13.0498 20.9995 12.3268V8.40079C20.9995 7.67679 20.5965 7.09079 20.0995 7.09079ZM15.6815 7.09079H13.1005C13.4865 6.07479 14.2805 4.63679 15.6815 4.63679C16.3585 4.63679 16.9095 5.18679 16.9095 5.86279C16.9095 6.53979 16.3585 7.09079 15.6815 7.09079ZM8.31851 7.09079C7.64151 7.09079 7.09051 6.53979 7.09051 5.86279C7.09051 5.18679 7.64151 4.63679 8.31851 4.63679C9.71951 4.63679 10.5135 6.07479 10.8995 7.09079H8.31851Z" fill="#365314"/>
<mask id="mask0_29_4691" style="mask-type:luminance" maskUnits="userSpaceOnUse" x="2" y="2" width="19" height="20">
<path fill-rule="evenodd" clip-rule="evenodd" d="M18.4433 21H12.8183V15.272H19.3633V20.091C19.3633 20.593 18.9513 21 18.4433 21ZM4.63661 20.0905V15.2725H11.1816V21.0005H5.55661C5.04861 21.0005 4.63661 20.5925 4.63661 20.0905ZM20.0995 7.09079H18.2575C18.4365 6.71779 18.5455 6.30479 18.5455 5.86279C18.5455 4.28479 17.2605 2.99979 15.6815 2.99979C13.8005 2.99979 12.6605 4.31979 11.9995 5.56879C11.3385 4.31979 10.1995 2.99979 8.31851 2.99979C6.73951 2.99979 5.45351 4.28479 5.45351 5.86279C5.45351 6.30479 5.56351 6.71779 5.74251 7.09079H3.90051C3.40351 7.09079 2.99951 7.67679 2.99951 8.40079V12.3268C2.99951 13.0498 3.40351 13.6368 3.90051 13.6368H4.63651H11.1815V7.09079H12.8185V13.6368H19.3635H20.0995C20.5965 13.6368 20.9995 13.0498 20.9995 12.3268V8.40079C20.9995 7.67679 20.5965 7.09079 20.0995 7.09079ZM15.6815 7.09079H13.1005C13.4865 6.07479 14.2805 4.63679 15.6815 4.63679C16.3585 4.63679 16.9095 5.18679 16.9095 5.86279C16.9095 6.53979 16.3585 7.09079 15.6815 7.09079ZM8.31851 7.09079C7.64151 7.09079 7.09051 6.53979 7.09051 5.86279C7.09051 5.18679 7.64151 4.63679 8.31851 4.63679C9.71951 4.63679 10.5135 6.07479 10.8995 7.09079H8.31851Z" fill="white"/>
</mask>
<g mask="url(#mask0_29_4691)">
<rect width="24" height="24" fill="#365314"/>
</g>
</svg>
