<svg width="24" height="24" viewBox="0 0 24 24" fill="none" xmlns="http://www.w3.org/2000/svg">
<path fill-rule="evenodd" clip-rule="evenodd" d="M12 1C5.926 1 1 5.82 1 11.767C1 16.522 4.152 20.558 8.523 21.981C9.074 22.08 9.274 21.748 9.274 21.462C9.274 21.207 9.265 20.529 9.26 19.632C6.2 20.282 5.555 18.188 5.555 18.188C5.054 16.944 4.333 16.613 4.333 16.613C3.334 15.945 4.409 15.959 4.409 15.959C5.513 16.035 6.093 17.068 6.093 17.068C7.074 18.714 8.667 18.238 9.295 17.963C9.395 17.268 9.678 16.793 9.993 16.523C7.55 16.252 4.982 15.328 4.982 11.203C4.982 10.028 5.411 9.067 6.115 8.314C6.001 8.042 5.624 6.947 6.222 5.465C6.222 5.465 7.146 5.176 9.248 6.568C10.125 6.329 11.066 6.211 12.001 6.206C12.935 6.211 13.876 6.329 14.755 6.568C16.855 5.176 17.777 5.465 17.777 5.465C18.377 6.947 18 8.042 17.886 8.314C18.591 9.067 19.017 10.028 19.017 11.203C19.017 15.339 16.445 16.249 13.995 16.516C14.39 16.848 14.741 17.505 14.741 18.509C14.741 19.948 14.728 21.109 14.728 21.462C14.728 21.75 14.926 22.085 15.484 21.98C19.851 20.554 23 16.521 23 11.767C23 5.82 18.075 1 12 1Z" fill="#365314"/>
<mask id="mask0_29_4710" style="mask-type:luminance" maskUnits="userSpaceOnUse" x="1" y="1" width="22" height="21">
<path fill-rule="evenodd" clip-rule="evenodd" d="M12 1C5.926 1 1 5.82 1 11.767C1 16.522 4.152 20.558 8.523 21.981C9.074 22.08 9.274 21.748 9.274 21.462C9.274 21.207 9.265 20.529 9.26 19.632C6.2 20.282 5.555 18.188 5.555 18.188C5.054 16.944 4.333 16.613 4.333 16.613C3.334 15.945 4.409 15.959 4.409 15.959C5.513 16.035 6.093 17.068 6.093 17.068C7.074 18.714 8.667 18.238 9.295 17.963C9.395 17.268 9.678 16.793 9.993 16.523C7.55 16.252 4.982 15.328 4.982 11.203C4.982 10.028 5.411 9.067 6.115 8.314C6.001 8.042 5.624 6.947 6.222 5.465C6.222 5.465 7.146 5.176 9.248 6.568C10.125 6.329 11.066 6.211 12.001 6.206C12.935 6.211 13.876 6.329 14.755 6.568C16.855 5.176 17.777 5.465 17.777 5.465C18.377 6.947 18 8.042 17.886 8.314C18.591 9.067 19.017 10.028 19.017 11.203C19.017 15.339 16.445 16.249 13.995 16.516C14.39 16.848 14.741 17.505 14.741 18.509C14.741 19.948 14.728 21.109 14.728 21.462C14.728 21.75 14.926 22.085 15.484 21.98C19.851 20.554 23 16.521 23 11.767C23 5.82 18.075 1 12 1Z" fill="white"/>
</mask>
<g mask="url(#mask0_29_4710)">
<rect width="24" height="24" fill="#365314"/>
</g>
</svg>
