<svg width="24" height="24" viewBox="0 0 24 24" fill="none" xmlns="http://www.w3.org/2000/svg">
<path fill-rule="evenodd" clip-rule="evenodd" d="M4.962 15.7999C5.598 15.9609 6.287 16.0729 6.988 16.0729C8.068 16.0729 9.171 15.8099 10.125 15.0629C11.841 13.7209 11.841 12.0039 11.841 10.6239C11.841 9.73291 11.841 8.96291 12.213 8.27991C12.413 7.91391 12.839 7.65991 13.332 7.36491C13.634 7.18491 13.946 6.99791 14.247 6.76291C14.89 6.25991 15.368 5.61191 15.664 4.89691C17.064 5.62091 18.224 6.74391 18.989 8.11891C17.562 8.31791 15.534 8.78491 15.126 10.6529C15.018 11.1469 15.001 11.6119 14.987 12.0229C14.967 12.6059 14.95 13.0669 14.7 13.4879L14.601 13.6559C13.954 14.7389 13.222 15.9679 14.209 17.6849C14.328 17.8929 14.461 18.0929 14.592 18.2909C14.936 18.8079 15.105 19.0929 15.106 19.3719C14.15 19.7769 13.101 19.9999 12 19.9999C8.963 19.9999 6.316 18.2989 4.962 15.7999ZM12 1.99991C6.486 1.99991 2 6.48691 2 11.9999C2 17.5139 6.486 21.9999 12 21.9999C17.514 21.9999 22 17.5139 22 11.9999C22 6.48691 17.514 1.99991 12 1.99991Z" fill="#365314"/>
<mask id="mask0_29_4703" style="mask-type:luminance" maskUnits="userSpaceOnUse" x="2" y="2" width="20" height="20">
<path fill-rule="evenodd" clip-rule="evenodd" d="M4.962 15.7999C5.598 15.9609 6.287 16.0729 6.988 16.0729C8.068 16.0729 9.171 15.8099 10.125 15.0629C11.841 13.7209 11.841 12.0039 11.841 10.6239C11.841 9.73291 11.841 8.96291 12.213 8.27991C12.413 7.91391 12.839 7.65991 13.332 7.36491C13.634 7.18491 13.946 6.99791 14.247 6.76291C14.89 6.25991 15.368 5.61191 15.664 4.89691C17.064 5.62091 18.224 6.74391 18.989 8.11891C17.562 8.31791 15.534 8.78491 15.126 10.6529C15.018 11.1469 15.001 11.6119 14.987 12.0229C14.967 12.6059 14.95 13.0669 14.7 13.4879L14.601 13.6559C13.954 14.7389 13.222 15.9679 14.209 17.6849C14.328 17.8929 14.461 18.0929 14.592 18.2909C14.936 18.8079 15.105 19.0929 15.106 19.3719C14.15 19.7769 13.101 19.9999 12 19.9999C8.963 19.9999 6.316 18.2989 4.962 15.7999ZM12 1.99991C6.486 1.99991 2 6.48691 2 11.9999C2 17.5139 6.486 21.9999 12 21.9999C17.514 21.9999 22 17.5139 22 11.9999C22 6.48691 17.514 1.99991 12 1.99991Z" fill="white"/>
</mask>
<g mask="url(#mask0_29_4703)">
<rect width="24" height="24" fill="#365314"/>
</g>
</svg>
