<svg width="24" height="24" viewBox="0 0 24 24" fill="none" xmlns="http://www.w3.org/2000/svg">
<path fill-rule="evenodd" clip-rule="evenodd" d="M9.698 14L10.427 10H14.302L13.573 14H9.698ZM20 14H15.698L16.427 10H20C20.55 10 21 9.55 21 9C21 8.45 20.55 8 20 8H16.79L17.484 4.189C17.584 3.641 17.202 3.112 16.635 3.016C16.068 2.919 15.523 3.289 15.423 3.838L14.665 8H10.79L11.484 4.189C11.584 3.641 11.202 3.112 10.635 3.016C10.068 2.919 9.523 3.289 9.423 3.838L8.665 8H4C3.45 8 3 8.45 3 9C3 9.55 3.45 10 4 10H8.302L7.573 14H4C3.45 14 3 14.45 3 15C3 15.55 3.45 16 4 16H7.209L6.515 19.811C6.416 20.359 6.798 20.888 7.365 20.984C7.931 21.081 8.477 20.711 8.576 20.162L9.334 16H13.209L12.515 19.811C12.416 20.359 12.798 20.888 13.365 20.984C13.931 21.081 14.477 20.711 14.576 20.162L15.334 16H20C20.55 16 21 15.55 21 15C21 14.45 20.55 14 20 14Z" fill="#365314"/>
<mask id="mask0_29_4580" style="mask-type:luminance" maskUnits="userSpaceOnUse" x="3" y="3" width="18" height="18">
<path fill-rule="evenodd" clip-rule="evenodd" d="M9.698 14L10.427 10H14.302L13.573 14H9.698ZM20 14H15.698L16.427 10H20C20.55 10 21 9.55 21 9C21 8.45 20.55 8 20 8H16.79L17.484 4.189C17.584 3.641 17.202 3.112 16.635 3.016C16.068 2.919 15.523 3.289 15.423 3.838L14.665 8H10.79L11.484 4.189C11.584 3.641 11.202 3.112 10.635 3.016C10.068 2.919 9.523 3.289 9.423 3.838L8.665 8H4C3.45 8 3 8.45 3 9C3 9.55 3.45 10 4 10H8.302L7.573 14H4C3.45 14 3 14.45 3 15C3 15.55 3.45 16 4 16H7.209L6.515 19.811C6.416 20.359 6.798 20.888 7.365 20.984C7.931 21.081 8.477 20.711 8.576 20.162L9.334 16H13.209L12.515 19.811C12.416 20.359 12.798 20.888 13.365 20.984C13.931 21.081 14.477 20.711 14.576 20.162L15.334 16H20C20.55 16 21 15.55 21 15C21 14.45 20.55 14 20 14Z" fill="white"/>
</mask>
<g mask="url(#mask0_29_4580)">
<rect width="24" height="24" fill="#365314"/>
</g>
</svg>
