<svg width="24" height="24" viewBox="0 0 24 24" fill="none" xmlns="http://www.w3.org/2000/svg">
<path fill-rule="evenodd" clip-rule="evenodd" d="M12.7148 2.3006L20.4238 10.1846C20.7898 10.5606 20.9998 11.0846 20.9998 11.6236V19.9996C20.9998 21.1026 20.1528 21.9996 19.1118 21.9996H15.9998V12.9996C15.9998 12.4476 15.5528 11.9996 14.9998 11.9996H8.99976C8.44676 11.9996 7.99976 12.4476 7.99976 12.9996V21.9996H4.88876C3.84776 21.9996 2.99976 21.1026 2.99976 19.9996V11.6236C2.99976 11.0846 3.20976 10.5606 3.57476 10.1856L11.2848 2.3006C11.6618 1.9156 12.3378 1.9156 12.7148 2.3006ZM14 21H9.99996V14H14V21Z" fill="#365314"/>
<mask id="mask0_29_4595" style="mask-type:luminance" maskUnits="userSpaceOnUse" x="2" y="2" width="19" height="20">
<path fill-rule="evenodd" clip-rule="evenodd" d="M12.7148 2.3006L20.4238 10.1846C20.7898 10.5606 20.9998 11.0846 20.9998 11.6236V19.9996C20.9998 21.1026 20.1528 21.9996 19.1118 21.9996H15.9998V12.9996C15.9998 12.4476 15.5528 11.9996 14.9998 11.9996H8.99976C8.44676 11.9996 7.99976 12.4476 7.99976 12.9996V21.9996H4.88876C3.84776 21.9996 2.99976 21.1026 2.99976 19.9996V11.6236C2.99976 11.0846 3.20976 10.5606 3.57476 10.1856L11.2848 2.3006C11.6618 1.9156 12.3378 1.9156 12.7148 2.3006ZM14 21H9.99996V14H14V21Z" fill="white"/>
</mask>
<g mask="url(#mask0_29_4595)">
<rect width="24" height="24" fill="#365314"/>
</g>
</svg>
