<svg width="24" height="24" viewBox="0 0 24 24" fill="none" xmlns="http://www.w3.org/2000/svg">
<path fill-rule="evenodd" clip-rule="evenodd" d="M8.342 5.5527C8.511 5.2137 8.858 4.9997 9.237 4.9997H14.764C15.143 4.9997 15.489 5.2137 15.658 5.5527L18.382 10.9997H16C15.448 10.9997 15 11.4477 15 11.9997V13.9997C15 14.5527 14.552 14.9997 14 14.9997H10C9.448 14.9997 9 14.5527 9 13.9997V11.9997C9 11.4477 8.552 10.9997 8 10.9997H5.618L8.342 5.5527ZM20.789 11.3417L17.447 4.6577C16.936 3.6357 15.908 2.9997 14.764 2.9997H9.236C8.092 2.9997 7.065 3.6357 6.553 4.6577L3.211 11.3417C3.073 11.6177 3 11.9277 3 12.2367V17.9997C3 19.6547 4.346 20.9997 6 20.9997H18C19.655 20.9997 21 19.6547 21 17.9997V12.2367C21 11.9277 20.927 11.6177 20.789 11.3417Z" fill="#365314"/>
<mask id="mask0_29_4587" style="mask-type:luminance" maskUnits="userSpaceOnUse" x="3" y="2" width="18" height="19">
<path fill-rule="evenodd" clip-rule="evenodd" d="M8.342 5.5527C8.511 5.2137 8.858 4.9997 9.237 4.9997H14.764C15.143 4.9997 15.489 5.2137 15.658 5.5527L18.382 10.9997H16C15.448 10.9997 15 11.4477 15 11.9997V13.9997C15 14.5527 14.552 14.9997 14 14.9997H10C9.448 14.9997 9 14.5527 9 13.9997V11.9997C9 11.4477 8.552 10.9997 8 10.9997H5.618L8.342 5.5527ZM20.789 11.3417L17.447 4.6577C16.936 3.6357 15.908 2.9997 14.764 2.9997H9.236C8.092 2.9997 7.065 3.6357 6.553 4.6577L3.211 11.3417C3.073 11.6177 3 11.9277 3 12.2367V17.9997C3 19.6547 4.346 20.9997 6 20.9997H18C19.655 20.9997 21 19.6547 21 17.9997V12.2367C21 11.9277 20.927 11.6177 20.789 11.3417Z" fill="white"/>
</mask>
<g mask="url(#mask0_29_4587)">
<rect width="24" height="24" fill="#365314"/>
</g>
</svg>
