<svg width="24" height="24" viewBox="0 0 24 24" fill="none" xmlns="http://www.w3.org/2000/svg">
<path fill-rule="evenodd" clip-rule="evenodd" d="M3.24094 7.2871L11.7619 11.9231C11.9089 12.0031 12.0909 12.0031 12.2389 11.9231L20.7599 7.2871C21.1029 7.1001 21.0729 6.6221 20.7079 6.4751L12.1879 3.0361C12.0679 2.9881 11.9319 2.9881 11.8119 3.0361L3.29194 6.4751C2.92794 6.6221 2.89794 7.1001 3.24094 7.2871ZM20.7082 10.6563L18.8782 9.8763L12.2392 13.4883C12.0912 13.5683 11.9092 13.5683 11.7612 13.4883L5.12224 9.8763L3.29224 10.6563C2.92724 10.8113 2.89724 11.3173 3.24124 11.5143L11.7612 16.4113C11.9092 16.4963 12.0912 16.4963 12.2392 16.4113L20.7592 11.5143C21.1032 11.3173 21.0732 10.8113 20.7082 10.6563ZM19.1512 14.4227L20.7082 15.0967C21.0732 15.2547 21.1032 15.7677 20.7592 15.9677L12.2392 20.9357C12.0912 21.0217 11.9092 21.0217 11.7612 20.9357L3.24124 15.9677C2.89724 15.7677 2.92724 15.2547 3.29224 15.0967L4.84924 14.4227L11.7612 18.1837C11.9092 18.2637 12.0912 18.2637 12.2392 18.1837L19.1512 14.4227Z" fill="#365314"/>
<mask id="mask0_29_4586" style="mask-type:luminance" maskUnits="userSpaceOnUse" x="3" y="3" width="19" height="19">
<path fill-rule="evenodd" clip-rule="evenodd" d="M3.24094 7.2871L11.7619 11.9231C11.9089 12.0031 12.0909 12.0031 12.2389 11.9231L20.7599 7.2871C21.1029 7.1001 21.0729 6.6221 20.7079 6.4751L12.1879 3.0361C12.0679 2.9881 11.9319 2.9881 11.8119 3.0361L3.29194 6.4751C2.92794 6.6221 2.89794 7.1001 3.24094 7.2871ZM20.7082 10.6563L18.8782 9.8763L12.2392 13.4883C12.0912 13.5683 11.9092 13.5683 11.7612 13.4883L5.12224 9.8763L3.29224 10.6563C2.92724 10.8113 2.89724 11.3173 3.24124 11.5143L11.7612 16.4113C11.9092 16.4963 12.0912 16.4963 12.2392 16.4113L20.7592 11.5143C21.1032 11.3173 21.0732 10.8113 20.7082 10.6563ZM19.1512 14.4227L20.7082 15.0967C21.0732 15.2547 21.1032 15.7677 20.7592 15.9677L12.2392 20.9357C12.0912 21.0217 11.9092 21.0217 11.7612 20.9357L3.24124 15.9677C2.89724 15.7677 2.92724 15.2547 3.29224 15.0967L4.84924 14.4227L11.7612 18.1837C11.9092 18.2637 12.0912 18.2637 12.2392 18.1837L19.1512 14.4227Z" fill="white"/>
</mask>
<g mask="url(#mask0_29_4586)">
<rect width="24" height="24" fill="#365314"/>
</g>
</svg>
