<svg width="24" height="24" viewBox="0 0 24 24" fill="none" xmlns="http://www.w3.org/2000/svg">
<path fill-rule="evenodd" clip-rule="evenodd" d="M11.5272 3.8997C13.7092 1.7127 17.2302 1.3177 19.6622 3.2197C22.5752 5.4977 22.7662 9.7427 20.2352 12.2797L18.8122 13.7047C18.4192 14.0987 17.7832 14.0987 17.3902 13.7047C16.9972 13.3117 16.9972 12.6727 17.3902 12.2797L18.8122 10.8537C20.4672 9.1967 20.3772 6.4417 18.5402 4.9037C16.9132 3.5407 14.4712 3.8007 12.9722 5.3027L11.6992 6.5777C11.3072 6.9717 10.6692 6.9717 10.2772 6.5777C9.88422 6.1847 9.88022 5.5497 10.4542 4.9747L11.5272 3.8997ZM13.2931 9.293L9.29312 13.293C8.90212 13.684 8.90212 14.316 9.29312 14.707C9.48812 14.902 9.74412 15 10.0001 15C10.2561 15 10.5121 14.902 10.7071 14.707L14.7071 10.707C15.0981 10.316 15.0981 9.684 14.7071 9.293C14.3161 8.902 13.6841 8.902 13.2931 9.293ZM12.2804 17.3965L11.0064 18.6675C9.50542 20.1645 7.05842 20.4225 5.43042 19.0655C3.59142 17.5335 3.50042 14.7875 5.15742 13.1345L6.58242 11.7145C6.97542 11.3225 6.97542 10.6865 6.58242 10.2935C6.18942 9.9025 5.55142 9.9025 5.15742 10.2935L3.88242 11.5665C1.71042 13.7325 1.32942 17.2165 3.20742 19.6405C5.47842 22.5735 9.73842 22.7715 12.2804 20.2375L13.7054 18.8175C14.0984 18.4245 14.0984 17.7895 13.7054 17.3965C13.3114 17.0035 12.6744 17.0035 12.2804 17.3965Z" fill="#365314"/>
<mask id="mask0_29_4583" style="mask-type:luminance" maskUnits="userSpaceOnUse" x="2" y="2" width="21" height="20">
<path fill-rule="evenodd" clip-rule="evenodd" d="M11.5272 3.8997C13.7092 1.7127 17.2302 1.3177 19.6622 3.2197C22.5752 5.4977 22.7662 9.7427 20.2352 12.2797L18.8122 13.7047C18.4192 14.0987 17.7832 14.0987 17.3902 13.7047C16.9972 13.3117 16.9972 12.6727 17.3902 12.2797L18.8122 10.8537C20.4672 9.1967 20.3772 6.4417 18.5402 4.9037C16.9132 3.5407 14.4712 3.8007 12.9722 5.3027L11.6992 6.5777C11.3072 6.9717 10.6692 6.9717 10.2772 6.5777C9.88422 6.1847 9.88022 5.5497 10.4542 4.9747L11.5272 3.8997ZM13.2931 9.293L9.29312 13.293C8.90212 13.684 8.90212 14.316 9.29312 14.707C9.48812 14.902 9.74412 15 10.0001 15C10.2561 15 10.5121 14.902 10.7071 14.707L14.7071 10.707C15.0981 10.316 15.0981 9.684 14.7071 9.293C14.3161 8.902 13.6841 8.902 13.2931 9.293ZM12.2804 17.3965L11.0064 18.6675C9.50542 20.1645 7.05842 20.4225 5.43042 19.0655C3.59142 17.5335 3.50042 14.7875 5.15742 13.1345L6.58242 11.7145C6.97542 11.3225 6.97542 10.6865 6.58242 10.2935C6.18942 9.9025 5.55142 9.9025 5.15742 10.2935L3.88242 11.5665C1.71042 13.7325 1.32942 17.2165 3.20742 19.6405C5.47842 22.5735 9.73842 22.7715 12.2804 20.2375L13.7054 18.8175C14.0984 18.4245 14.0984 17.7895 13.7054 17.3965C13.3114 17.0035 12.6744 17.0035 12.2804 17.3965Z" fill="white"/>
</mask>
<g mask="url(#mask0_29_4583)">
<rect width="24" height="24" fill="#365314"/>
</g>
</svg>
