<svg width="24" height="24" viewBox="0 0 24 24" fill="none" xmlns="http://www.w3.org/2000/svg">
<path fill-rule="evenodd" clip-rule="evenodd" d="M9.00064 16H7.21064C5.10464 16 3.20464 14.465 3.01764 12.366C2.80464 9.996 4.67364 8 7.00064 8H9.00064C9.55264 8 10.0006 7.553 10.0006 7C10.0006 6.447 9.55264 6 9.00064 6H7.20964C4.16064 6 1.43964 8.187 1.05164 11.211C0.582639 14.869 3.43264 18 7.00064 18H9.00064C9.55264 18 10.0006 17.553 10.0006 17C10.0006 16.447 9.55264 16 9.00064 16ZM8.00009 12C8.00009 12.553 8.44809 13 9.00009 13H15.0001C15.5521 13 16.0001 12.553 16.0001 12C16.0001 11.447 15.5521 11 15.0001 11H9.00009C8.44809 11 8.00009 11.447 8.00009 12ZM16.7592 6.0002C19.8262 6.0002 22.5782 8.1972 22.9532 11.2422C23.4022 14.8882 20.5582 18.0002 17.0002 18.0002H15.0002C14.4482 18.0002 14.0002 17.5532 14.0002 17.0002C14.0002 16.4472 14.4482 16.0002 15.0002 16.0002H17.0002C19.3272 16.0002 21.1962 14.0042 20.9832 11.6342C20.7962 9.5352 18.8962 8.0002 16.7892 8.0002H15.0002C14.4482 8.0002 14.0002 7.5532 14.0002 7.0002C14.0002 6.4472 14.4432 6.0002 15.2492 6.0002H16.7592Z" fill="#365314"/>
<mask id="mask0_29_4584" style="mask-type:luminance" maskUnits="userSpaceOnUse" x="1" y="6" width="22" height="13">
<path fill-rule="evenodd" clip-rule="evenodd" d="M9.00064 16H7.21064C5.10464 16 3.20464 14.465 3.01764 12.366C2.80464 9.996 4.67364 8 7.00064 8H9.00064C9.55264 8 10.0006 7.553 10.0006 7C10.0006 6.447 9.55264 6 9.00064 6H7.20964C4.16064 6 1.43964 8.187 1.05164 11.211C0.582639 14.869 3.43264 18 7.00064 18H9.00064C9.55264 18 10.0006 17.553 10.0006 17C10.0006 16.447 9.55264 16 9.00064 16ZM8.00009 12C8.00009 12.553 8.44809 13 9.00009 13H15.0001C15.5521 13 16.0001 12.553 16.0001 12C16.0001 11.447 15.5521 11 15.0001 11H9.00009C8.44809 11 8.00009 11.447 8.00009 12ZM16.7592 6.0002C19.8262 6.0002 22.5782 8.1972 22.9532 11.2422C23.4022 14.8882 20.5582 18.0002 17.0002 18.0002H15.0002C14.4482 18.0002 14.0002 17.5532 14.0002 17.0002C14.0002 16.4472 14.4482 16.0002 15.0002 16.0002H17.0002C19.3272 16.0002 21.1962 14.0042 20.9832 11.6342C20.7962 9.5352 18.8962 8.0002 16.7892 8.0002H15.0002C14.4482 8.0002 14.0002 7.5532 14.0002 7.0002C14.0002 6.4472 14.4432 6.0002 15.2492 6.0002H16.7592Z" fill="white"/>
</mask>
<g mask="url(#mask0_29_4584)">
<rect width="24" height="24" fill="#365314"/>
</g>
</svg>
