<svg width="24" height="24" viewBox="0 0 24 24" fill="none" xmlns="http://www.w3.org/2000/svg">
<path fill-rule="evenodd" clip-rule="evenodd" d="M3.94802 5H20.052C20.573 5 21 5.427 21 5.948V6.052C21 6.573 20.573 7 20.052 7H3.94802C3.42702 7 3.00002 6.573 3.00002 6.052V5.948C3.00002 5.427 3.42702 5 3.94802 5ZM20.0517 11H5.91374L7.20674 9.707C7.59774 9.316 7.59774 8.684 7.20674 8.293C6.81674 7.902 6.18374 7.902 5.79274 8.293L2.79274 11.293C2.40274 11.684 2.40274 12.316 2.79274 12.707L5.79274 15.707C5.98874 15.902 6.24374 16 6.49974 16C6.75574 16 7.01174 15.902 7.20674 15.707C7.59774 15.316 7.59774 14.684 7.20674 14.293L5.91374 13H20.0517C20.5727 13 20.9997 12.573 20.9997 12.052V11.948C20.9997 11.427 20.5727 11 20.0517 11ZM20.052 17H3.94802C3.42702 17 3.00002 17.427 3.00002 17.948V18.052C3.00002 18.573 3.42702 19 3.94802 19H20.052C20.573 19 21 18.573 21 18.052V17.948C21 17.427 20.573 17 20.052 17Z" fill="#365314"/>
<mask id="mask0_29_4696" style="mask-type:luminance" maskUnits="userSpaceOnUse" x="2" y="5" width="19" height="14">
<path fill-rule="evenodd" clip-rule="evenodd" d="M3.94802 5H20.052C20.573 5 21 5.427 21 5.948V6.052C21 6.573 20.573 7 20.052 7H3.94802C3.42702 7 3.00002 6.573 3.00002 6.052V5.948C3.00002 5.427 3.42702 5 3.94802 5ZM20.0517 11H5.91374L7.20674 9.707C7.59774 9.316 7.59774 8.684 7.20674 8.293C6.81674 7.902 6.18374 7.902 5.79274 8.293L2.79274 11.293C2.40274 11.684 2.40274 12.316 2.79274 12.707L5.79274 15.707C5.98874 15.902 6.24374 16 6.49974 16C6.75574 16 7.01174 15.902 7.20674 15.707C7.59774 15.316 7.59774 14.684 7.20674 14.293L5.91374 13H20.0517C20.5727 13 20.9997 12.573 20.9997 12.052V11.948C20.9997 11.427 20.5727 11 20.0517 11ZM20.052 17H3.94802C3.42702 17 3.00002 17.427 3.00002 17.948V18.052C3.00002 18.573 3.42702 19 3.94802 19H20.052C20.573 19 21 18.573 21 18.052V17.948C21 17.427 20.573 17 20.052 17Z" fill="white"/>
</mask>
<g mask="url(#mask0_29_4696)">
<rect width="24" height="24" fill="#365314"/>
</g>
</svg>
