<svg width="24" height="24" viewBox="0 0 24 24" fill="none" xmlns="http://www.w3.org/2000/svg">
<path fill-rule="evenodd" clip-rule="evenodd" d="M3 7.00011H4.185C4.599 8.16111 5.698 9.00011 7 9.00011C8.302 9.00011 9.401 8.16111 9.815 7.00011H21C21.553 7.00011 22 6.55311 22 6.00011C22 5.44711 21.553 5.00011 21 5.00011H9.815C9.401 3.83911 8.302 3.00011 7 3.00011C5.698 3.00011 4.599 3.83911 4.185 5.00011H3C2.447 5.00011 2 5.44711 2 6.00011C2 6.55311 2.447 7.00011 3 7.00011ZM19 9.00011C17.698 9.00011 16.599 9.83911 16.185 11.0001H3C2.447 11.0001 2 11.4471 2 12.0001C2 12.5531 2.447 13.0001 3 13.0001H16.185C16.599 14.1611 17.698 15.0001 19 15.0001C20.654 15.0001 22 13.6541 22 12.0001C22 10.3461 20.654 9.00011 19 9.00011ZM13.815 17.0001H21C21.553 17.0001 22 17.4471 22 18.0001C22 18.5531 21.553 19.0001 21 19.0001H13.815C13.401 20.1611 12.302 21.0001 11 21.0001C9.698 21.0001 8.599 20.1611 8.185 19.0001H3C2.447 19.0001 2 18.5531 2 18.0001C2 17.4471 2.447 17.0001 3 17.0001H8.185C8.599 15.8391 9.698 15.0001 11 15.0001C12.302 15.0001 13.401 15.8391 13.815 17.0001Z" fill="#365314"/>
<mask id="mask0_29_4626" style="mask-type:luminance" maskUnits="userSpaceOnUse" x="2" y="3" width="20" height="19">
<path fill-rule="evenodd" clip-rule="evenodd" d="M3 7.00011H4.185C4.599 8.16111 5.698 9.00011 7 9.00011C8.302 9.00011 9.401 8.16111 9.815 7.00011H21C21.553 7.00011 22 6.55311 22 6.00011C22 5.44711 21.553 5.00011 21 5.00011H9.815C9.401 3.83911 8.302 3.00011 7 3.00011C5.698 3.00011 4.599 3.83911 4.185 5.00011H3C2.447 5.00011 2 5.44711 2 6.00011C2 6.55311 2.447 7.00011 3 7.00011ZM19 9.00011C17.698 9.00011 16.599 9.83911 16.185 11.0001H3C2.447 11.0001 2 11.4471 2 12.0001C2 12.5531 2.447 13.0001 3 13.0001H16.185C16.599 14.1611 17.698 15.0001 19 15.0001C20.654 15.0001 22 13.6541 22 12.0001C22 10.3461 20.654 9.00011 19 9.00011ZM13.815 17.0001H21C21.553 17.0001 22 17.4471 22 18.0001C22 18.5531 21.553 19.0001 21 19.0001H13.815C13.401 20.1611 12.302 21.0001 11 21.0001C9.698 21.0001 8.599 20.1611 8.185 19.0001H3C2.447 19.0001 2 18.5531 2 18.0001C2 17.4471 2.447 17.0001 3 17.0001H8.185C8.599 15.8391 9.698 15.0001 11 15.0001C12.302 15.0001 13.401 15.8391 13.815 17.0001Z" fill="white"/>
</mask>
<g mask="url(#mask0_29_4626)">
<rect width="24" height="24" fill="#365314"/>
</g>
</svg>
