<svg width="24" height="24" viewBox="0 0 24 24" fill="none" xmlns="http://www.w3.org/2000/svg">
<path fill-rule="evenodd" clip-rule="evenodd" d="M19.7395 4.26069C19.3925 3.91269 18.8295 3.91269 18.4825 4.26069L4.26051 18.4827C4.08651 18.6567 3.99951 18.8837 3.99951 19.1117C3.99951 19.3387 4.08651 19.5667 4.26051 19.7397C4.60751 20.0867 5.16951 20.0867 5.51751 19.7397L19.7395 5.51769C20.0865 5.16969 20.0865 4.60769 19.7395 4.26069ZM15.9998 19C15.1728 19 14.4998 18.327 14.4998 17.5C14.4998 16.673 15.1728 16 15.9998 16C16.8268 16 17.4998 16.673 17.4998 17.5C17.4998 18.327 16.8268 19 15.9998 19ZM15.9998 14C14.0698 14 12.4998 15.57 12.4998 17.5C12.4998 19.43 14.0698 21 15.9998 21C17.9298 21 19.4998 19.43 19.4998 17.5C19.4998 15.57 17.9298 14 15.9998 14ZM7.99981 5.99999C8.82681 5.99999 9.49981 6.67299 9.49981 7.49999C9.49981 8.32699 8.82681 8.99999 7.99981 8.99999C7.17281 8.99999 6.49981 8.32699 6.49981 7.49999C6.49981 6.67299 7.17281 5.99999 7.99981 5.99999ZM8.00009 11C9.93009 11 11.5001 9.42999 11.5001 7.49999C11.5001 5.56999 9.93009 3.99999 8.00009 3.99999C6.07009 3.99999 4.50009 5.56999 4.50009 7.49999C4.50009 9.42999 6.07009 11 8.00009 11Z" fill="#365314"/>
<mask id="mask0_29_4634" style="mask-type:luminance" maskUnits="userSpaceOnUse" x="3" y="3" width="17" height="18">
<path fill-rule="evenodd" clip-rule="evenodd" d="M19.7395 4.26069C19.3925 3.91269 18.8295 3.91269 18.4825 4.26069L4.26051 18.4827C4.08651 18.6567 3.99951 18.8837 3.99951 19.1117C3.99951 19.3387 4.08651 19.5667 4.26051 19.7397C4.60751 20.0867 5.16951 20.0867 5.51751 19.7397L19.7395 5.51769C20.0865 5.16969 20.0865 4.60769 19.7395 4.26069ZM15.9998 19C15.1728 19 14.4998 18.327 14.4998 17.5C14.4998 16.673 15.1728 16 15.9998 16C16.8268 16 17.4998 16.673 17.4998 17.5C17.4998 18.327 16.8268 19 15.9998 19ZM15.9998 14C14.0698 14 12.4998 15.57 12.4998 17.5C12.4998 19.43 14.0698 21 15.9998 21C17.9298 21 19.4998 19.43 19.4998 17.5C19.4998 15.57 17.9298 14 15.9998 14ZM7.99981 5.99999C8.82681 5.99999 9.49981 6.67299 9.49981 7.49999C9.49981 8.32699 8.82681 8.99999 7.99981 8.99999C7.17281 8.99999 6.49981 8.32699 6.49981 7.49999C6.49981 6.67299 7.17281 5.99999 7.99981 5.99999ZM8.00009 11C9.93009 11 11.5001 9.42999 11.5001 7.49999C11.5001 5.56999 9.93009 3.99999 8.00009 3.99999C6.07009 3.99999 4.50009 5.56999 4.50009 7.49999C4.50009 9.42999 6.07009 11 8.00009 11Z" fill="white"/>
</mask>
<g mask="url(#mask0_29_4634)">
<rect width="24" height="24" fill="#365314"/>
</g>
</svg>
