<svg width="24" height="24" viewBox="0 0 24 24" fill="none" xmlns="http://www.w3.org/2000/svg">
<path fill-rule="evenodd" clip-rule="evenodd" d="M12.9345 11.9776H21.0835C21.6255 11.9776 22.0495 12.4496 21.9955 12.9886C21.4515 18.4146 16.5795 22.5666 10.8815 21.9366C6.29645 21.4306 2.56945 17.7036 2.06245 13.1186C1.43445 7.42059 5.58445 2.54759 11.0115 2.00459C11.5515 1.95059 12.0225 2.37359 12.0225 2.91559V11.0666C12.0225 11.5696 12.4305 11.9776 12.9345 11.9776ZM21.1669 10.3331H14.4999C14.0399 10.3331 13.6669 9.96109 13.6669 9.50009V2.83309C13.6669 2.37309 14.0399 2.00009 14.4999 2.00009C18.6349 2.00009 21.9999 5.36409 21.9999 9.50009C21.9999 9.96109 21.6269 10.3331 21.1669 10.3331Z" fill="#365314"/>
<mask id="mask0_29_4667" style="mask-type:luminance" maskUnits="userSpaceOnUse" x="1" y="2" width="21" height="20">
<path fill-rule="evenodd" clip-rule="evenodd" d="M12.9345 11.9776H21.0835C21.6255 11.9776 22.0495 12.4496 21.9955 12.9886C21.4515 18.4146 16.5795 22.5666 10.8815 21.9366C6.29645 21.4306 2.56945 17.7036 2.06245 13.1186C1.43445 7.42059 5.58445 2.54759 11.0115 2.00459C11.5515 1.95059 12.0225 2.37359 12.0225 2.91559V11.0666C12.0225 11.5696 12.4305 11.9776 12.9345 11.9776ZM21.1669 10.3331H14.4999C14.0399 10.3331 13.6669 9.96109 13.6669 9.50009V2.83309C13.6669 2.37309 14.0399 2.00009 14.4999 2.00009C18.6349 2.00009 21.9999 5.36409 21.9999 9.50009C21.9999 9.96109 21.6269 10.3331 21.1669 10.3331Z" fill="white"/>
</mask>
<g mask="url(#mask0_29_4667)">
<rect width="24" height="24" fill="#365314"/>
</g>
</svg>
