<svg width="24" height="24" viewBox="0 0 24 24" fill="none" xmlns="http://www.w3.org/2000/svg">
<path fill-rule="evenodd" clip-rule="evenodd" d="M20.2734 8.6666C19.9074 6.1156 17.8844 4.0926 15.3335 3.7266V8.6666H20.2734ZM21.1665 10.3326H14.5005C14.0405 10.3326 13.6665 9.9606 13.6665 9.4996V2.8326C13.6665 2.3726 14.0405 1.9996 14.5005 1.9996C18.6355 1.9996 22.0004 5.3646 22.0004 9.4996C22.0004 9.9606 21.6264 10.3326 21.1665 10.3326ZM12.9344 11.9776H21.0834C21.6254 11.9776 22.0494 12.4496 21.9954 12.9886C21.4514 18.4146 16.5794 22.5666 10.8814 21.9366C6.29645 21.4306 2.56945 17.7036 2.06245 13.1186C1.43445 7.4206 5.58445 2.5476 11.0114 2.0046C11.5514 1.9506 12.0224 2.3736 12.0224 2.9156V11.0666C12.0224 11.5696 12.4304 11.9776 12.9344 11.9776Z" fill="#365314"/>
<mask id="mask0_29_4666" style="mask-type:luminance" maskUnits="userSpaceOnUse" x="1" y="1" width="22" height="21">
<path fill-rule="evenodd" clip-rule="evenodd" d="M20.2734 8.6666C19.9074 6.1156 17.8844 4.0926 15.3335 3.7266V8.6666H20.2734ZM21.1665 10.3326H14.5005C14.0405 10.3326 13.6665 9.9606 13.6665 9.4996V2.8326C13.6665 2.3726 14.0405 1.9996 14.5005 1.9996C18.6355 1.9996 22.0004 5.3646 22.0004 9.4996C22.0004 9.9606 21.6264 10.3326 21.1665 10.3326ZM12.9344 11.9776H21.0834C21.6254 11.9776 22.0494 12.4496 21.9954 12.9886C21.4514 18.4146 16.5794 22.5666 10.8814 21.9366C6.29645 21.4306 2.56945 17.7036 2.06245 13.1186C1.43445 7.4206 5.58445 2.5476 11.0114 2.0046C11.5514 1.9506 12.0224 2.3736 12.0224 2.9156V11.0666C12.0224 11.5696 12.4304 11.9776 12.9344 11.9776Z" fill="white"/>
</mask>
<g mask="url(#mask0_29_4666)">
<rect width="24" height="24" fill="#365314"/>
</g>
</svg>
