<svg width="24" height="24" viewBox="0 0 24 24" fill="none" xmlns="http://www.w3.org/2000/svg">
<path fill-rule="evenodd" clip-rule="evenodd" d="M3.50098 11.0002C3.50098 9.05921 4.43898 7.20021 6.14498 5.76621C6.56698 5.40921 6.62198 4.77821 6.26698 4.35621C5.90998 3.93421 5.27998 3.87921 4.85698 4.23421C2.69298 6.05621 1.50098 8.45921 1.50098 11.0002C1.50098 13.5412 2.69298 15.9442 4.85698 17.7662C5.04498 17.9232 5.27298 18.0002 5.49998 18.0002C5.78498 18.0002 6.06798 17.8792 6.26698 17.6442C6.62198 17.2222 6.56698 16.5912 6.14498 16.2342C4.43898 14.8002 3.50098 12.9412 3.50098 11.0002ZM12.0002 8.00021C10.3462 8.00021 9.00015 9.34621 9.00015 11.0002C9.00015 12.3142 9.85515 13.4222 11.0352 13.8262C11.0312 13.8472 11.0257 13.8675 11.0201 13.8877C11.0101 13.9241 11.0002 13.9603 11.0002 14.0002V20.0002C11.0002 20.5532 11.4472 21.0002 12.0002 21.0002C12.5532 21.0002 13.0002 20.5532 13.0002 20.0002V14.0002C13.0002 13.9603 12.9902 13.9241 12.9802 13.8877C12.9746 13.8675 12.9691 13.8472 12.9652 13.8262C14.1452 13.4222 15.0002 12.3142 15.0002 11.0002C15.0002 9.34621 13.6542 8.00021 12.0002 8.00021ZM15.2358 6.35661C15.5898 5.93461 16.2208 5.87861 16.6438 6.23561C18.1638 7.51361 18.9998 9.20661 18.9998 11.0006C18.9998 12.7946 18.1638 14.4866 16.6438 15.7646C16.4568 15.9236 16.2278 16.0006 16.0008 16.0006C15.7158 16.0006 15.4328 15.8796 15.2358 15.6436C14.8788 15.2216 14.9338 14.5906 15.3568 14.2356C16.4158 13.3426 16.9998 12.1936 16.9998 11.0006C16.9998 9.80661 16.4158 8.65761 15.3568 7.76461C14.9338 7.40961 14.8788 6.77861 15.2358 6.35661ZM8.76475 6.35671C8.41075 5.93371 7.78075 5.87771 7.35675 6.23571C5.83675 7.51371 4.99975 9.20671 4.99975 11.0007C4.99975 12.7937 5.83675 14.4867 7.35675 15.7647C7.54375 15.9227 7.77275 16.0007 7.99875 16.0007C8.28475 16.0007 8.56775 15.8787 8.76475 15.6437C9.12075 15.2217 9.06675 14.5907 8.64375 14.2357C7.58375 13.3427 6.99975 12.1937 6.99975 11.0007C6.99975 9.80671 7.58375 8.65771 8.64375 7.76471C9.06675 7.40971 9.12075 6.77871 8.76475 6.35671ZM17.7348 4.35661C18.0908 3.93461 18.7198 3.88061 19.1438 4.23461C21.3078 6.05561 22.4998 8.45961 22.4998 11.0006C22.4998 13.5416 21.3078 15.9446 19.1438 17.7656C18.9568 17.9226 18.7278 18.0006 18.5008 18.0006C18.2158 18.0006 17.9328 17.8796 17.7348 17.6436C17.3788 17.2216 17.4338 16.5906 17.8568 16.2346C19.5618 14.7996 20.4998 12.9416 20.4998 11.0006C20.4998 9.05861 19.5618 7.20061 17.8568 5.76561C17.4338 5.40961 17.3788 4.77861 17.7348 4.35661Z" fill="#365314"/>
<mask id="mask0_29_4647" style="mask-type:luminance" maskUnits="userSpaceOnUse" x="1" y="4" width="22" height="18">
<path fill-rule="evenodd" clip-rule="evenodd" d="M3.50098 11.0002C3.50098 9.05921 4.43898 7.20021 6.14498 5.76621C6.56698 5.40921 6.62198 4.77821 6.26698 4.35621C5.90998 3.93421 5.27998 3.87921 4.85698 4.23421C2.69298 6.05621 1.50098 8.45921 1.50098 11.0002C1.50098 13.5412 2.69298 15.9442 4.85698 17.7662C5.04498 17.9232 5.27298 18.0002 5.49998 18.0002C5.78498 18.0002 6.06798 17.8792 6.26698 17.6442C6.62198 17.2222 6.56698 16.5912 6.14498 16.2342C4.43898 14.8002 3.50098 12.9412 3.50098 11.0002ZM12.0002 8.00021C10.3462 8.00021 9.00015 9.34621 9.00015 11.0002C9.00015 12.3142 9.85515 13.4222 11.0352 13.8262C11.0312 13.8472 11.0257 13.8675 11.0201 13.8877C11.0101 13.9241 11.0002 13.9603 11.0002 14.0002V20.0002C11.0002 20.5532 11.4472 21.0002 12.0002 21.0002C12.5532 21.0002 13.0002 20.5532 13.0002 20.0002V14.0002C13.0002 13.9603 12.9902 13.9241 12.9802 13.8877C12.9746 13.8675 12.9691 13.8472 12.9652 13.8262C14.1452 13.4222 15.0002 12.3142 15.0002 11.0002C15.0002 9.34621 13.6542 8.00021 12.0002 8.00021ZM15.2358 6.35661C15.5898 5.93461 16.2208 5.87861 16.6438 6.23561C18.1638 7.51361 18.9998 9.20661 18.9998 11.0006C18.9998 12.7946 18.1638 14.4866 16.6438 15.7646C16.4568 15.9236 16.2278 16.0006 16.0008 16.0006C15.7158 16.0006 15.4328 15.8796 15.2358 15.6436C14.8788 15.2216 14.9338 14.5906 15.3568 14.2356C16.4158 13.3426 16.9998 12.1936 16.9998 11.0006C16.9998 9.80661 16.4158 8.65761 15.3568 7.76461C14.9338 7.40961 14.8788 6.77861 15.2358 6.35661ZM8.76475 6.35671C8.41075 5.93371 7.78075 5.87771 7.35675 6.23571C5.83675 7.51371 4.99975 9.20671 4.99975 11.0007C4.99975 12.7937 5.83675 14.4867 7.35675 15.7647C7.54375 15.9227 7.77275 16.0007 7.99875 16.0007C8.28475 16.0007 8.56775 15.8787 8.76475 15.6437C9.12075 15.2217 9.06675 14.5907 8.64375 14.2357C7.58375 13.3427 6.99975 12.1937 6.99975 11.0007C6.99975 9.80671 7.58375 8.65771 8.64375 7.76471C9.06675 7.40971 9.12075 6.77871 8.76475 6.35671ZM17.7348 4.35661C18.0908 3.93461 18.7198 3.88061 19.1438 4.23461C21.3078 6.05561 22.4998 8.45961 22.4998 11.0006C22.4998 13.5416 21.3078 15.9446 19.1438 17.7656C18.9568 17.9226 18.7278 18.0006 18.5008 18.0006C18.2158 18.0006 17.9328 17.8796 17.7348 17.6436C17.3788 17.2216 17.4338 16.5906 17.8568 16.2346C19.5618 14.7996 20.4998 12.9416 20.4998 11.0006C20.4998 9.05861 19.5618 7.20061 17.8568 5.76561C17.4338 5.40961 17.3788 4.77861 17.7348 4.35661Z" fill="white"/>
</mask>
<g mask="url(#mask0_29_4647)">
<rect width="24" height="24" fill="#365314"/>
</g>
</svg>
