<svg width="24" height="24" viewBox="0 0 24 24" fill="none" xmlns="http://www.w3.org/2000/svg">
<path fill-rule="evenodd" clip-rule="evenodd" d="M20.303 13.4258C19.777 13.2588 19.215 13.5498 19.047 14.0758C18.11 17.0218 15.352 18.9998 12.184 18.9998C8.222 18.9998 5 15.8598 5 11.9998C5 8.14079 8.222 4.99979 12.184 4.99979C13.912 4.99979 15.542 5.60179 16.829 6.66979L14.663 6.31279C14.113 6.21279 13.603 6.59179 13.513 7.13579C13.423 7.68079 13.792 8.19579 14.337 8.28479L18.583 8.98679C18.638 8.99579 18.694 8.99979 18.747 8.99979C18.866 8.99979 18.982 8.97879 19.09 8.93879C19.127 8.92479 19.157 8.89879 19.193 8.87979C19.259 8.84579 19.328 8.81579 19.385 8.76779C19.421 8.73879 19.444 8.69679 19.475 8.66279C19.522 8.61379 19.572 8.56679 19.607 8.50679C19.632 8.46379 19.642 8.41279 19.661 8.36479C19.685 8.30579 19.717 8.25079 19.729 8.18579L20.483 4.18579C20.585 3.64279 20.228 3.11879 19.685 3.01779C19.144 2.91979 18.619 3.27279 18.517 3.81479L18.245 5.25579C16.581 3.81479 14.448 2.99979 12.184 2.99979C7.12 2.99979 3 7.03679 3 11.9998C3 16.9628 7.12 20.9998 12.184 20.9998C16.226 20.9998 19.75 18.4608 20.953 14.6818C21.12 14.1558 20.829 13.5938 20.303 13.4258Z" fill="#365314"/>
<mask id="mask0_29_4650" style="mask-type:luminance" maskUnits="userSpaceOnUse" x="3" y="2" width="18" height="19">
<path fill-rule="evenodd" clip-rule="evenodd" d="M20.303 13.4258C19.777 13.2588 19.215 13.5498 19.047 14.0758C18.11 17.0218 15.352 18.9998 12.184 18.9998C8.222 18.9998 5 15.8598 5 11.9998C5 8.14079 8.222 4.99979 12.184 4.99979C13.912 4.99979 15.542 5.60179 16.829 6.66979L14.663 6.31279C14.113 6.21279 13.603 6.59179 13.513 7.13579C13.423 7.68079 13.792 8.19579 14.337 8.28479L18.583 8.98679C18.638 8.99579 18.694 8.99979 18.747 8.99979C18.866 8.99979 18.982 8.97879 19.09 8.93879C19.127 8.92479 19.157 8.89879 19.193 8.87979C19.259 8.84579 19.328 8.81579 19.385 8.76779C19.421 8.73879 19.444 8.69679 19.475 8.66279C19.522 8.61379 19.572 8.56679 19.607 8.50679C19.632 8.46379 19.642 8.41279 19.661 8.36479C19.685 8.30579 19.717 8.25079 19.729 8.18579L20.483 4.18579C20.585 3.64279 20.228 3.11879 19.685 3.01779C19.144 2.91979 18.619 3.27279 18.517 3.81479L18.245 5.25579C16.581 3.81479 14.448 2.99979 12.184 2.99979C7.12 2.99979 3 7.03679 3 11.9998C3 16.9628 7.12 20.9998 12.184 20.9998C16.226 20.9998 19.75 18.4608 20.953 14.6818C21.12 14.1558 20.829 13.5938 20.303 13.4258Z" fill="white"/>
</mask>
<g mask="url(#mask0_29_4650)">
<rect width="24" height="24" fill="#365314"/>
</g>
</svg>
