<svg width="24" height="24" viewBox="0 0 24 24" fill="none" xmlns="http://www.w3.org/2000/svg">
<path fill-rule="evenodd" clip-rule="evenodd" d="M12.9999 7.14218C12.6789 7.05918 12.3469 7.00018 11.9999 7.00018C11.6529 7.00018 11.3209 7.05918 10.9999 7.14218V3.00018C10.9999 2.44718 11.4479 2.00018 11.9999 2.00018C12.5519 2.00018 12.9999 2.44718 12.9999 3.00018V7.14218ZM5.50024 18.0002C5.27224 18.0002 5.04424 17.9232 4.85624 17.7652C2.69224 15.9432 1.50024 13.5412 1.50024 11.0002C1.50024 8.45918 2.69224 6.05718 4.85624 4.23518C5.27824 3.87818 5.90924 3.93318 6.26624 4.35618C6.62124 4.77818 6.56724 5.40918 6.14524 5.76518C4.43924 7.20018 3.50024 9.06018 3.50024 11.0002C3.50024 12.9402 4.43924 14.8002 6.14524 16.2352C6.56724 16.5912 6.62124 17.2222 6.26624 17.6442C6.06824 17.8792 5.78524 18.0002 5.50024 18.0002ZM11.9999 12.0002C11.4489 12.0002 10.9999 11.5522 10.9999 11.0002C10.9999 10.4482 11.4489 10.0002 11.9999 10.0002C12.5509 10.0002 12.9999 10.4482 12.9999 11.0002C12.9999 11.5522 12.5509 12.0002 11.9999 12.0002ZM11.9999 15.0002C11.6529 15.0002 11.3209 14.9412 10.9999 14.8582V20.0002C10.9999 20.5532 11.4479 21.0002 11.9999 21.0002C12.5519 21.0002 12.9999 20.5532 12.9999 20.0002V14.8582C12.6789 14.9412 12.3469 15.0002 11.9999 15.0002ZM15.2344 15.6452C15.4334 15.8792 15.7154 16.0002 16.0004 16.0002C16.2284 16.0002 16.4564 15.9232 16.6444 15.7652C18.1634 14.4852 19.0004 12.7932 19.0004 11.0002C19.0004 9.20718 18.1634 7.51518 16.6444 6.23518C16.2224 5.87918 15.5904 5.93418 15.2344 6.35518C14.8794 6.77818 14.9334 7.40918 15.3554 7.76518C16.4164 8.65718 17.0004 9.80718 17.0004 11.0002C17.0004 12.1932 16.4164 13.3432 15.3554 14.2352C14.9334 14.5912 14.8794 15.2222 15.2344 15.6452ZM7.99942 16.0002C7.77142 16.0002 7.54342 15.9232 7.35542 15.7652C5.83642 14.4852 4.99942 12.7932 4.99942 11.0002C4.99942 9.20718 5.83642 7.51518 7.35542 6.23518C7.77742 5.87918 8.40842 5.93318 8.76542 6.35518C9.12042 6.77818 9.06642 7.40918 8.64442 7.76518C7.58342 8.65718 6.99942 9.80718 6.99942 11.0002C6.99942 12.1932 7.58342 13.3432 8.64442 14.2352C9.06642 14.5912 9.12042 15.2222 8.76542 15.6452C8.56742 15.8792 8.28442 16.0002 7.99942 16.0002ZM17.7344 17.6442C17.9324 17.8792 18.2154 18.0002 18.5004 18.0002C18.7284 18.0002 18.9564 17.9232 19.1444 17.7652C21.3084 15.9432 22.5004 13.5412 22.5004 11.0002C22.5004 8.45918 21.3084 6.05718 19.1444 4.23518C18.7214 3.87918 18.0904 3.93318 17.7344 4.35618C17.3794 4.77818 17.4334 5.40918 17.8554 5.76518C19.5614 7.20018 20.5004 9.06018 20.5004 11.0002C20.5004 12.9402 19.5614 14.8002 17.8554 16.2352C17.4334 16.5912 17.3794 17.2222 17.7344 17.6442Z" fill="#365314"/>
<mask id="mask0_29_4712" style="mask-type:luminance" maskUnits="userSpaceOnUse" x="1" y="2" width="22" height="20">
<path fill-rule="evenodd" clip-rule="evenodd" d="M12.9999 7.14218C12.6789 7.05918 12.3469 7.00018 11.9999 7.00018C11.6529 7.00018 11.3209 7.05918 10.9999 7.14218V3.00018C10.9999 2.44718 11.4479 2.00018 11.9999 2.00018C12.5519 2.00018 12.9999 2.44718 12.9999 3.00018V7.14218ZM5.50024 18.0002C5.27224 18.0002 5.04424 17.9232 4.85624 17.7652C2.69224 15.9432 1.50024 13.5412 1.50024 11.0002C1.50024 8.45918 2.69224 6.05718 4.85624 4.23518C5.27824 3.87818 5.90924 3.93318 6.26624 4.35618C6.62124 4.77818 6.56724 5.40918 6.14524 5.76518C4.43924 7.20018 3.50024 9.06018 3.50024 11.0002C3.50024 12.9402 4.43924 14.8002 6.14524 16.2352C6.56724 16.5912 6.62124 17.2222 6.26624 17.6442C6.06824 17.8792 5.78524 18.0002 5.50024 18.0002ZM11.9999 12.0002C11.4489 12.0002 10.9999 11.5522 10.9999 11.0002C10.9999 10.4482 11.4489 10.0002 11.9999 10.0002C12.5509 10.0002 12.9999 10.4482 12.9999 11.0002C12.9999 11.5522 12.5509 12.0002 11.9999 12.0002ZM11.9999 15.0002C11.6529 15.0002 11.3209 14.9412 10.9999 14.8582V20.0002C10.9999 20.5532 11.4479 21.0002 11.9999 21.0002C12.5519 21.0002 12.9999 20.5532 12.9999 20.0002V14.8582C12.6789 14.9412 12.3469 15.0002 11.9999 15.0002ZM15.2344 15.6452C15.4334 15.8792 15.7154 16.0002 16.0004 16.0002C16.2284 16.0002 16.4564 15.9232 16.6444 15.7652C18.1634 14.4852 19.0004 12.7932 19.0004 11.0002C19.0004 9.20718 18.1634 7.51518 16.6444 6.23518C16.2224 5.87918 15.5904 5.93418 15.2344 6.35518C14.8794 6.77818 14.9334 7.40918 15.3554 7.76518C16.4164 8.65718 17.0004 9.80718 17.0004 11.0002C17.0004 12.1932 16.4164 13.3432 15.3554 14.2352C14.9334 14.5912 14.8794 15.2222 15.2344 15.6452ZM7.99942 16.0002C7.77142 16.0002 7.54342 15.9232 7.35542 15.7652C5.83642 14.4852 4.99942 12.7932 4.99942 11.0002C4.99942 9.20718 5.83642 7.51518 7.35542 6.23518C7.77742 5.87918 8.40842 5.93318 8.76542 6.35518C9.12042 6.77818 9.06642 7.40918 8.64442 7.76518C7.58342 8.65718 6.99942 9.80718 6.99942 11.0002C6.99942 12.1932 7.58342 13.3432 8.64442 14.2352C9.06642 14.5912 9.12042 15.2222 8.76542 15.6452C8.56742 15.8792 8.28442 16.0002 7.99942 16.0002ZM17.7344 17.6442C17.9324 17.8792 18.2154 18.0002 18.5004 18.0002C18.7284 18.0002 18.9564 17.9232 19.1444 17.7652C21.3084 15.9432 22.5004 13.5412 22.5004 11.0002C22.5004 8.45918 21.3084 6.05718 19.1444 4.23518C18.7214 3.87918 18.0904 3.93318 17.7344 4.35618C17.3794 4.77818 17.4334 5.40918 17.8554 5.76518C19.5614 7.20018 20.5004 9.06018 20.5004 11.0002C20.5004 12.9402 19.5614 14.8002 17.8554 16.2352C17.4334 16.5912 17.3794 17.2222 17.7344 17.6442Z" fill="white"/>
</mask>
<g mask="url(#mask0_29_4712)">
<rect width="24" height="24" fill="#365314"/>
</g>
</svg>
