<svg width="24" height="24" viewBox="0 0 24 24" fill="none" xmlns="http://www.w3.org/2000/svg">
<path fill-rule="evenodd" clip-rule="evenodd" d="M17.5616 21.0007C17.4036 21.0007 17.2446 20.9637 17.0986 20.8877L11.9996 18.2237L6.90162 20.8877C6.56362 21.0627 6.15562 21.0327 5.84962 20.8087C5.54162 20.5847 5.38862 20.2057 5.45362 19.8307L6.42462 14.2027L2.30462 10.2177C2.03062 9.9527 1.93162 9.5547 2.04862 9.1907C2.16562 8.8287 2.47862 8.5637 2.85662 8.5097L8.55662 7.6817L11.1046 2.5557C11.4426 1.8757 12.5576 1.8757 12.8956 2.5557L15.4436 7.6817L21.1436 8.5097C21.5216 8.5637 21.8346 8.8287 21.9516 9.1907C22.0686 9.5547 21.9696 9.9527 21.6956 10.2177L17.5756 14.2027L18.5466 19.8307C18.6116 20.2057 18.4576 20.5847 18.1506 20.8087C17.9766 20.9367 17.7696 21.0007 17.5616 21.0007Z" fill="#365314"/>
<mask id="mask0_29_4623" style="mask-type:luminance" maskUnits="userSpaceOnUse" x="2" y="2" width="20" height="20">
<path fill-rule="evenodd" clip-rule="evenodd" d="M17.5616 21.0007C17.4036 21.0007 17.2446 20.9637 17.0986 20.8877L11.9996 18.2237L6.90162 20.8877C6.56362 21.0627 6.15562 21.0327 5.84962 20.8087C5.54162 20.5847 5.38862 20.2057 5.45362 19.8307L6.42462 14.2027L2.30462 10.2177C2.03062 9.9527 1.93162 9.5547 2.04862 9.1907C2.16562 8.8287 2.47862 8.5637 2.85662 8.5097L8.55662 7.6817L11.1046 2.5557C11.4426 1.8757 12.5576 1.8757 12.8956 2.5557L15.4436 7.6817L21.1436 8.5097C21.5216 8.5637 21.8346 8.8287 21.9516 9.1907C22.0686 9.5547 21.9696 9.9527 21.6956 10.2177L17.5756 14.2027L18.5466 19.8307C18.6116 20.2057 18.4576 20.5847 18.1506 20.8087C17.9766 20.9367 17.7696 21.0007 17.5616 21.0007Z" fill="white"/>
</mask>
<g mask="url(#mask0_29_4623)">
<rect width="24" height="24" fill="#365314"/>
</g>
</svg>
