<svg width="24" height="24" viewBox="0 0 24 24" fill="none" xmlns="http://www.w3.org/2000/svg">
<path fill-rule="evenodd" clip-rule="evenodd" d="M10 14H14V10H10V14ZM16 14.75C16 15.439 15.439 16 14.75 16H9.25C8.561 16 8 15.439 8 14.75V9.25C8 8.561 8.561 8 9.25 8H14.75C15.439 8 16 8.561 16 9.25V14.75ZM12 2C6.486 2 2 6.486 2 12C2 17.514 6.486 22 12 22C17.514 22 22 17.514 22 12C22 6.486 17.514 2 12 2Z" fill="#365314"/>
<mask id="mask0_29_4635" style="mask-type:luminance" maskUnits="userSpaceOnUse" x="2" y="2" width="20" height="20">
<path fill-rule="evenodd" clip-rule="evenodd" d="M10 14H14V10H10V14ZM16 14.75C16 15.439 15.439 16 14.75 16H9.25C8.561 16 8 15.439 8 14.75V9.25C8 8.561 8.561 8 9.25 8H14.75C15.439 8 16 8.561 16 9.25V14.75ZM12 2C6.486 2 2 6.486 2 12C2 17.514 6.486 22 12 22C17.514 22 22 17.514 22 12C22 6.486 17.514 2 12 2Z" fill="white"/>
</mask>
<g mask="url(#mask0_29_4635)">
<rect width="24" height="24" fill="#365314"/>
</g>
</svg>
