<svg width="24" height="24" viewBox="0 0 24 24" fill="none" xmlns="http://www.w3.org/2000/svg">
<path fill-rule="evenodd" clip-rule="evenodd" d="M21.6829 10.3261C21.6757 10.3419 21.6684 10.3578 21.6617 10.374C21.6548 10.3908 21.6494 10.4082 21.644 10.4257C21.6352 10.454 21.6265 10.4822 21.6117 10.507C21.5821 10.556 21.5434 10.5972 21.5047 10.6385C21.4936 10.6502 21.4825 10.662 21.4717 10.674C21.4596 10.6865 21.4489 10.7003 21.4382 10.714C21.4232 10.7331 21.4083 10.7523 21.3897 10.768C21.3336 10.8137 21.2689 10.8455 21.2044 10.8772C21.1998 10.8795 21.1952 10.8817 21.1907 10.884C21.177 10.8906 21.1641 10.8989 21.1511 10.9073C21.1327 10.9191 21.1142 10.931 21.0937 10.938C20.9857 10.978 20.8707 11 20.7517 11C20.6977 11 20.6417 10.996 20.5867 10.986L16.3367 10.281C15.7917 10.191 15.4237 9.676 15.5137 9.131C15.6037 8.587 16.1177 8.214 16.6637 8.309L18.3077 8.581C17.0627 6.395 14.6857 5 12.0697 5C9.11065 5 6.50365 6.718 5.42665 9.375C5.26965 9.765 4.89465 10 4.49965 10C4.37465 10 4.24765 9.977 4.12465 9.927C3.61265 9.72 3.36565 9.137 3.57365 8.625C4.95765 5.208 8.29265 3 12.0697 3C15.4817 3 18.5827 4.87 20.1477 7.788L20.5167 5.815C20.6187 5.273 21.1427 4.914 21.6837 5.018C22.2267 5.119 22.5847 5.642 22.4827 6.185L21.7337 10.185C21.724 10.236 21.7035 10.281 21.6829 10.3261ZM18.5744 14.6252C18.7814 14.1122 19.3654 13.8662 19.8764 14.0732C20.3884 14.2802 20.6354 14.8632 20.4274 15.3752C19.0434 18.7922 15.7084 21.0002 11.9314 21.0002C8.51937 21.0002 5.41837 19.1302 3.85337 16.2122L3.48337 18.1842C3.39437 18.6652 2.97437 19.0002 2.50137 19.0002C2.44037 19.0002 2.37837 18.9942 2.31637 18.9822C1.77337 18.8812 1.41637 18.3582 1.51837 17.8152L2.26737 13.8152C2.27497 13.7759 2.2918 13.7411 2.30871 13.706C2.3185 13.6858 2.32831 13.6655 2.33637 13.6442C2.34428 13.6243 2.35118 13.6037 2.3581 13.583C2.37306 13.5383 2.38807 13.4935 2.41337 13.4552C2.42813 13.4324 2.44743 13.4142 2.46684 13.3959C2.479 13.3844 2.4912 13.3729 2.50237 13.3602C2.51118 13.35 2.51989 13.3397 2.52859 13.3295C2.57618 13.2734 2.62334 13.2178 2.68337 13.1772C2.68927 13.1729 2.69631 13.1703 2.70327 13.1678C2.7093 13.1656 2.71527 13.1634 2.72037 13.1602C2.81737 13.0972 2.92137 13.0482 3.03637 13.0232C3.04338 13.0216 3.05067 13.022 3.05794 13.0224C3.06417 13.0228 3.07037 13.0231 3.07637 13.0222C3.18637 13.0042 3.29737 12.9932 3.41437 13.0132L7.66437 13.7192C8.20937 13.8082 8.57737 14.3242 8.48737 14.8692C8.40637 15.3582 7.98237 15.7052 7.50137 15.7052C7.44737 15.7052 7.39237 15.7012 7.33737 15.6912L5.69337 15.4192C6.93837 17.6052 9.31537 19.0002 11.9314 19.0002C14.8904 19.0002 17.4974 17.2822 18.5744 14.6252Z" fill="#365314"/>
<mask id="mask0_29_4651" style="mask-type:luminance" maskUnits="userSpaceOnUse" x="1" y="3" width="22" height="19">
<path fill-rule="evenodd" clip-rule="evenodd" d="M21.6829 10.3261C21.6757 10.3419 21.6684 10.3578 21.6617 10.374C21.6548 10.3908 21.6494 10.4082 21.644 10.4257C21.6352 10.454 21.6265 10.4822 21.6117 10.507C21.5821 10.556 21.5434 10.5972 21.5047 10.6385C21.4936 10.6502 21.4825 10.662 21.4717 10.674C21.4596 10.6865 21.4489 10.7003 21.4382 10.714C21.4232 10.7331 21.4083 10.7523 21.3897 10.768C21.3336 10.8137 21.2689 10.8455 21.2044 10.8772C21.1998 10.8795 21.1952 10.8817 21.1907 10.884C21.177 10.8906 21.1641 10.8989 21.1511 10.9073C21.1327 10.9191 21.1142 10.931 21.0937 10.938C20.9857 10.978 20.8707 11 20.7517 11C20.6977 11 20.6417 10.996 20.5867 10.986L16.3367 10.281C15.7917 10.191 15.4237 9.676 15.5137 9.131C15.6037 8.587 16.1177 8.214 16.6637 8.309L18.3077 8.581C17.0627 6.395 14.6857 5 12.0697 5C9.11065 5 6.50365 6.718 5.42665 9.375C5.26965 9.765 4.89465 10 4.49965 10C4.37465 10 4.24765 9.977 4.12465 9.927C3.61265 9.72 3.36565 9.137 3.57365 8.625C4.95765 5.208 8.29265 3 12.0697 3C15.4817 3 18.5827 4.87 20.1477 7.788L20.5167 5.815C20.6187 5.273 21.1427 4.914 21.6837 5.018C22.2267 5.119 22.5847 5.642 22.4827 6.185L21.7337 10.185C21.724 10.236 21.7035 10.281 21.6829 10.3261ZM18.5744 14.6252C18.7814 14.1122 19.3654 13.8662 19.8764 14.0732C20.3884 14.2802 20.6354 14.8632 20.4274 15.3752C19.0434 18.7922 15.7084 21.0002 11.9314 21.0002C8.51937 21.0002 5.41837 19.1302 3.85337 16.2122L3.48337 18.1842C3.39437 18.6652 2.97437 19.0002 2.50137 19.0002C2.44037 19.0002 2.37837 18.9942 2.31637 18.9822C1.77337 18.8812 1.41637 18.3582 1.51837 17.8152L2.26737 13.8152C2.27497 13.7759 2.2918 13.7411 2.30871 13.706C2.3185 13.6858 2.32831 13.6655 2.33637 13.6442C2.34428 13.6243 2.35118 13.6037 2.3581 13.583C2.37306 13.5383 2.38807 13.4935 2.41337 13.4552C2.42813 13.4324 2.44743 13.4142 2.46684 13.3959C2.479 13.3844 2.4912 13.3729 2.50237 13.3602C2.51118 13.35 2.51989 13.3397 2.52859 13.3295C2.57618 13.2734 2.62334 13.2178 2.68337 13.1772C2.68927 13.1729 2.69631 13.1703 2.70327 13.1678C2.7093 13.1656 2.71527 13.1634 2.72037 13.1602C2.81737 13.0972 2.92137 13.0482 3.03637 13.0232C3.04338 13.0216 3.05067 13.022 3.05794 13.0224C3.06417 13.0228 3.07037 13.0231 3.07637 13.0222C3.18637 13.0042 3.29737 12.9932 3.41437 13.0132L7.66437 13.7192C8.20937 13.8082 8.57737 14.3242 8.48737 14.8692C8.40637 15.3582 7.98237 15.7052 7.50137 15.7052C7.44737 15.7052 7.39237 15.7012 7.33737 15.6912L5.69337 15.4192C6.93837 17.6052 9.31537 19.0002 11.9314 19.0002C14.8904 19.0002 17.4974 17.2822 18.5744 14.6252Z" fill="white"/>
</mask>
<g mask="url(#mask0_29_4651)">
<rect width="24" height="24" fill="#365314"/>
</g>
</svg>
