<svg width="24" height="24" viewBox="0 0 24 24" fill="none" xmlns="http://www.w3.org/2000/svg">
<path fill-rule="evenodd" clip-rule="evenodd" d="M15.0005 13.5859L17.0005 15.5859L20.7075 19.2929C21.0985 19.6839 21.0985 20.3159 20.7075 20.7069C20.5125 20.9019 20.2565 20.9999 20.0005 20.9999C19.7445 20.9999 19.4885 20.9019 19.2935 20.7069L16.3865 17.7999L14.9315 16.3449L5.58646 6.99991L3.82646 5.23991L3.29346 4.70691C2.90246 4.31591 2.90246 3.68391 3.29346 3.29291C3.68446 2.90191 4.31646 2.90191 4.70746 3.29291L6.41446 4.99991L8.41446 6.99991L15.0005 13.5859ZM21.0116 7.14541C20.3856 6.87341 19.6596 6.99141 19.1606 7.45141L16.9996 9.45141V7.99941C16.9996 6.34541 15.6546 4.99941 13.9996 4.99941H7.82761L9.12061 6.29241L15.7066 12.8784L17.7066 14.8784L19.7176 16.8894C19.9096 16.9614 20.1136 16.9994 20.3196 16.9994C20.5526 16.9994 20.7876 16.9524 21.0116 16.8544C21.6206 16.5884 21.9996 16.0194 21.9996 15.3704V8.62941C21.9996 7.98041 21.6206 7.41141 21.0116 7.14541ZM14.2235 17.0517L4.87851 7.70671L3.11951 5.94771L2.97351 5.80171C2.37851 6.35071 1.99951 7.12871 1.99951 7.99971V15.9997C1.99951 17.6547 3.34551 18.9997 4.99951 18.9997H13.9995C14.6165 18.9997 15.1885 18.8127 15.6645 18.4927L14.2235 17.0517Z" fill="#365314"/>
<mask id="mask0_29_4663" style="mask-type:luminance" maskUnits="userSpaceOnUse" x="1" y="2" width="21" height="19">
<path fill-rule="evenodd" clip-rule="evenodd" d="M15.0005 13.5859L17.0005 15.5859L20.7075 19.2929C21.0985 19.6839 21.0985 20.3159 20.7075 20.7069C20.5125 20.9019 20.2565 20.9999 20.0005 20.9999C19.7445 20.9999 19.4885 20.9019 19.2935 20.7069L16.3865 17.7999L14.9315 16.3449L5.58646 6.99991L3.82646 5.23991L3.29346 4.70691C2.90246 4.31591 2.90246 3.68391 3.29346 3.29291C3.68446 2.90191 4.31646 2.90191 4.70746 3.29291L6.41446 4.99991L8.41446 6.99991L15.0005 13.5859ZM21.0116 7.14541C20.3856 6.87341 19.6596 6.99141 19.1606 7.45141L16.9996 9.45141V7.99941C16.9996 6.34541 15.6546 4.99941 13.9996 4.99941H7.82761L9.12061 6.29241L15.7066 12.8784L17.7066 14.8784L19.7176 16.8894C19.9096 16.9614 20.1136 16.9994 20.3196 16.9994C20.5526 16.9994 20.7876 16.9524 21.0116 16.8544C21.6206 16.5884 21.9996 16.0194 21.9996 15.3704V8.62941C21.9996 7.98041 21.6206 7.41141 21.0116 7.14541ZM14.2235 17.0517L4.87851 7.70671L3.11951 5.94771L2.97351 5.80171C2.37851 6.35071 1.99951 7.12871 1.99951 7.99971V15.9997C1.99951 17.6547 3.34551 18.9997 4.99951 18.9997H13.9995C14.6165 18.9997 15.1885 18.8127 15.6645 18.4927L14.2235 17.0517Z" fill="white"/>
</mask>
<g mask="url(#mask0_29_4663)">
<rect width="24" height="24" fill="#365314"/>
</g>
</svg>
