<svg width="24" height="24" viewBox="0 0 24 24" fill="none" xmlns="http://www.w3.org/2000/svg">
<path fill-rule="evenodd" clip-rule="evenodd" d="M15.0001 3.99991V12.1719L9.02608 6.19791L13.4351 3.17491C13.7401 2.96491 14.1371 2.94191 14.4661 3.11491C14.7941 3.28791 15.0001 3.62891 15.0001 3.99991ZM21.0001 12.0001C21.0001 13.5991 20.3701 15.1211 19.2221 16.3941L20.6371 17.8091C22.1631 16.1551 23.0001 14.1371 23.0001 12.0001C23.0001 9.43111 21.8061 7.02511 19.6381 5.22911C19.2121 4.87811 18.5821 4.93711 18.2301 5.36211C17.8771 5.78711 17.9371 6.41811 18.3621 6.77111C20.0631 8.18011 21.0001 10.0361 21.0001 12.0001ZM16.9107 14.0821L18.3487 15.5211C19.9067 13.4831 19.8887 10.3741 18.2797 8.37311C17.9327 7.94311 17.3037 7.87611 16.8727 8.22111C16.4427 8.56711 16.3747 9.19611 16.7207 9.62711C17.6837 10.8231 17.7387 12.7781 16.9107 14.0821ZM4.74373 7.57141H2.00073C1.44873 7.57141 1.00073 8.01841 1.00073 8.57141V15.4284C1.00073 15.9814 1.44873 16.4284 2.00073 16.4284H7.02373L13.4347 20.8254C13.6047 20.9414 13.8027 21.0004 14.0007 21.0004C14.1607 21.0004 14.3207 20.9624 14.4667 20.8844C14.7947 20.7124 15.0007 20.3714 15.0007 20.0004V17.8284L4.74373 7.57141ZM3.29308 3.29301C3.68408 2.90201 4.31608 2.90201 4.70708 3.29301L20.7071 19.293C21.0981 19.684 21.0981 20.316 20.7071 20.707C20.5121 20.902 20.2561 21 20.0001 21C19.7441 21 19.4881 20.902 19.2931 20.707L3.29308 4.70701C2.90208 4.31601 2.90208 3.68401 3.29308 3.29301Z" fill="#365314"/>
<mask id="mask0_29_4669" style="mask-type:luminance" maskUnits="userSpaceOnUse" x="1" y="2" width="22" height="20">
<path fill-rule="evenodd" clip-rule="evenodd" d="M15.0001 3.99991V12.1719L9.02608 6.19791L13.4351 3.17491C13.7401 2.96491 14.1371 2.94191 14.4661 3.11491C14.7941 3.28791 15.0001 3.62891 15.0001 3.99991ZM21.0001 12.0001C21.0001 13.5991 20.3701 15.1211 19.2221 16.3941L20.6371 17.8091C22.1631 16.1551 23.0001 14.1371 23.0001 12.0001C23.0001 9.43111 21.8061 7.02511 19.6381 5.22911C19.2121 4.87811 18.5821 4.93711 18.2301 5.36211C17.8771 5.78711 17.9371 6.41811 18.3621 6.77111C20.0631 8.18011 21.0001 10.0361 21.0001 12.0001ZM16.9107 14.0821L18.3487 15.5211C19.9067 13.4831 19.8887 10.3741 18.2797 8.37311C17.9327 7.94311 17.3037 7.87611 16.8727 8.22111C16.4427 8.56711 16.3747 9.19611 16.7207 9.62711C17.6837 10.8231 17.7387 12.7781 16.9107 14.0821ZM4.74373 7.57141H2.00073C1.44873 7.57141 1.00073 8.01841 1.00073 8.57141V15.4284C1.00073 15.9814 1.44873 16.4284 2.00073 16.4284H7.02373L13.4347 20.8254C13.6047 20.9414 13.8027 21.0004 14.0007 21.0004C14.1607 21.0004 14.3207 20.9624 14.4667 20.8844C14.7947 20.7124 15.0007 20.3714 15.0007 20.0004V17.8284L4.74373 7.57141ZM3.29308 3.29301C3.68408 2.90201 4.31608 2.90201 4.70708 3.29301L20.7071 19.293C21.0981 19.684 21.0981 20.316 20.7071 20.707C20.5121 20.902 20.2561 21 20.0001 21C19.7441 21 19.4881 20.902 19.2931 20.707L3.29308 4.70701C2.90208 4.31601 2.90208 3.68401 3.29308 3.29301Z" fill="white"/>
</mask>
<g mask="url(#mask0_29_4669)">
<rect width="24" height="24" fill="#365314"/>
</g>
</svg>
