<svg width="24" height="24" viewBox="0 0 24 24" fill="none" xmlns="http://www.w3.org/2000/svg">
<path fill-rule="evenodd" clip-rule="evenodd" d="M11 4.17188V5.99988C11 6.55288 11.448 6.99988 12 6.99988C12.552 6.99988 13 6.55288 13 5.99988V4.17188C13.923 4.49788 14.651 5.26688 14.907 6.27088C14.97 6.49188 15 6.73188 15 6.99988C15 8.65388 13.654 9.99988 12 9.99988C10.346 9.99988 9 8.65388 9 6.99988C9 6.73788 9.031 6.50488 9.091 6.28788C9.094 6.27588 9.095 6.26488 9.098 6.25288L9.102 6.23788C9.354 5.25588 10.08 4.49588 11 4.17188ZM18 4.99988H16.578C15.799 3.20088 14.017 1.99988 12 1.99988C9.977 1.99988 8.191 3.20888 7.42 4.99988H6C4.346 4.99988 3 6.34588 3 7.99988V18.9999C3 20.6539 4.346 21.9999 6 21.9999H18C19.654 21.9999 21 20.6539 21 18.9999V7.99988C21 6.34588 19.654 4.99988 18 4.99988Z" fill="#365314"/>
<mask id="mask0_29_4717" style="mask-type:luminance" maskUnits="userSpaceOnUse" x="3" y="1" width="18" height="21">
<path fill-rule="evenodd" clip-rule="evenodd" d="M11 4.17188V5.99988C11 6.55288 11.448 6.99988 12 6.99988C12.552 6.99988 13 6.55288 13 5.99988V4.17188C13.923 4.49788 14.651 5.26688 14.907 6.27088C14.97 6.49188 15 6.73188 15 6.99988C15 8.65388 13.654 9.99988 12 9.99988C10.346 9.99988 9 8.65388 9 6.99988C9 6.73788 9.031 6.50488 9.091 6.28788C9.094 6.27588 9.095 6.26488 9.098 6.25288L9.102 6.23788C9.354 5.25588 10.08 4.49588 11 4.17188ZM18 4.99988H16.578C15.799 3.20088 14.017 1.99988 12 1.99988C9.977 1.99988 8.191 3.20888 7.42 4.99988H6C4.346 4.99988 3 6.34588 3 7.99988V18.9999C3 20.6539 4.346 21.9999 6 21.9999H18C19.654 21.9999 21 20.6539 21 18.9999V7.99988C21 6.34588 19.654 4.99988 18 4.99988Z" fill="white"/>
</mask>
<g mask="url(#mask0_29_4717)">
<rect width="24" height="24" fill="#365314"/>
</g>
</svg>
