<svg width="236" height="180" viewBox="0 0 236 180" fill="none" xmlns="http://www.w3.org/2000/svg">
<g clip-path="url(#clip0_113_116)">
<path opacity="0.1" d="M55.9328 150.217C53.9479 150.018 51.8742 149.805 49.9943 150.325C48.1144 150.846 46.5568 152.365 47.1149 153.817C48.362 157.055 55.6806 154.8 59.0551 157.014C60.2601 157.804 60.7295 159.049 61.6706 160.02C63.1931 161.597 65.811 162.333 68.3377 162.737C83.5169 165.168 100.821 158.912 114.125 164.936C118.434 166.888 121.831 169.994 126.556 171.296C132.814 173.021 139.668 171.178 146.144 169.996C154.22 168.535 162.452 168.108 170.638 168.725C176.693 169.187 184.748 169.342 186.686 164.987C187.933 162.187 185.294 159.069 181.791 157.744C178.288 156.419 174.188 156.461 170.276 156.588C162.726 156.856 155.174 157.397 147.624 157.134C133.024 156.62 119.232 150.89 105.015 150.7C88.4583 150.501 72.5669 151.877 55.9328 150.217Z" fill="#84CC16"/>
<path opacity="0.1" d="M40.3532 76.4037C38.1353 78.6129 38 82 38 82C38 82 41.4355 81.8077 43.6446 79.5963C45.8536 77.3849 46 74 46 74C46 74 42.5622 74.1989 40.3532 76.4037Z" fill="#84CC16"/>
<path opacity="0.1" d="M49.2673 18.6233C50.2241 21.9385 53.734 24 53.734 24C53.734 24 55.6936 20.6896 54.7368 17.3743C53.7801 14.0591 50.2701 12 50.2701 12C50.2701 12 48.2997 15.3104 49.2673 18.6233Z" fill="#84CC16"/>
<path opacity="0.1" d="M186.355 26.4052C184.138 28.6139 184 32 184 32C184 32 187.438 31.8078 189.647 29.5969C191.856 27.3861 192 24 192 24C192 24 188.564 24.2075 186.355 26.4052Z" fill="#84CC16"/>
<path opacity="0.1" d="M116.024 59.7984C115.747 63.1125 117.997 66 117.997 66C117.997 66 120.7 63.5133 120.976 60.1969C121.253 56.8805 119.003 54 119.003 54C119.003 54 116.3 56.482 116.024 59.7984Z" fill="#84CC16"/>
<path opacity="0.1" d="M192.024 106.8C191.747 110.113 193.997 113 193.997 113C193.997 113 196.7 110.514 196.976 107.2C197.253 103.887 195.003 101 195.003 101C195.003 101 192.3 103.486 192.024 106.8Z" fill="#84CC16"/>
<path opacity="0.1" d="M137.118 22.5868C121.989 22.1298 107.579 17.8999 93.8195 13.2599C80.0598 8.61993 66.4311 3.49015 51.6639 1.03424C42.1659 -0.545238 31.3026 -0.767864 23.6514 3.64951C16.2853 7.89816 13.9055 15.2354 12.6268 22.0431C11.6637 27.1635 11.098 32.5534 13.7349 37.3481C15.5676 40.6781 18.817 43.4762 21.0659 46.6632C28.8901 57.7594 23.3592 71.4404 14.8827 82.2834C10.9086 87.3663 6.29168 92.2126 3.2223 97.6236C0.15291 103.035 -1.26607 109.231 1.41994 114.747C4.08023 120.217 10.4224 124.325 17.2929 127.214C31.2465 133.073 47.6828 134.762 63.7217 135.714C99.2149 137.823 134.895 136.909 170.482 135.995C183.652 135.658 196.879 135.315 209.834 133.548C217.03 132.569 224.457 131.013 229.681 127.254C236.311 122.483 237.954 114.405 233.51 108.422C226.058 98.3899 205.458 95.8964 200.243 85.1284C197.377 79.2018 200.32 72.6004 204.488 67.1027C213.427 55.3105 228.41 44.9643 229.197 31.4825C229.74 22.2259 222.537 12.9553 211.401 8.57541C199.729 3.98228 183.54 4.56111 174.933 12.1609C166.061 19.9762 150.478 22.9875 137.118 22.5868Z" fill="#84CC16"/>
<path d="M188.158 67.1254C187.834 67.2087 187.534 67.3681 187.283 67.5904C187.032 67.8128 186.837 68.0918 186.713 68.4046L186.478 68.3668L185.601 68.2249C185.601 68.2249 180.951 67.8395 180.083 67.8986C179.215 67.9577 178.671 67.097 178.671 67.097L175.215 64.1578L174.946 63.9214C175.321 63.7795 175.554 63.7062 175.554 63.7062C175.554 63.7062 166.278 52.1197 164.278 51.8951C162.278 51.6705 158.972 48.9654 158.939 48.9394L158.904 48.7549C158.831 48.3648 158.777 47.9699 158.737 47.5726L159.229 47.8753C159.229 47.7382 159.229 47.601 159.243 47.4639C159.316 46.0339 159.797 44.6552 160.627 43.4914C161.594 42.1435 163.024 41.0842 163.596 39.5307C163.824 38.8626 163.927 38.1579 163.899 37.4522C163.914 36.1809 163.58 34.9301 162.935 33.8368C162.606 33.2902 162.165 32.82 161.642 32.4572C161.119 32.0945 160.525 31.8474 159.899 31.7323C159.57 31.6803 159.234 31.6732 158.909 31.5975C156.977 31.1411 156.267 28.5377 154.389 27.8993C153.514 27.6013 152.54 27.7976 151.695 28.1665C150.85 28.5354 150.085 29.065 149.26 29.4741C148.434 29.8832 147.497 30.1835 146.747 30.7628C146.669 30.8219 146.587 30.8928 146.511 30.9661L146.363 31.1104C146.053 31.4264 145.784 31.7798 145.561 32.1626L145.525 32.2217C145.502 32.2619 145.481 32.3045 145.46 32.3471C145.438 32.3896 145.424 32.4133 145.41 32.4464C145.396 32.4795 145.372 32.522 145.356 32.5599L145.307 32.6734L145.264 32.7822C145.25 32.8223 145.234 32.8625 145.222 32.9051C145.21 32.9477 145.198 32.9737 145.189 33.0091L145.154 33.1345L145.133 33.2362C145.133 33.2787 145.116 33.3236 145.109 33.3662C145.102 33.4088 145.109 33.43 145.109 33.4608C145.109 33.4915 145.109 33.5506 145.109 33.5956C145.109 33.6405 145.109 33.6547 145.109 33.6831C145.109 33.7114 145.109 33.7776 145.109 33.8273C145.109 33.877 145.109 33.8746 145.109 33.8982C145.118 33.9678 145.132 34.0365 145.151 34.104C145.278 34.539 145.716 34.9836 146.05 35.3714C146.012 35.4068 145.975 35.4399 145.937 35.4778C145.143 36.247 144.511 37.1692 144.08 38.1894C143.649 39.2096 143.426 40.3068 143.427 41.4153C143.427 41.9078 143.472 42.3993 143.561 42.8837C143.133 42.559 142.673 42.2793 142.189 42.049C140.595 41.2812 138.853 40.8775 137.085 40.8667C134.203 40.8336 130.154 39.7459 130.154 39.7459C130.257 39.9444 130.336 40.1548 130.389 40.3725C130.213 40.2708 130.022 40.162 129.813 40.0485C128.124 39.1377 126.294 38.522 124.401 38.2278C124.401 38.2278 123.201 38.3957 123.041 35.8632C122.986 35.0719 122.844 34.2892 122.617 33.5294C121.929 31.2132 121.451 28.8388 121.191 26.4356L120.789 22.7185C120.789 22.7185 122.601 13.0237 121.511 8.89038C121.862 7.59459 121.664 6.40757 120.509 5.55395C115.951 2.18205 111.354 15.3055 111.354 15.3055L109.646 16.9725C109.207 16.6855 108.713 16.4961 108.196 16.4169C108.196 16.4169 107.276 17.3627 106.636 19.9448C106.297 21.3139 103.982 23.6005 101.888 25.4425C100.401 26.7501 98.9657 28.1097 97.5327 29.4741C96.4739 30.4861 94.1139 31.9333 88.9657 32.7514C88.1587 32.8791 87.4246 32.9997 86.754 33.1108C86.9253 32.4999 87.0124 31.8681 87.0128 31.2333C87.0048 29.6356 86.4563 28.0881 85.4575 26.8449C84.4587 25.6018 83.0689 24.737 81.5163 24.3926C81.5399 24.2271 81.5399 24.0591 81.5163 23.8937C81.4296 23.5376 81.2501 23.2112 80.9964 22.9478C79.9117 21.6 78.7352 20.2144 77.1211 19.5759C76.4555 19.3158 75.7425 19.2005 75.0293 19.2378H74.6717C74.5987 19.2378 74.5281 19.2378 74.4552 19.2378C73.6942 19.2801 72.9509 19.4851 72.2749 19.8391C71.5989 20.193 71.0058 20.6877 70.5352 21.2903C69.9564 22.0682 69.6082 22.9904 69.1093 23.8204C68.1823 25.3574 66.7564 26.542 65.2106 27.4784C64.2811 28.0435 63.3047 28.5306 62.427 29.1714C59.2435 31.4958 57.7753 35.7923 58.5753 39.6324C58.9282 41.3183 59.6741 42.9782 59.4741 44.6878C59.3165 46.0144 58.6059 47.2061 57.8812 48.3317C57.1565 49.4572 56.3894 50.6017 56.1024 51.9046C55.8153 53.2074 56.1165 54.7421 57.2035 55.5318C57.6035 55.8203 58.0882 56.0047 58.4294 56.3547C58.6564 56.6244 58.8463 56.9234 58.9941 57.2438C59.5713 58.2917 60.3542 59.2109 61.2954 59.9458C62.2365 60.6807 63.3163 61.2159 64.4694 61.519C64.8351 61.6128 65.2121 61.6542 65.5894 61.6419H65.6294H65.7023C66.5658 61.6963 67.4505 61.4646 67.7399 60.6961C67.7839 60.5214 67.8495 60.353 67.9352 60.1948C68.0165 60.0768 68.1378 59.9927 68.2764 59.9583C68.5548 60.0222 68.8231 60.1241 69.0741 60.261C70.2794 60.8893 71.598 61.268 72.9517 61.3747C73.1779 61.3929 73.405 61.3968 73.6317 61.3865C74.1028 61.4308 74.5776 61.3628 75.0176 61.1879C75.4407 60.9721 75.8062 60.6575 76.0834 60.2705C76.1446 60.1924 76.2011 60.1097 76.2599 60.034C75.949 61.9225 75.364 63.7549 74.5234 65.4725C74.5234 65.4725 73.1117 67.8371 73.2129 70.2206C73.1585 71.089 73.3416 71.9558 73.7423 72.7271C73.7423 72.7271 73.7823 72.623 73.8646 72.4599C74.2693 73.1409 75.5964 75.3187 76.467 76.0824C76.5093 78.3312 76.4999 81.1474 76.2199 81.7267C75.7493 82.7175 74.2623 89.7663 80.6575 94.5735L82.1328 97.8201L76.0599 98.2528C75.4458 98.1677 67.5047 97.0941 67.4647 98.6571C67.4247 100.282 68.6646 116.101 72.7823 115.03C76.6199 114.032 75.354 109.418 75.1634 108.799L75.2999 108.761L75.1493 108.718L78.2199 105.793C78.2778 105.437 78.1932 105.073 77.9846 104.779L78.0152 104.762L85.4316 105.096L87.1751 108.903C87.1751 108.903 90.1328 113.424 87.7351 117.229C85.3375 121.033 82.8575 126.982 82.4575 130.591C82.1305 133.542 79.9564 136.441 79.1775 137.396C77.787 137.869 72.4529 139.974 74.5823 143.159C77.0199 146.805 84.9352 153.745 88.1351 153.506C91.3351 153.267 90.0528 150.929 90.0528 150.929L87.3775 148.323C87.3775 148.323 86.9069 142.771 87.0975 141.146C87.201 140.302 86.5822 139.695 85.921 139.437C86.1728 137.628 86.8104 134.199 88.1798 132.305C90.0975 129.647 96.2551 117.952 96.2551 117.952C96.2551 117.952 98.2127 116.207 97.7727 111.014C97.5963 108.919 97.4974 107.08 97.441 105.626L104.41 105.94C104.41 105.94 111.886 105.186 106.808 97.1367C101.73 89.0876 90.9375 81.1994 90.9375 81.1994L90.841 76.2172C91.3304 76.3402 91.6175 76.4016 91.6175 76.4016C91.6175 76.4016 91.5751 76.2219 91.5045 75.9004L91.6175 75.9264C91.6175 75.9264 90.0575 69.1424 89.5775 63.7488L90.0175 63.9521C94.6551 69.3457 97.7821 64.7868 97.7821 64.7868C97.7821 64.7868 107.577 50.9493 106.617 51.583C106.518 51.6325 106.41 51.6615 106.299 51.6684C106.188 51.6753 106.077 51.6599 105.973 51.6232L106.679 49.3626C106.679 49.3626 109.57 44.9219 105.373 42.4249C101.947 40.3867 102.036 46.7758 102.184 49.19L102.015 49.0458C102.015 49.0458 98.7374 54.0114 96.9774 56.778C95.2175 59.5445 93.7398 57.7238 93.7398 57.7238L91.5163 55.2055C91.8815 54.1966 92.0609 53.1293 92.0457 52.0559C92.0942 51.3069 91.9855 50.5561 91.7264 49.8522C91.4674 49.1482 91.0639 48.5069 90.5422 47.9699C88.8457 46.2319 88.3493 44.5483 88.2975 43.2525C88.3142 42.5812 88.4654 41.9201 88.7422 41.3088L100.297 35.1609C100.297 35.1609 102.735 35.1988 106.013 30.1244C108.137 26.8789 110.475 23.7799 113.01 20.8481C113.01 20.8481 112.942 20.7488 112.824 20.5856C112.942 20.4461 113.01 20.3704 113.01 20.3704C113.01 20.3704 112.876 20.1742 112.648 19.8715L114.429 17.8072C114.373 18.7402 114.366 19.6755 114.408 20.6093L115.33 23.7423L115.848 41.1859C115.848 41.1859 115.288 42.8411 118.888 44.5176C121.933 45.9363 126.756 48.3009 128.163 48.9985C128.111 49.1262 128.081 49.1947 128.081 49.1947L128.5 49.1664L128.561 49.1947C135.594 48.561 135.354 55.617 135.354 55.617C135.354 55.617 135.824 69.97 133.676 74.9664C131.528 79.9627 131.836 86.1461 131.836 86.1461C131.836 86.1461 132.05 85.0915 133.248 86.4701C133.224 86.5907 133.198 86.7207 133.17 86.8555C132.483 90.3149 131.053 97.6735 130.787 100.658C130.494 103.377 129.972 106.066 129.227 108.697L128.521 121.899L133.017 122.119L132.968 122.591C132.943 122.831 132.861 123.061 132.728 123.262C132.595 123.463 132.416 123.628 132.206 123.743C130.667 124.582 127.029 127.526 127.321 136.611L127.166 138.072C126.916 140.547 126.17 142.945 124.97 145.121C124.867 145.306 124.775 145.483 124.697 145.653C124.709 145.558 124.752 145.469 124.82 145.4C124.82 145.4 122.483 145.887 122.963 152.232C123.443 158.576 124.163 159.685 125.123 159.763C126.083 159.841 130.77 160.992 130.518 158.654C130.267 156.315 130.048 151.12 130.358 150.328C130.669 149.536 131.944 147.398 130.735 146.883C131.086 145.428 131.256 143.935 131.241 142.437C131.241 142.437 133.594 138.711 135.276 137.323C136.958 135.935 137.864 133.577 138.474 130.544C138.516 130.345 143.431 127.053 142.709 124.32C142.582 123.847 142.49 123.429 142.42 123.05C142.389 122.882 142.363 122.724 142.34 122.577H142.427L143.427 116.55V122.419L144.02 122.497L143.998 122.97L143.747 128.598C143.701 129.694 143.462 130.773 143.041 131.785C141.982 134.303 140.029 139.91 140.561 145.972L140.504 151.378C140.335 151.411 137.893 151.99 138.356 158.117C138.827 164.459 139.554 165.57 140.514 165.648C141.474 165.726 146.161 166.878 145.911 164.539C145.662 162.201 145.441 157.006 145.751 156.214C146.062 155.421 146.622 153.326 145.413 152.811C145.419 152.1 145.591 151.401 145.916 150.77C146.443 149.869 148.203 145.587 149.528 142.293C150.882 138.959 151.635 135.41 151.751 131.811C151.751 131.771 151.751 131.731 151.751 131.69C151.787 130.476 152.046 129.279 152.516 128.16C153.058 126.908 153.486 125.609 153.796 124.28C153.829 124.121 153.855 123.968 153.878 123.807L155.027 123.961L158.947 106.912C158.947 106.912 160.019 97.6711 159.495 93.4976C159.474 93.325 159.45 93.1666 159.422 93.0129L159.657 93.0341C159.657 93.0341 160.457 90.9746 160.217 82.1712C159.977 73.3679 161.817 70.5848 161.817 70.5848C162.81 67.421 163.907 66.3616 164.547 66.0069C164.711 65.9014 164.9 65.8396 165.095 65.8272L168.062 69.2393L168.608 69.8683C168.609 69.8557 168.609 69.8431 168.608 69.8305L168.843 70.1071C168.825 69.9668 168.819 69.8252 168.824 69.6839C170.408 70.6084 174.066 72.7696 176.25 74.3208C179.097 76.3425 179.878 76.1061 182.368 75.8956C183.878 75.7703 185.921 74.9191 187.29 74.2712L187.415 74.2121C187.783 74.4097 188.171 74.5682 188.572 74.685C188.572 74.685 192.591 78.1065 192.979 71.8616C193.368 65.6168 188.158 67.1254 188.158 67.1254ZM83.9234 139.851C83.5142 139.728 83.1197 139.561 82.7469 139.352L83.9234 139.851ZM77.6317 72.2518L77.6458 73.1385L77.5846 73.1669C77.6034 72.8548 77.6175 72.5474 77.6317 72.2518ZM140.488 151.399V151.744C140.444 151.698 140.42 151.636 140.42 151.572C140.42 151.508 140.444 151.446 140.488 151.399Z" fill="url(#paint0_linear_113_116)"/>
<path d="M152 47H145V54H152V47Z" fill="#FF7590"/>
<path d="M136.773 129.454C136.173 132.46 135.283 134.797 133.636 136.174C131.988 137.551 129.675 141.243 129.675 141.243C129.635 146.154 128.34 147.646 128.34 147.646L127.006 148H123.711C123.711 148 123.122 146.35 123.004 145.369C122.964 145.041 123.197 144.492 123.522 143.902C124.7 141.742 125.432 139.366 125.676 136.916L125.829 135.466C125.551 126.467 129.124 123.546 130.623 122.713C130.83 122.598 131.006 122.433 131.136 122.235C131.266 122.036 131.346 121.809 131.369 121.572L131.635 119L140.499 119.436C140.499 119.436 140.31 120.219 140.647 122.03C140.715 122.405 140.807 122.822 140.929 123.286C141.636 125.995 136.811 129.256 136.773 129.454Z" fill="#8E5362"/>
<path d="M151.846 124.374C151.547 125.706 151.135 127.008 150.614 128.265C150.16 129.389 149.909 130.589 149.874 131.806C149.874 131.847 149.874 131.887 149.874 131.928C149.761 135.534 149.036 139.093 147.731 142.44C146.452 145.742 144.757 150.04 144.249 150.944C143.403 152.454 143.902 155 143.902 155L139.001 154.642L139.086 146.131C138.575 140.054 140.457 134.44 141.477 131.904C141.889 130.889 142.124 129.808 142.17 128.709L142.402 123.064L142.473 121.394C142.473 121.394 151.138 120.122 151.869 122.15C152.07 122.687 152.022 123.486 151.846 124.374Z" fill="#8E5362"/>
<path opacity="0.1" d="M142 123L132 122.396L132.286 119L141.84 119.576C141.84 119.576 141.63 120.606 142 123Z" fill="black"/>
<path opacity="0.1" d="M153.84 125L144 123.447L144.075 121.467C144.075 121.467 153.101 119.959 153.862 122.363C154.073 123 154.023 123.948 153.84 125Z" fill="black"/>
<path d="M158.31 106.373L154.407 123L142.858 121.492V115.769L141.86 121.65L128 120.991L128.717 108.115C129.46 105.546 129.979 102.921 130.27 100.267C130.54 97.3581 131.96 90.1827 132.645 86.8118C132.884 85.7006 133.018 85 133.018 85C133.018 85 156.756 89.7929 158.31 91.5328C158.575 91.8298 158.749 92.4608 158.857 93.2983C159.378 97.3628 158.31 106.373 158.31 106.373Z" fill="#BDD2E8"/>
<path opacity="0.1" d="M131 108C131 108 139.844 103.111 142 104.143L131 108Z" fill="black"/>
<path opacity="0.1" d="M135 92C135 92 142.761 97.512 143 99L135 92Z" fill="black"/>
<path opacity="0.1" d="M133 112.012C133 112.012 138.306 111.815 140 113L133 112.012Z" fill="black"/>
<path opacity="0.1" d="M143.634 106C143.634 106 145.656 114.693 144.78 117.07C143.903 119.448 143 116.514 143 116.514L143.634 106Z" fill="black"/>
<path d="M140.257 151C140.257 151 137.571 151.38 138.059 157.451C138.548 163.522 139.28 164.588 140.257 164.663C141.233 164.738 145.994 165.841 145.75 163.6C145.506 161.359 145.261 156.39 145.586 155.63C145.911 154.869 146.472 152.867 145.242 152.373L144.976 153.544C144.976 153.544 142.371 151.303 140.825 152.936C140.759 152.538 140.652 152.146 140.506 151.767C140.352 151.412 140.015 151.228 140.257 151Z" fill="#494457"/>
<path d="M187 74.4649C187 74.4649 186.417 74.8032 185.561 75.2255C184.239 75.878 182.27 76.7369 180.812 76.8641C178.409 77.0752 177.657 77.3151 174.91 75.2758C172.802 73.7116 169.273 71.5308 167.736 70.6L167.067 70.1897L167 70.1489V70.1201L168.275 66.4879L172.788 64L173.908 64.9956L177.243 67.9585C177.243 67.9585 177.764 68.827 178.604 68.767C179.444 68.7071 183.927 69.0957 183.927 69.0957L184.774 69.2397L186.558 69.5468L187 74.4649Z" fill="#8E5362"/>
<path opacity="0.1" d="M187 73.2368C187 73.2368 186.255 73.5762 185.162 74C184.006 73.5185 182.569 72.6156 183.122 71.13C183.622 69.7937 183.758 68.7512 184.168 68L186.447 68.3082L187 73.2368Z" fill="black"/>
<path d="M186.303 67.1427C186.303 67.1427 191.356 65.7712 190.98 71.5316C190.604 77.2921 186.71 74.1386 186.71 74.1386C186.71 74.1386 183.399 73.3157 184.096 71.1476C184.793 68.9795 184.591 67.665 186.303 67.1427Z" fill="#8E5362"/>
<path d="M133 47.7071L127.757 49.9644L127.676 50L127.618 49.9715L127.292 49.8032C125.936 49.1108 121.276 46.742 118.345 45.3359C114.874 43.6761 115.413 42.0162 115.413 42.0162L114.913 24.6283L114.025 21.5055C114.025 21.5055 113.398 10.9205 118.421 8.26715C123.444 5.6138 120.196 23.5992 120.196 23.5992L120.584 27.3362C120.836 29.7268 121.296 32.0894 121.961 34.3952C122.178 35.1533 122.315 35.9332 122.368 36.7214C122.523 39.2491 123.68 39.0807 123.68 39.0807C125.508 39.3748 127.272 39.9892 128.895 40.897C129.498 41.2233 130.076 41.5975 130.621 42.0162L133 47.7071Z" fill="#8E5362"/>
<path d="M151.418 56L147 55.5263C147 55.5263 148.302 53.5181 148.875 51.5642C148.956 51.2964 149.021 51.0235 149.069 50.7472C149.202 49.9728 149.168 49.2552 148.827 48.7365C147.535 46.7638 156.518 44 156.518 44C156.409 45.0918 156.376 46.1904 156.42 47.2872C156.446 48.0503 156.522 48.8108 156.648 49.5631C156.92 51.0953 157.462 52.5376 158.494 53.2765C161.315 55.2895 151.418 56 151.418 56Z" fill="#8E5362"/>
<path opacity="0.1" d="M151.417 55L147 54.5585C147 54.5585 148.302 52.6865 148.875 50.8653C149.384 51.5651 149.56 51.5497 150.275 51.6887C150.275 51.6887 154.732 52.3267 156.651 49C156.922 50.4283 157.464 51.7726 158.496 52.4614C161.311 54.3377 151.417 55 151.417 55Z" fill="black"/>
<path opacity="0.1" d="M167.743 70.5746C167.738 70.7167 167.744 70.859 167.762 71L167.059 70.1659L167 70.0966L168.292 66.4783L172.865 64L174 64.9918C172.375 65.6251 167.816 67.635 167.743 70.5746Z" fill="black"/>
<path opacity="0.1" d="M133 46.9911L127.564 48.975H127.42L127 49C127 49 127.031 48.9396 127.082 48.827C127.535 47.8705 129.639 43.2006 128.73 41C129.355 41.2867 129.953 41.6156 130.519 41.9836L133 46.9911Z" fill="black"/>
<path opacity="0.1" d="M159 93C156.909 92.8232 135.994 90.9972 134.043 88.0903C133.735 87.6167 133.386 87.1677 133 86.7477C133.237 85.6758 133.37 85 133.37 85C133.37 85 156.916 89.6232 158.457 91.3015C158.72 91.5835 158.893 92.1899 159 93Z" fill="black"/>
<path d="M151.157 53.067C151.157 53.067 155.788 53.7579 157.745 50.1307C157.745 50.1307 161.014 52.8375 162.969 53.0693C164.924 53.3012 174 64.8192 174 64.8192C174 64.8192 166.724 67.1853 167.194 70.971L163.751 66.9487C163.751 66.9487 162.031 66.8683 160.545 71.6808C160.545 71.6808 158.745 74.4397 158.98 83.1941C159.214 91.9486 158.433 94 158.433 94C158.433 94 135.588 92.0291 133.555 88.7946C131.523 85.5602 131.208 87.1384 131.208 87.1384C131.208 87.1384 130.894 80.9866 133.006 76.0179C135.118 71.0491 134.649 56.7746 134.649 56.7746C134.649 56.7746 134.884 49.7545 128 50.3862C128 50.3862 130.894 43.6027 129.565 41C129.565 41 133.525 42.0837 136.346 42.1168C138.077 42.1303 139.784 42.5346 141.34 43.2998C142.187 43.7186 142.969 44.2462 143.412 44.8756C144.741 46.7685 146.933 45.9025 146.933 45.9025C147.485 47.6346 148.168 49.3218 148.975 50.9493C149.066 51.1221 149.158 51.2924 149.252 51.4557C149.388 51.6923 149.528 51.9289 149.669 52.1229C150.233 52.9345 150.392 52.9132 151.157 53.067Z" fill="#FF7590"/>
<path opacity="0.1" d="M157.892 46.9048C157.644 47.2207 157.367 47.5182 157.065 47.7942C156.305 48.4926 155.396 49.0476 154.393 49.4265C153.389 49.8053 152.311 50.0003 151.222 50C150.94 50.0001 150.658 49.9876 150.378 49.9623C150.514 49.278 150.478 48.6439 150.13 48.1856C148.807 46.4423 158 44 158 44C157.886 44.9647 157.85 45.9355 157.892 46.9048Z" fill="black"/>
<path d="M160 42.5C160 44.1812 159.501 45.8245 158.567 47.2224C157.633 48.6202 156.306 49.7096 154.753 50.353C153.2 50.9963 151.491 51.1646 149.842 50.8367C148.193 50.5087 146.678 49.6992 145.49 48.5104C144.301 47.3217 143.491 45.8071 143.163 44.1583C142.835 42.5095 143.004 40.8004 143.647 39.2472C144.29 37.6941 145.38 36.3665 146.778 35.4326C148.175 34.4986 149.819 34.0001 151.5 34.0001C152.617 33.9959 153.725 34.2129 154.758 34.6386C155.791 35.0643 156.73 35.6902 157.52 36.4803C158.31 37.2705 158.936 38.2092 159.361 39.2423C159.787 40.2754 160.004 41.3826 160 42.5Z" fill="#8E5362"/>
<path opacity="0.1" d="M163 61.0102L163.25 67C163.25 67 166.883 64.8465 166.998 62.8005C167.112 60.7545 163 61.0102 163 61.0102Z" fill="black"/>
<path opacity="0.1" d="M144 66C144 66 150.509 75.9138 154.296 76.9197C158.083 77.9255 145.42 69.2144 144 66Z" fill="black"/>
<path opacity="0.1" d="M150 67C150 67 153.493 71.4456 156 72L150 67Z" fill="black"/>
<path opacity="0.1" d="M138 77C138 77 145 83.5992 149 84L138 77Z" fill="black"/>
<path opacity="0.1" d="M159 42.2413C159.001 44.3954 158.157 46.4636 156.651 48L155.749 47.4373C155.4 47.2553 155.099 46.9931 154.87 46.6721C154.572 46.173 154.659 45.5468 154.683 44.9652C154.732 43.7339 154.394 42.4013 153.433 41.6315C151.876 40.3813 149.379 41.0735 147.795 39.8469C147.414 39.5224 147.078 39.1478 146.797 38.7333L145.312 36.7391C145.223 36.6214 145.115 36.5037 145 36.3648C146.156 35.2256 147.622 34.4543 149.214 34.1479C150.806 33.8415 152.453 34.0136 153.947 34.6426C155.442 35.2716 156.718 36.3294 157.614 37.6831C158.511 39.0368 158.988 40.6259 158.986 42.2507L159 42.2413Z" fill="black"/>
<path d="M145.6 31.8367C146.318 31.3001 147.194 31.0173 148.002 30.6222C148.809 30.227 149.523 29.7242 150.33 29.3875C151.137 29.0507 152.071 28.8532 152.908 29.1338C154.704 29.7377 155.383 32.1936 157.23 32.6246C157.542 32.6964 157.863 32.7032 158.177 32.7503C158.777 32.8616 159.346 33.0963 159.846 33.4388C160.346 33.7812 160.766 34.2238 161.079 34.7371C161.695 35.7728 162.012 36.9531 161.996 38.1516C162.022 38.8168 161.923 39.4809 161.705 40.1114C161.159 41.5773 159.789 42.5808 158.865 43.8492C157.99 45.0629 157.526 46.5146 157.537 48L155.298 46.6373C154.957 46.4645 154.663 46.2143 154.44 45.9077C154.149 45.4318 154.234 44.8347 154.257 44.2802C154.305 43.1061 153.975 41.8355 153.039 41.1014C151.516 39.9093 149.078 40.5693 147.534 39.3998C147.162 39.0903 146.834 38.7332 146.559 38.3379L145.109 36.4365C144.795 36.0234 144.192 35.5093 144.054 35.0065C143.749 33.9244 144.793 32.445 145.6 31.8367Z" fill="#362133"/>
<path opacity="0.1" d="M155.934 46.2876C155.581 46.1034 155.278 45.8369 155.048 45.5103C154.747 45.0032 154.834 44.3671 154.858 43.7763C154.908 42.5255 154.567 41.1718 153.598 40.3897C152.027 39.1197 149.508 39.8229 147.911 38.5768C147.526 38.2472 147.188 37.8667 146.904 37.4456L145.406 35.4198C145.079 34.9797 144.459 34.432 144.316 33.8963C144.058 32.9731 144.712 31.7701 145.411 31C144.627 31.7319 143.767 33.1214 144.058 34.157C144.21 34.6927 144.823 35.2404 145.148 35.6805L146.646 37.7062C146.929 38.1274 147.268 38.5079 147.653 38.8375C149.242 40.0836 151.761 39.3804 153.339 40.6504C154.306 41.4325 154.647 42.7862 154.597 44.037C154.574 44.6277 154.486 45.2639 154.787 45.771C155.017 46.0976 155.321 46.3641 155.673 46.5483L157.986 48C157.986 47.8613 157.986 47.7226 158 47.5862L155.934 46.2876Z" fill="black"/>
<path d="M123.841 144C123.841 144 121.603 144.453 122.062 150.498C122.522 156.543 123.211 157.591 124.131 157.665C125.05 157.74 129.532 158.835 129.302 156.608C129.072 154.381 128.842 149.443 129.148 148.687C129.454 147.931 130.667 145.901 129.509 145.41L128.573 146.614C128.573 146.614 126.121 144.387 124.666 146.01C124.666 146.01 123.306 144.527 123.841 144Z" fill="#494457"/>
<path opacity="0.1" d="M126 149C126.54 149.208 127.044 149.462 127.582 149.67C128.111 149.896 128.701 150.009 129.299 149.999C129.552 149.996 129.798 149.926 130 149.802" fill="black"/>
<path opacity="0.1" d="M141 155C141.352 155.229 141.625 155.521 142.022 155.71C142.585 155.976 143.305 155.992 143.992 155.998C144.107 156.005 144.222 155.995 144.33 155.968C144.453 155.921 144.556 155.852 144.631 155.769L145 155.433" fill="black"/>
<path d="M102.135 51.4571C102.135 51.4571 100.962 40.7904 105.525 43.4158C110.087 46.0412 106.946 50.707 106.946 50.707L105.874 54L102.135 51.4571Z" fill="#FFC1C7"/>
<path d="M109 18.9514L111.452 16.5584C111.452 16.5584 116.154 3.11402 120.813 6.56711C125.473 10.0202 114.908 18.7516 114.908 18.7516L112.107 22L109 18.9514Z" fill="#FFC1C7"/>
<path d="M74.1212 69.2613L74 71.9376C74 71.9376 76.2221 75.7169 77.1502 75.9932C78.0782 76.2696 77.9983 68 77.9983 68L74.1212 69.2613Z" fill="#FF5374"/>
<path opacity="0.1" d="M74.1212 69.2613L74 71.9376C74 71.9376 76.2221 75.7169 77.1502 75.9932C78.0782 76.2696 77.9983 68 77.9983 68L74.1212 69.2613Z" fill="black"/>
<path d="M79 67L79.1586 77H90L89.1838 71.1738L79 67Z" fill="#FFC1C7"/>
<path d="M80.1766 91L80.6715 94.1554L86.867 108.439C86.867 108.439 89.6786 112.936 87.3983 116.724C85.118 120.511 82.7625 126.429 82.3817 130.018C82.0009 133.606 79 137.119 79 137.119L85.5376 140C85.5376 140 85.9937 134.359 87.8179 131.715C89.6421 129.071 95.4934 117.434 95.4934 117.434C95.4934 117.434 97.3564 115.696 96.9391 110.529C96.5218 105.361 96.5583 101.73 96.5583 101.73L95.9129 93.4855L80.1766 91Z" fill="#575988"/>
<path opacity="0.1" d="M80.1766 91L80.6715 94.1554L86.867 108.439C86.867 108.439 89.6786 112.936 87.3983 116.724C85.118 120.511 82.7625 126.429 82.3817 130.018C82.0009 133.606 79 137.119 79 137.119L85.5376 140C85.5376 140 85.9937 134.359 87.8179 131.715C89.6421 129.071 95.4934 117.434 95.4934 117.434C95.4934 117.434 97.3564 115.696 96.9391 110.529C96.5218 105.361 96.5583 101.73 96.5583 101.73L95.9129 93.4855L80.1766 91Z" fill="black"/>
<path d="M79.3397 137C79.3397 137 72.0826 139.189 74.489 142.788C76.8954 146.387 84.7039 153.229 87.858 152.994C91.0122 152.759 89.751 150.451 89.751 150.451L87.1079 147.87C87.1079 147.87 86.6347 142.396 86.8335 140.794C87.0322 139.191 84.5856 138.448 84.2685 139.386C83.9514 140.325 79.3397 137 79.3397 137Z" fill="#C4747B"/>
<path d="M85.4116 73L79.783 73.6467C79.2801 73.7044 78.8164 73.9561 78.4836 74.3519C78.1509 74.7477 77.9734 75.2588 77.9863 75.7841C78.0465 78.1209 78.0859 81.8378 77.771 82.5158C77.3079 83.5183 75.8817 90.6515 82.0543 95.4984L90.4289 98.2632L77 99.2657L77.426 107L79.5098 105.798L104.978 107C104.978 107 112.195 106.238 107.294 98.1045C102.392 89.9712 91.9755 81.9965 91.9755 81.9965L91.8597 75.6638L91.0864 73.8222L85.4116 73Z" fill="#575988"/>
<path opacity="0.1" d="M92 97C92.9462 96.3404 93.9675 96 95 96C96.0325 96 97.0538 96.3404 98 97H92Z" fill="black"/>
<path d="M76.8167 98.4376C76.8167 98.4376 68.0426 97.2291 68.001 98.8287C67.9594 100.428 69.2254 116.003 73.43 114.949C77.6346 113.895 75.8372 108.743 75.8372 108.743L78.9815 105.855C78.9815 105.855 79.3072 104.255 77.2257 104.41L76.8167 98.4376Z" fill="#C4747B"/>
<path d="M90.5844 53.6865L93.7895 57.414C93.7895 57.414 95.1861 59.1821 96.8452 56.4919C98.5043 53.8017 101.598 49 101.598 49C101.598 49 105.032 52.0728 105.938 51.4597C106.843 50.8465 97.6012 64.2559 97.6012 64.2559C97.6012 64.2559 94.6587 68.6726 90.2811 63.449L89 62.8335L90.5844 53.6865Z" fill="#FF5374"/>
<path opacity="0.1" d="M90.5844 53.6865L93.7895 57.414C93.7895 57.414 95.1861 59.1821 96.8452 56.4919C98.5043 53.8017 101.598 49 101.598 49C101.598 49 105.032 52.0728 105.938 51.4597C106.843 50.8465 97.6012 64.2559 97.6012 64.2559C97.6012 64.2559 94.6587 68.6726 90.2811 63.449L89 62.8335L90.5844 53.6865Z" fill="black"/>
<path d="M81 39C84.866 39 88 35.866 88 32C88 28.134 84.866 25 81 25C77.134 25 74 28.134 74 32C74 35.866 77.134 39 81 39Z" fill="#FFC1C7"/>
<path opacity="0.1" d="M80.4327 35.9639C80.4327 35.9639 74.6263 38.794 75.3134 43.7466C76.0006 48.6992 76.1151 54.949 76.1151 54.949C76.1151 54.949 78.7514 58.9583 75.2562 66.6231C75.2562 66.6231 73.023 70.5144 74.5118 73.3445C74.5118 73.3445 76.1632 68.8635 80.4327 72.1653C84.7021 75.467 91.5758 77 91.5758 77C91.5758 77 88.0256 60.9629 90.2015 58.7224C90.2015 58.7224 93.9808 52.9444 90.5451 49.2888C87.1094 45.6333 88.8273 42.2137 88.8273 42.2137L99.8605 36.1219C99.8605 36.1219 102.188 36.1597 105.319 31.1292C107.346 27.9145 109.578 24.8418 112 21.9314C112 21.9314 109.632 18.2759 107.419 18C107.419 18 106.54 18.9434 105.93 21.4999C105.605 22.8559 103.395 25.1224 101.395 26.9501C99.975 28.2472 98.6053 29.5939 97.2379 30.9594C96.2255 31.9617 93.9717 33.3956 89.0563 34.2069C80.9663 35.5347 80.4327 35.9639 80.4327 35.9639Z" fill="black"/>
<path d="M80.4327 34.9639C80.4327 34.9639 74.6263 37.794 75.3134 42.7466C76.0006 47.6992 76.1151 53.949 76.1151 53.949C76.1151 53.949 78.7514 57.9583 75.2562 65.6231C75.2562 65.6231 73.023 69.5144 74.5118 72.3445C74.5118 72.3445 76.1632 67.8635 80.4327 71.1653C84.7021 74.467 91.5758 76 91.5758 76C91.5758 76 88.0256 59.9629 90.2015 57.7224C90.2015 57.7224 93.9808 51.9444 90.5451 48.2888C87.1094 44.6333 88.8273 41.2137 88.8273 41.2137L99.8605 35.1219C99.8605 35.1219 102.188 35.1597 105.319 30.1292C107.346 26.9145 109.578 23.8418 112 20.9314C112 20.9314 109.632 17.2759 107.419 17C107.419 17 106.54 17.9434 105.93 20.4999C105.605 21.8559 103.395 24.1224 101.395 25.9501C99.975 27.2472 98.6053 28.5939 97.2379 29.9594C96.2255 30.9617 93.9717 32.3956 89.0563 33.2069C80.9663 34.5347 80.4327 34.9639 80.4327 34.9639Z" fill="#FF5374"/>
<path opacity="0.1" d="M86 65C86 65 90.876 71.8235 91 73C91.0025 73 90.2584 65.6659 86 65Z" fill="black"/>
<path opacity="0.1" d="M79 42C79 42 82.2721 44.0138 87 42.3259C85.6933 42.5528 84.3099 42.6409 82.9343 42.5849C81.5587 42.5288 80.22 42.3298 79 42Z" fill="black"/>
<path opacity="0.1" d="M81.985 23.6141C81.9025 23.2612 81.7314 22.9364 81.4888 22.6721C80.4505 21.3368 79.3225 19.9662 77.7765 19.3327C76.7502 18.9397 75.6282 18.8936 74.5746 19.2012C73.521 19.5089 72.591 20.1541 71.9208 21.0424C71.3649 21.8102 71.0341 22.7239 70.554 23.5458C69.6672 25.0671 68.2958 26.2399 66.8209 27.1678C65.9319 27.7259 64.9946 28.2087 64.1561 28.8422C61.1077 31.143 59.6995 35.3961 60.4668 39.2042C60.8045 40.8715 61.5189 42.5153 61.3259 44.2085C61.1766 45.5226 60.4943 46.7001 59.8029 47.8164C59.1114 48.9326 58.374 50.063 58.0983 51.3489C57.8226 52.6347 58.1121 54.1584 59.1527 54.9379C59.5364 55.2252 59.9981 55.4089 60.3266 55.7527C60.544 56.0204 60.7256 56.3166 60.8665 56.6335C61.4137 57.6684 62.161 58.5781 63.0628 59.3069C63.9645 60.0357 65.0017 60.5684 66.1111 60.8725C67.0989 61.1386 68.4244 61.042 68.7851 60.0623C68.8265 59.8894 68.889 59.7224 68.9712 59.5654C69.2974 59.0944 70.0164 59.3582 70.5218 59.629C71.6723 60.2456 72.9329 60.6165 74.2272 60.7194C74.7406 60.7888 75.2628 60.7248 75.7457 60.5333C76.1535 60.3211 76.5044 60.0098 76.768 59.6267C77.9764 58.0135 78.3232 55.9058 78.53 53.8828C78.6655 52.5664 78.7597 51.2264 78.5139 49.9265C78.1234 47.8399 76.8852 45.89 77.0689 43.7752C77.2642 41.5144 79.0538 39.6657 79.3271 37.4167C79.4661 36.2392 79.1792 35.0503 78.5208 34.075C78.2778 33.7738 78.0719 33.4432 77.9074 33.0906C77.829 32.9123 77.8046 32.7139 77.8374 32.5212C77.8702 32.3285 77.9586 32.1503 78.0912 32.0097C78.2367 31.9046 78.3982 31.825 78.569 31.7742C80.0462 31.1925 80.8341 29.6759 80.9398 28.1239C80.9811 27.5352 80.9398 26.9935 81.0983 26.4189C81.351 25.5311 82.116 24.5608 81.985 23.6141Z" fill="black"/>
<path d="M81.985 23.6141C81.9025 23.2612 81.7314 22.9364 81.4888 22.6721C80.4505 21.3368 79.3225 19.9662 77.7765 19.3327C76.7502 18.9397 75.6282 18.8936 74.5746 19.2012C73.521 19.5089 72.591 20.1541 71.9208 21.0424C71.3649 21.8102 71.0341 22.7239 70.554 23.5458C69.6672 25.0671 68.2958 26.2399 66.8209 27.1678C65.9319 27.7259 64.9946 28.2087 64.1561 28.8422C61.1077 31.143 59.6995 35.3961 60.4668 39.2042C60.8045 40.8715 61.5189 42.5153 61.3259 44.2085C61.1766 45.5226 60.4943 46.7001 59.8029 47.8164C59.1114 48.9326 58.374 50.063 58.0983 51.3489C57.8226 52.6347 58.1121 54.1584 59.1527 54.9379C59.5364 55.2252 59.9981 55.4089 60.3266 55.7527C60.544 56.0204 60.7256 56.3166 60.8665 56.6335C61.4137 57.6684 62.161 58.5781 63.0628 59.3069C63.9645 60.0357 65.0017 60.5684 66.1111 60.8725C67.0989 61.1386 68.4244 61.042 68.7851 60.0623C68.8265 59.8894 68.889 59.7224 68.9712 59.5654C69.2974 59.0944 70.0164 59.3582 70.5218 59.629C71.6723 60.2456 72.9329 60.6165 74.2272 60.7194C74.7406 60.7888 75.2628 60.7248 75.7457 60.5333C76.1535 60.3211 76.5044 60.0098 76.768 59.6267C77.9764 58.0135 78.3232 55.9058 78.53 53.8828C78.6655 52.5664 78.7597 51.2264 78.5139 49.9265C78.1234 47.8399 76.8852 45.89 77.0689 43.7752C77.2642 41.5144 79.0538 39.6657 79.3271 37.4167C79.4661 36.2392 79.1792 35.0503 78.5208 34.075C78.2778 33.7738 78.0719 33.4432 77.9074 33.0906C77.829 32.9123 77.8046 32.7139 77.8374 32.5212C77.8702 32.3285 77.9586 32.1503 78.0912 32.0097C78.2367 31.9046 78.3982 31.825 78.569 31.7742C80.0462 31.1925 80.8341 29.6759 80.9398 28.1239C80.9811 27.5352 80.9398 26.9935 81.0983 26.4189C81.351 25.5311 82.116 24.5608 81.985 23.6141Z" fill="#BB7684"/>
<g opacity="0.1">
<path opacity="0.1" d="M67.2654 60.1541C67.1998 60.2469 67.1492 60.3452 67.1148 60.4472C66.944 60.7916 66.4977 60.9499 66 60.9888C66.6924 61.0416 67.4325 60.9152 67.6657 60.4472C67.7002 60.3452 67.7508 60.2469 67.8163 60.1541C67.8626 60.1031 67.926 60.0623 68 60.036C67.7208 59.9749 67.4343 59.9777 67.2654 60.1541Z" fill="black"/>
<path opacity="0.1" d="M79.9864 23.6494C79.9133 23.2933 79.7573 22.966 79.5348 22.7014C78.5899 21.3577 77.5635 19.9784 76.1566 19.3408C75.5452 19.0702 74.888 18.9584 74.2334 19.0138C74.6778 19.0455 75.1151 19.1558 75.5295 19.3408C76.9364 19.9784 77.9628 21.3577 78.9077 22.7014C79.1302 22.966 79.2861 23.2933 79.3592 23.6494C79.4784 24.5974 78.7843 25.5809 78.5544 26.4578C78.4018 27.0361 78.4457 27.5788 78.4101 28.1736C78.3119 29.7331 77.5969 31.2546 76.2507 31.8471C76.0952 31.8983 75.9482 31.9783 75.8159 32.0841C75.6951 32.2261 75.6147 32.4059 75.5853 32.6003C75.5558 32.7948 75.5786 32.9947 75.6507 33.1742C75.7996 33.529 75.9863 33.8617 76.2068 34.1649C76.8065 35.1453 77.0683 36.3409 76.9426 37.5255C76.6918 39.7935 75.0612 41.6516 74.8856 43.9243C74.7184 46.0573 75.8472 48.0149 76.2005 50.1123C76.4221 51.4205 76.3385 52.769 76.2151 54.0938C76.027 56.1296 75.7134 58.2531 74.6118 59.8741C74.3728 60.2596 74.0541 60.5729 73.6836 60.7865C73.467 60.8942 73.2358 60.9591 73 60.9785C73.4442 61.0385 73.8946 60.9725 74.3107 60.7865C74.6819 60.5786 75.0026 60.2711 75.2452 59.8907C76.3468 58.2697 76.6604 56.1462 76.8486 54.1104C76.9719 52.7856 77.0576 51.4371 76.8339 50.1289C76.4806 48.0315 75.3518 46.0668 75.519 43.9409C75.6988 41.6634 77.3252 39.8054 77.576 37.5421C77.7018 36.3575 77.4399 35.1618 76.8402 34.1815C76.6198 33.8783 76.433 33.5456 76.2841 33.1908C76.2121 33.0113 76.1893 32.8113 76.2187 32.6169C76.2482 32.4225 76.3285 32.2426 76.4493 32.1007C76.5817 31.9949 76.7286 31.9148 76.8841 31.8637C78.2304 31.2759 78.9453 29.7497 79.0436 28.1902C79.0791 27.5954 79.0435 27.0527 79.1878 26.4744C79.4115 25.5809 80.1055 24.6045 79.9864 23.6494Z" fill="black"/>
</g>
<path opacity="0.1" d="M73 107C73.4957 107.427 74.1338 107.735 74.8412 107.889C75.5486 108.043 76.2968 108.037 77 107.871" fill="black"/>
<path opacity="0.1" d="M87 148C86.8615 148.409 86.7003 148.704 86.5277 148.863C86.355 149.023 86.175 149.043 86 148.923" fill="black"/>
<path opacity="0.1" d="M24.5 156C28.0899 156 31 155.552 31 155C31 154.448 28.0899 154 24.5 154C20.9101 154 18 154.448 18 155C18 155.552 20.9101 156 24.5 156Z" fill="#84CC16"/>
<path d="M196.5 176C200.09 176 203 175.552 203 175C203 174.448 200.09 174 196.5 174C192.91 174 190 174.448 190 175C190 175.552 192.91 176 196.5 176Z" fill="#84CC16"/>
<path opacity="0.1" d="M196.5 156C200.09 156 203 155.552 203 155C203 154.448 200.09 154 196.5 154C192.91 154 190 154.448 190 155C190 155.552 192.91 156 196.5 156Z" fill="#84CC16"/>
<path opacity="0.1" d="M42.5 165C46.0898 165 49 164.552 49 164C49 163.448 46.0898 163 42.5 163C38.9101 163 36 163.448 36 164C36 164.552 38.9101 165 42.5 165Z" fill="#84CC16"/>
<path d="M216.5 166C221.747 166 226 165.105 226 164C226 162.895 221.747 162 216.5 162C211.253 162 207 162.895 207 164C207 165.105 211.253 166 216.5 166Z" fill="#84CC16"/>
<path opacity="0.1" d="M82 180C93.598 180 103 178.433 103 176.5C103 174.567 93.598 173 82 173C70.402 173 61 174.567 61 176.5C61 178.433 70.402 180 82 180Z" fill="#84CC16"/>
<path d="M221.037 161.496C221.483 161.132 221.808 160.643 221.97 160.091C222.089 159.533 221.851 158.866 221.319 158.662C220.721 158.434 220.082 158.846 219.598 159.266C219.114 159.686 218.558 160.159 217.924 160.072C218.25 159.777 218.494 159.402 218.632 158.985C218.77 158.568 218.797 158.122 218.711 157.691C218.683 157.513 218.608 157.345 218.492 157.206C218.159 156.852 217.559 157.005 217.16 157.284C215.897 158.172 215.544 159.885 215.537 161.428C215.411 160.872 215.518 160.292 215.515 159.729C215.513 159.167 215.355 158.516 214.874 158.218C214.576 158.054 214.241 157.971 213.901 157.975C213.333 157.956 212.701 158.012 212.312 158.427C211.826 158.943 211.955 159.807 212.375 160.368C212.796 160.928 213.432 161.29 214.018 161.683C214.489 161.962 214.892 162.345 215.194 162.801C215.229 162.865 215.259 162.931 215.282 163H218.842C219.638 162.6 220.376 162.094 221.037 161.496Z" fill="#84CC16"/>
<path d="M201.039 172.487C201.484 172.124 201.809 171.635 201.97 171.085C202.089 170.528 201.853 169.874 201.318 169.659C200.721 169.431 200.081 169.843 199.598 170.262C199.114 170.68 198.558 171.153 197.923 171.065C198.25 170.771 198.494 170.398 198.632 169.981C198.77 169.565 198.797 169.12 198.711 168.69C198.685 168.512 198.609 168.344 198.492 168.206C198.162 167.852 197.559 168.005 197.163 168.283C195.899 169.169 195.547 170.879 195.539 172.419C195.411 171.864 195.518 171.286 195.515 170.724C195.513 170.162 195.355 169.513 194.874 169.216C194.575 169.056 194.24 168.976 193.901 168.985C193.333 168.966 192.701 169.022 192.312 169.436C191.826 169.952 191.955 170.814 192.375 171.373C192.796 171.932 193.432 172.293 194.021 172.685C194.491 172.965 194.892 173.346 195.194 173.801C195.229 173.865 195.259 173.931 195.282 174H198.842C199.639 173.596 200.378 173.087 201.039 172.487Z" fill="#84CC16"/>
<path d="M49.4095 152C49.4095 152 45.8284 140.723 50.0824 132.425C51.8938 128.953 52.4412 125.03 51.6422 121.245C51.248 119.452 50.6773 117.696 49.9371 116" stroke="#535461" stroke-width="2" stroke-miterlimit="10"/>
<path d="M51.9988 110.59C51.9988 111.978 49.4988 116 49.4988 116C49.4988 116 47.0012 111.978 47.0012 110.59C46.9909 110.254 47.0479 109.919 47.1689 109.605C47.2898 109.291 47.4722 109.005 47.7053 108.763C47.9383 108.522 48.2173 108.33 48.5256 108.199C48.8339 108.068 49.1652 108 49.5 108C49.8348 108 50.1661 108.068 50.4744 108.199C50.7827 108.33 51.0617 108.522 51.2947 108.763C51.5278 109.005 51.7102 109.291 51.8311 109.605C51.9521 109.919 52.0091 110.254 51.9988 110.59Z" fill="#84CC16"/>
<path d="M57.5935 117.823C56.7576 118.986 52 121 52 121C52 121 52.0867 116.251 52.9226 115.09C53.3333 114.55 53.9609 114.177 54.6719 114.049C55.3829 113.92 56.1212 114.048 56.7297 114.404C57.3382 114.76 57.7689 115.317 57.9302 115.955C58.0915 116.594 57.9707 117.264 57.5935 117.823Z" fill="#84CC16"/>
<path d="M55.734 130.665C54.543 131.283 50 130.857 50 130.857C50 130.857 52.3662 126.851 53.5572 126.235C54.1265 125.961 54.7775 125.925 55.372 126.136C55.9664 126.347 56.4574 126.787 56.7408 127.364C57.0241 127.94 57.0775 128.607 56.8895 129.224C56.7015 129.84 56.287 130.357 55.734 130.665Z" fill="#84CC16"/>
<path d="M53.1913 141.743C52.2007 142.615 48 143 48 143C48 143 49.5471 138.323 50.5293 137.448C51.006 137.068 51.5866 136.922 52.1511 137.04C52.7156 137.157 53.2206 137.529 53.5616 138.078C53.9027 138.627 54.0535 139.312 53.983 139.991C53.9125 140.669 53.6261 141.289 53.1829 141.723L53.1913 141.743Z" fill="#84CC16"/>
<path d="M46.6815 120.108C47.6228 121.037 52 122 52 122C52 122 50.9287 117.57 49.9829 116.641C49.5279 116.213 48.927 115.984 48.3083 116.001C47.6895 116.018 47.1019 116.281 46.6707 116.733C46.2395 117.186 45.9988 117.791 46 118.422C46.0012 119.052 46.2441 119.657 46.677 120.108H46.6815Z" fill="#84CC16"/>
<path d="M43.2823 132.667C44.4705 133.282 49 132.856 49 132.856C49 132.856 46.6396 128.858 45.4515 128.243C44.8825 127.963 44.2294 127.923 43.6323 128.133C43.0353 128.342 42.5418 128.784 42.2579 129.363C41.974 129.942 41.9223 130.612 42.1138 131.23C42.3053 131.848 42.7248 132.364 43.2823 132.667Z" fill="#84CC16"/>
<path d="M42.8087 143.742C43.7993 144.618 48 145 48 145C48 145 46.4529 140.321 45.4707 139.448C44.9941 139.068 44.4134 138.922 43.8489 139.04C43.2844 139.157 42.7794 139.529 42.4384 140.079C42.0973 140.628 41.9465 141.313 42.017 141.992C42.0875 142.671 42.3739 143.291 42.8171 143.725L42.8087 143.742Z" fill="#84CC16"/>
<path d="M42 149.958C42 149.958 46.0751 149.152 47.1636 148.077C48.252 147.002 53.1393 145.123 53.6824 146.466C54.2254 147.809 61.0181 152.376 56.3999 153.183C51.7818 153.989 45.5321 154.257 44.1745 153.721C42.8169 153.185 42 149.958 42 149.958Z" fill="#A8A8A8"/>
<path opacity="0.2" d="M56.407 153.702C51.7888 154.493 45.5392 154.756 44.1817 154.227C43.1456 153.827 42.4263 151.901 42.1429 151L42 151.035C42 151.035 42.8145 154.197 44.1745 154.725C45.5345 155.254 51.7817 154.988 56.3998 154.197C57.7336 153.965 58.1147 153.434 57.9718 152.755C57.8646 153.19 57.4002 153.532 56.407 153.702Z" fill="black"/>
<path d="M197.305 139C197.305 139 198.506 140.767 196.752 143.423C194.997 146.079 193.551 148.337 194.13 150C194.13 150 196.778 145.049 198.937 144.98C201.096 144.912 199.671 141.971 197.305 139Z" fill="#84CC16"/>
<path opacity="0.1" d="M198.271 139C198.377 139.171 198.461 139.358 198.52 139.555C200.646 142.329 201.778 144.92 199.734 144.984C197.831 145.045 195.548 148.826 195 149.781C195.018 149.855 195.039 149.928 195.064 150C195.064 150 197.742 145.052 199.926 144.984C202.109 144.915 200.664 141.969 198.271 139Z" fill="black"/>
<path d="M200.231 142.263C200.231 142.67 200.178 143 200.114 143C200.051 143 200 142.678 200 142.263C200 141.848 200.064 142.048 200.127 142.048C200.191 142.048 200.231 141.857 200.231 142.263Z" fill="#FFD037"/>
<path d="M200.762 142.504C200.371 142.857 200.03 143.07 200.002 142.979C199.974 142.889 200.264 142.533 200.655 142.18C201.045 141.828 200.892 142.084 200.922 142.18C200.952 142.277 201.152 142.151 200.762 142.504Z" fill="#FFD037"/>
<path d="M191.697 139C191.697 139 190.495 140.767 192.249 143.423C194.003 146.079 195.449 148.337 194.87 150C194.87 150 192.225 145.049 190.065 144.98C187.905 144.912 189.327 141.971 191.697 139Z" fill="#84CC16"/>
<path opacity="0.1" d="M191.731 139C191.625 139.171 191.541 139.358 191.482 139.555C189.357 142.329 188.226 144.92 190.269 144.984C192.171 145.045 194.452 148.826 195 149.781C194.982 149.856 194.96 149.929 194.934 150C194.934 150 192.259 145.052 190.075 144.984C187.891 144.915 189.335 141.969 191.731 139Z" fill="black"/>
<path d="M189 142.263C189 142.67 189.053 143 189.116 143C189.18 143 189.231 142.678 189.231 142.263C189.231 141.848 189.167 142.048 189.104 142.048C189.04 142.048 189 141.857 189 142.263Z" fill="#FFD037"/>
<path d="M188.238 142.504C188.629 142.857 188.968 143.07 188.998 142.979C189.028 142.889 188.736 142.533 188.345 142.18C187.955 141.828 188.108 142.084 188.078 142.18C188.048 142.277 187.848 142.151 188.238 142.504Z" fill="#FFD037"/>
<path d="M189 149.721C189 149.721 192.493 149.622 193.548 148.941C194.603 148.259 198.922 147.444 199.183 148.526C199.445 149.609 204.431 153.97 200.488 153.999C196.545 154.028 191.326 153.44 190.276 152.858C189.225 152.276 189 149.721 189 149.721Z" fill="#A8A8A8"/>
<path opacity="0.2" d="M200.559 153.56C196.615 153.593 191.395 152.908 190.344 152.23C189.544 151.713 189.223 149.857 189.118 149H189C189 149 189.227 151.991 190.274 152.669C191.32 153.347 196.545 154.033 200.489 153.999C201.626 153.999 202.02 153.56 201.999 152.925C201.84 153.313 201.406 153.552 200.559 153.56Z" fill="black"/>
</g>
<defs>
<linearGradient id="paint0_linear_113_116" x1="124.507" y1="166.01" x2="124.507" y2="5.00063" gradientUnits="userSpaceOnUse">
<stop stop-color="#808080" stop-opacity="0.25"/>
<stop offset="0.54" stop-color="#808080" stop-opacity="0.12"/>
<stop offset="1" stop-color="#808080" stop-opacity="0.1"/>
</linearGradient>
<clipPath id="clip0_113_116">
<rect width="236" height="180" fill="white"/>
</clipPath>
</defs>
</svg>
