<svg width="295" height="63" viewBox="0 0 295 63" fill="none" xmlns="http://www.w3.org/2000/svg">
<path d="M20.8903 12.022C22.7176 12.022 24.2321 12.1126 25.4339 12.2937C26.6521 12.4747 27.9526 12.7381 29.3354 13.0838C30.3396 13.3143 30.9322 13.446 31.1133 13.4789L29.9774 20.393C29.8786 20.3436 29.4506 20.1131 28.6934 19.7016C27.9361 19.2736 26.9155 18.9279 25.6314 18.6645C24.3474 18.3846 22.9316 18.2447 21.3842 18.2447C19.3429 18.2447 17.4992 18.7468 15.853 19.751C14.2232 20.7552 12.9309 22.2121 11.9761 24.1217C11.0378 26.0148 10.5686 28.2454 10.5686 30.8135C10.5686 33.4145 11.0213 35.7439 11.9268 37.8016C12.8486 39.8429 14.1656 41.4397 15.8777 42.5921C17.6062 43.7444 19.6392 44.3206 21.9768 44.3206C23.0469 44.3206 24.1663 44.1971 25.3351 43.9502C26.5204 43.6868 27.5904 43.374 28.5452 43.0119C29.5165 42.6332 30.2326 42.2793 30.6935 41.9501L30.7182 48.4196C29.6811 48.8312 28.7592 49.1687 27.9526 49.4321C27.1624 49.6955 26.1994 49.9177 25.0635 50.0988C23.9276 50.2963 22.6518 50.3951 21.236 50.3951C17.4333 50.3951 14.1162 49.6049 11.2847 48.0246C8.45326 46.4277 6.27204 44.1889 4.74107 41.308C3.22656 38.4272 2.46931 35.0936 2.46931 31.3073C2.46931 27.2741 3.27595 23.8089 4.88923 20.9116C6.51897 17.9978 8.72489 15.7919 11.507 14.2938C14.3055 12.7793 17.4333 12.022 20.8903 12.022ZM134.624 12.4171L139.636 32.1716L141.538 40.4685L142.97 32.1716L147.489 12.4171H158.206L162.7 50H154.996L153.144 29.8504L152.477 18.3435L149.711 29.8504L144.328 50.3704H138.105L132.154 29.8504L129.364 18.3435L128.475 29.8504L126.87 50L119.586 50.0247L123.586 12.4171H134.624ZM171.947 12.4171C173.445 12.4171 175.429 12.3513 177.898 12.2196C180.203 12.0879 181.915 12.022 183.034 12.022C187.495 12.022 190.895 13.0592 193.232 15.1334C195.586 17.2076 196.763 20.4918 196.763 24.9859C196.763 27.8503 196.179 30.3032 195.01 32.3444C193.858 34.3857 192.154 35.9414 189.899 37.0114C187.66 38.0815 184.935 38.6165 181.725 38.6165C180.013 38.6165 178.581 38.6 177.429 38.5671V50H169.576V12.4171H171.947ZM181.528 32.6655C183.734 32.6655 185.52 32.0811 186.886 30.9122C188.269 29.7434 188.96 27.7351 188.96 24.8871C188.96 22.5001 188.318 20.6893 187.034 19.4547C185.75 18.2035 183.89 17.6274 181.454 17.7261C180.499 17.7591 179.717 17.8002 179.108 17.8496C178.515 17.8825 177.955 17.9566 177.429 18.0718V32.4679C178.499 32.5996 179.865 32.6655 181.528 32.6655ZM211.887 12.4171V50H203.986V12.4171H211.887ZM252.717 12.4171V50H244.84L231.431 28.7393L228.468 22.7388L229.308 31.7024V50H221.999V12.4171H229.283L243.284 34.5174L246.124 40.1475L245.408 31.1098V12.4171H252.717ZM291.744 29.7517V47.7776C291.415 47.7941 291.061 47.8599 290.682 47.9752C290.303 48.0904 289.777 48.2633 289.102 48.4937C287.439 49.0699 285.809 49.5308 284.212 49.8765C282.632 50.2222 280.657 50.3951 278.286 50.3951C274.533 50.3951 271.306 49.6214 268.606 48.0739C265.907 46.51 263.849 44.3041 262.433 41.4562C261.034 38.5918 260.334 35.2418 260.334 31.4061C260.334 27.0601 261.141 23.4385 262.754 20.5412C264.384 17.6438 266.606 15.5038 269.421 14.121C272.236 12.7217 275.455 12.022 279.076 12.022C280.986 12.022 282.517 12.1044 283.669 12.269C284.822 12.4336 286.081 12.6805 287.447 13.0098C288.287 13.2238 289.036 13.3884 289.694 13.5036L289.447 20.2448C288.065 19.5864 286.624 19.0925 285.126 18.7633C283.628 18.4175 281.62 18.2447 279.101 18.2447C276.928 18.2447 275.043 18.7468 273.446 19.751C271.866 20.7387 270.648 22.1709 269.792 24.0476C268.936 25.9078 268.508 28.1384 268.508 30.7394C268.508 33.3404 268.853 35.6698 269.545 37.7275C270.236 39.7688 271.29 41.3903 272.705 42.5921C274.121 43.7773 275.883 44.37 277.99 44.37C280.508 44.37 282.607 44.0572 284.287 43.4316V35.9003L278.533 35.6039V29.7517H291.744Z" fill="black"/>
<path d="M98.6383 12.3304H54.8321L62.9558 49.4253H110.274L98.6383 12.3304Z" fill="#365314"/>
<path d="M91.366 49.4253L98.6382 12.3304L82.9302 49.4253H91.366Z" fill="#65A30D"/>
<path d="M101.838 49.4253L98.6383 12.3304L110.274 49.4253H101.838Z" fill="#65A30D"/>
<path d="M54.8321 12.3304H98.6383L83.1241 49.4253H39.6846L54.8321 12.3304Z" fill="#84CC16"/>
</svg>
