<svg width="998" height="780" viewBox="0 0 998 780" fill="none" xmlns="http://www.w3.org/2000/svg">
<g clip-path="url(#clip0_44_1963)">
<path opacity="0.1" d="M350.697 765C446.795 765 524.697 750.225 524.697 732C524.697 713.775 446.795 699 350.697 699C254.6 699 176.697 713.775 176.697 732C176.697 750.225 254.6 765 350.697 765Z" fill="#84CC16"/>
<path opacity="0.1" d="M579.963 109.959C516.048 107.748 455.173 87.1178 397.045 64.5528C338.916 41.9877 281.34 16.9945 218.955 5.04074C178.83 -2.64874 132.938 -3.74442 100.614 17.7348C69.4958 38.4638 59.4423 74.1473 54.0402 107.284C49.9714 132.218 47.5815 158.465 58.7213 181.81C66.4639 198.018 80.1912 211.64 89.6917 227.167C122.746 281.181 99.3798 347.79 63.5703 400.531C46.7816 425.267 27.277 448.898 14.3101 475.205C1.34325 501.511 -4.65133 531.755 6.6959 558.664C17.9345 585.315 44.7274 605.294 73.7522 619.36C132.701 647.937 202.137 656.11 269.894 660.749C419.838 670.995 570.572 666.563 720.91 662.111C776.55 660.473 832.427 658.804 887.158 650.207C917.556 645.429 948.931 637.848 971.003 619.548C999.011 596.321 1005.95 556.995 987.18 527.876C955.696 479.015 868.671 466.883 846.638 414.459C834.531 385.596 846.964 353.456 864.573 326.696C902.337 269.277 965.631 218.905 968.959 153.283C971.25 108.212 940.823 63.0721 893.775 41.741C844.466 19.3832 776.076 22.1965 739.713 59.2027C702.235 97.2651 636.403 111.924 579.963 109.959Z" fill="#84CC16"/>
<path d="M528.697 357.297L498.485 336.905L513.724 314.194L433.928 307.825L405.255 330.023L369.361 309.878L339.425 313.483L339.07 305.583C338.7 297.347 337.873 289.139 336.595 280.995C336.723 278.526 336.812 275.692 336.802 272.611C336.802 259.626 335.046 242.415 327.333 230.94L329.108 214.963L314.707 197.929C317.02 193.317 319.657 188.876 322.598 184.638C323.091 183.927 323.585 183.236 324.117 182.564C342.809 181.211 357.555 165.827 357.555 147.015C357.555 146.146 357.555 145.277 357.456 144.418C357.456 144.073 357.387 143.717 357.348 143.372C359.172 144.359 361.017 145.347 362.861 146.334C363.207 146.828 363.601 147.321 364.035 147.904L364.124 148.013L364.676 148.694L364.854 148.901C365.051 149.138 365.258 149.366 365.465 149.603L365.603 149.761C366.126 150.343 366.679 150.936 367.27 151.518C367.341 151.576 367.407 151.638 367.468 151.706L368.207 152.397L368.415 152.585C369.046 153.148 369.716 153.691 370.387 154.204L370.604 154.362L371.452 154.945L371.729 155.122C372.054 155.32 372.389 155.527 372.715 155.715L372.833 155.784C373.218 155.991 373.613 156.189 374.007 156.377L374.204 156.456C374.54 156.6 374.869 156.739 375.191 156.87L375.497 156.979C375.842 157.097 376.177 157.206 376.532 157.305L376.749 157.364C377.183 157.473 377.617 157.562 378.061 157.631H378.11C378.528 157.698 378.95 157.741 379.373 157.759H379.659C380.037 157.779 380.415 157.779 380.793 157.759H381.04C381.513 157.732 381.984 157.676 382.45 157.591C384.657 157.301 386.776 156.54 388.664 155.359C389.145 155.038 389.571 154.641 389.927 154.184C391.9 151.597 389.73 148.763 389.73 148.763C388.96 146.926 383.969 145.633 383.969 145.633C383.969 145.633 368.188 139.037 368.188 133.783C368.188 128.53 364.242 101.276 323.516 95.0449C323.516 95.0449 297.022 93.5538 289.575 107.754L289.417 109.413C287.228 110.785 285.413 113.54 283.253 114.35C282.319 114.551 281.419 114.883 280.579 115.337V115.15C280.33 115.368 280.126 115.633 279.978 115.93C279.514 116.854 279.236 117.861 279.159 118.892C278.937 120.152 278.5 121.365 277.867 122.477C277.691 122.793 277.493 123.096 277.275 123.385L277.108 123.652C278.253 123.741 279.403 123.555 280.461 123.109C280.294 124.461 279.963 125.787 279.475 127.059C280.102 127.079 280.721 126.918 281.26 126.596C281.799 126.274 282.233 125.804 282.513 125.242V125.163L282.641 124.985C282.889 124.528 283.094 124.048 283.253 123.553L283.144 123.672C283.341 123.03 283.519 122.378 283.736 121.746C283.835 121.39 283.999 121.055 284.219 120.759C284.482 120.493 284.804 120.293 285.159 120.174C285.514 120.056 285.891 120.023 286.261 120.077L285.857 128.639H286.034C285.796 129.261 285.506 129.863 285.166 130.436C283.765 132.707 281.221 134.257 280.284 136.746C279.88 137.946 279.725 139.216 279.83 140.478C279.83 141.219 279.919 141.969 279.978 142.71V142.651C280.116 144.626 280.155 146.502 279.09 148.092C278.36 149.178 277.186 149.998 276.782 151.232C276.67 151.576 276.62 151.937 276.634 152.298C276.713 153.38 276.939 154.447 277.305 155.468C277.309 155.449 277.309 155.428 277.305 155.409C277.551 156.16 277.608 156.96 277.472 157.739C277.029 159.714 274.632 161.363 274.75 163.249C274.743 163.497 274.78 163.745 274.859 163.98C275.32 164.901 276.118 165.609 277.088 165.955C278.609 166.821 280.355 167.206 282.098 167.061C282.752 166.943 283.384 166.726 283.973 166.419C283.282 168.009 282.572 169.579 281.852 171.07C281.743 171.307 281.625 171.544 281.507 171.781C281.507 171.781 275.411 167.703 271.949 176.017C270.938 177.745 270.215 179.626 269.809 181.587C269.635 182.371 269.391 183.138 269.079 183.878C267.542 186.483 265.241 188.551 262.49 189.802C255.427 193.041 226.902 228.659 226.399 237.882C226.152 241.482 225.544 245.049 224.584 248.527C222.339 256.719 221.762 265.278 222.888 273.698C223.24 276.419 223.824 279.104 224.633 281.726C227.662 290.939 229.684 308.131 229.684 308.131L232.958 337.972C232.837 342.091 233.015 346.213 233.491 350.305C230.147 354.127 216.723 370.055 221.852 374.39C225.797 377.806 232.702 377.244 236.578 376.542C233.313 384.63 228.174 398.691 227.494 408.349C226.507 422.637 229.181 441.567 233.412 448.835C237.643 456.103 251.748 474.746 251.748 474.746C251.748 474.746 251.087 500.322 256.128 509.614C261.168 518.906 263.2 538.181 263.2 538.181C263.2 538.181 267.905 554.455 265.547 560.439C263.19 566.423 269.917 571.4 262.855 575.379C255.792 579.359 246.757 669.05 246.757 669.05C246.757 669.05 243.118 727.834 246.757 730.826C246.952 730.968 247.16 731.09 247.379 731.192V750.941C247.379 750.941 244.854 755.088 255.122 755.928C262.154 756.491 282.089 757.764 293.915 758.505L303.078 759.078C303.078 759.078 324.778 763.403 334.365 759.078C343.953 754.753 360.948 754.851 358.423 743.426C358.088 741.872 357.64 740.343 357.081 738.854C354.31 731.764 349.605 730.955 340.935 728.98C340.432 728.871 339.948 728.772 339.504 728.693C330.371 727.104 327.372 731.359 322.253 725.82C317.805 721.031 303.641 715.669 298.817 713.97C298.936 713.615 299.084 713.269 299.202 712.904C297.836 712.672 296.566 712.051 295.543 711.116L308.612 711.946L316.394 712.43C316.394 712.43 334.839 716.113 343.026 712.43C351.212 708.746 365.613 708.845 363.463 699.138C363.18 697.816 362.801 696.515 362.329 695.248C359.971 689.224 355.967 688.563 348.599 686.894C348.174 686.805 347.78 686.716 347.385 686.647C339.623 685.294 337.078 688.908 332.728 684.208C329 680.199 317.233 675.706 313.001 674.175C313.001 671.983 310.042 668.863 308.178 665.732C305.988 662.079 310.032 649.291 310.032 649.291L312.34 596.234C313.219 595.842 314.149 595.577 315.102 595.444C315.102 595.444 325.538 585.471 323.18 574.846C322.7 571.632 322.449 568.388 322.431 565.139C325.863 561.949 330.588 557.239 331.929 554.336C334.119 549.606 331.929 526.687 331.929 526.687V439.049L349.388 440.817L365.229 442.446L370.052 442.94L385.893 444.54L422.299 448.223L455.105 442.002L469.299 439.316L498.485 433.786V362.293L528.697 357.297ZM288.411 120.393L286.379 120.176C287.05 120.206 287.76 120.334 288.411 120.393Z" fill="url(#paint0_linear_44_1963)"/>
<path d="M457.856 403.452C448.037 417.454 412.736 410.037 412.736 410.037L385.38 384.527L381.697 381.073L387.874 368C387.874 368 389.838 368.538 393.206 369.497C410.89 374.615 466.144 391.68 457.856 403.452Z" fill="#EFB7B9"/>
<path opacity="0.1" d="M393.697 369.54C392.436 373.848 388.979 380.3 385.543 385L381.697 381.447L388.149 368C388.149 368 390.22 368.554 393.697 369.54Z" fill="black"/>
<path d="M298.862 220.414C298.862 220.414 273.497 231.637 274.742 259.195C275.637 276.95 277.576 294.637 280.549 312.165C280.549 312.165 275.364 353.636 296.956 364.327C318.547 375.017 338.529 383.806 338.529 383.806C338.529 383.806 372.309 387.432 376.507 388.93C380.705 390.427 393.822 367.529 391.402 363.962C388.982 360.395 357.977 352.917 354.026 346.966C350.075 341.015 340.939 337.339 340.939 337.339C340.939 337.339 331.506 331.644 330.864 326.501C330.222 321.358 332.711 317.525 333.343 315.269C333.975 313.012 335.576 291.227 335.576 291.227C335.576 291.227 346.223 213.684 298.862 220.414Z" fill="#DCE6F2"/>
<path opacity="0.1" d="M315.697 311C315.697 311 280.525 316.826 283.929 329C283.929 329 296.698 315.858 315.697 311Z" fill="black"/>
<path opacity="0.1" d="M315.697 316C315.697 316 296.414 331.195 300.187 331.974C303.96 332.752 315.697 316 315.697 316Z" fill="black"/>
<path opacity="0.1" d="M324.497 322C324.497 322 319.712 332.689 322.653 331.965C325.594 331.241 324.497 322 324.497 322Z" fill="black"/>
<path opacity="0.1" d="M393.959 370.132L391.85 369.53C392.451 367.556 392.619 365.957 392.126 365.216C389.712 361.643 358.803 354.162 354.871 348.19C350.94 342.218 341.816 338.547 341.816 338.547C341.816 338.547 332.406 332.842 331.766 327.689C331.125 322.537 333.608 318.697 334.239 316.437C334.869 314.177 336.466 292.343 336.466 292.343C336.466 292.343 347.058 214.673 299.812 221.415C299.812 221.415 274.509 232.667 275.741 260.274C276.634 278.061 278.572 295.779 281.544 313.338C281.544 313.338 276.371 354.882 297.91 365.591C319.449 376.301 339.382 385.105 339.382 385.105C339.382 385.105 373.07 388.728 377.267 390.238C378.854 390.81 381.721 387.859 384.529 383.802L386.125 385.293L413.576 411.015C413.576 411.015 448.998 418.507 458.851 404.382C467.177 392.498 411.743 375.284 393.959 370.132Z" fill="black"/>
<path d="M284.659 116.583C283.69 116.769 282.761 117.12 281.916 117.622C280.926 118.428 280.926 119.806 280.678 121.01C280.387 122.684 279.71 124.271 278.697 125.65C279.824 125.731 280.955 125.548 281.995 125.116C281.826 126.445 281.493 127.748 281.005 128.999C281.622 129.014 282.23 128.855 282.757 128.54C283.284 128.225 283.707 127.767 283.976 127.223C284.5 126.129 284.915 124.988 285.214 123.815C285.307 123.465 285.468 123.135 285.689 122.844C286.6 121.786 288.294 122.262 289.7 122.398C290.871 122.495 292.046 122.283 293.105 121.784C294.163 121.286 295.067 120.519 295.722 119.563C297.217 117.34 297.306 111.652 293.741 111.05C290.017 110.448 287.7 115.476 284.659 116.583Z" fill="#965D7B"/>
<g opacity="0.1">
<path opacity="0.1" d="M281.415 119.596C281.512 119.071 281.578 118.525 281.697 118C280.665 118.889 280.61 120.4 280.339 121.739C280.202 122.512 279.987 123.269 279.697 124C280.553 122.655 281.136 121.16 281.415 119.596Z" fill="black"/>
<path opacity="0.1" d="M282.062 127.993C282.567 126.708 282.907 125.367 283.076 124C282.061 124.421 280.962 124.608 279.863 124.549C279.543 125.251 279.152 125.92 278.697 126.545C279.846 126.633 281 126.448 282.062 126.006C281.894 127.374 281.553 128.715 281.049 129.999C281.68 130.014 282.302 129.849 282.841 129.525C283.38 129.202 283.813 128.732 284.089 128.172C284.342 127.719 284.545 127.24 284.697 126.745C284.4 127.154 284.003 127.483 283.542 127.701C283.081 127.919 282.572 128.02 282.062 127.993Z" fill="black"/>
<path opacity="0.1" d="M290.691 121.601C289.207 121.452 287.41 120.932 286.449 122.089C286.221 122.409 286.051 122.769 285.948 123.151C285.854 123.427 285.77 123.713 285.697 124C286.69 123.204 288.298 123.628 289.646 123.766C290.88 123.869 292.119 123.636 293.235 123.091C294.351 122.546 295.304 121.71 295.997 120.667C296.314 120.151 296.55 119.589 296.697 119C295.982 119.9 295.06 120.607 294.013 121.061C292.966 121.514 291.825 121.7 290.691 121.601Z" fill="black"/>
</g>
<path d="M313.761 198L328.697 215.917L326.748 234L308.697 205.815L313.761 198Z" fill="#DCE6F2"/>
<path opacity="0.1" d="M328.697 215.917L326.865 232.925L326.747 234L310.451 208.561L308.697 205.815L309.207 205.024L313.754 198L314.763 199.211L328.697 215.917Z" fill="black"/>
<path d="M337.095 173.775C331.998 175.246 327.128 180.293 322.891 186.423C320.026 190.652 317.465 195.081 315.226 199.676C313.833 202.478 312.608 205.171 311.591 207.515L310.879 209.184C309.161 213.268 308.203 216 308.203 216C308.203 216 269.186 186.492 275.36 184.505C277.434 183.84 280.16 179.369 282.857 173.736L283.192 173.02C284.901 169.404 286.581 165.37 288.072 161.575C291.124 153.776 293.386 147 293.386 147C293.386 147 352.652 169.305 337.095 173.775Z" fill="#EFB7B9"/>
<path d="M360.697 146C360.697 146 369.63 161.974 381.629 159.796C393.628 157.618 388.691 151.218 388.691 151.218L360.697 146Z" fill="#444053"/>
<path d="M343.431 709.383C335.431 713.021 317.341 709.383 317.341 709.383L309.717 708.91C299.816 708.279 283.242 707.215 277.38 706.742C268.826 706.042 270.925 702.552 270.925 702.552V681.468L312.43 671C312.43 671 328.836 676.589 333.332 681.468C337.599 686.121 340.094 682.543 347.708 683.883C348.084 683.952 348.48 684.031 348.896 684.13C356.124 685.776 360.045 686.426 362.362 692.39C362.827 693.643 363.201 694.928 363.48 696.234C365.619 705.835 351.421 705.766 343.431 709.383Z" fill="#A36468"/>
<path opacity="0.1" d="M361.697 692.497C360.221 693.422 358.669 694.219 357.058 694.88C351.652 697.352 346.511 700.365 341.046 702.698C335.581 705.032 329.693 706.696 323.776 706.253C320.679 706.026 317.514 705.268 314.556 706.154C312.726 706.862 311.003 707.82 309.435 709C299.605 708.37 283.151 707.306 277.332 706.834C268.839 706.135 270.923 702.649 270.923 702.649V700.187C271.228 700.187 271.572 700.099 271.965 700.069C273.999 700.037 276.025 700.339 277.961 700.965C282.227 702.127 286.473 703.269 290.739 704.412C291.09 703.085 291.707 701.844 292.552 700.764C293.396 699.684 294.452 698.788 295.654 698.13C298.089 696.835 300.821 696.206 303.576 696.308C310.191 696.397 316.453 699.538 323.058 699.853C324.905 700.023 326.764 699.711 328.454 698.947C329.359 698.494 330.155 697.834 331.039 697.332C332.455 696.646 333.951 696.14 335.492 695.826C339.824 694.745 344.077 693.37 348.221 691.71C349.401 691.247 350.777 690.41 350.62 689.15C350.413 687.476 347.789 687.279 347.101 685.743C346.979 685.466 346.923 685.164 346.937 684.862C346.95 684.56 347.033 684.265 347.179 684C347.553 684.069 347.946 684.148 348.359 684.246C355.505 685.891 359.397 686.54 361.697 692.497Z" fill="black"/>
<path d="M333.932 756.102C324.562 760.373 303.358 756.102 303.358 756.102L294.432 755.58C282.873 754.842 263.404 753.612 256.53 753.031C246.499 752.205 248.965 748.111 248.965 748.111V723.301L297.618 711C297.618 711 316.85 717.564 322.116 723.301C327.117 728.763 330.006 724.561 338.972 726.136C339.415 726.214 339.879 726.313 340.362 726.421C348.834 728.389 353.43 729.127 356.142 736.134C356.692 737.605 357.13 739.115 357.454 740.651C359.9 751.929 343.301 751.841 333.932 756.102Z" fill="#A36468"/>
<path opacity="0.1" d="M356.697 735.816C354.945 736.887 353.104 737.813 351.194 738.583C344.779 741.447 338.671 744.942 332.186 747.65C325.702 750.359 318.711 752.282 311.681 751.777C308.013 751.515 304.255 750.612 300.774 751.66C298.594 752.492 296.542 753.616 294.677 755C283.056 754.272 263.483 753.058 256.572 752.485C246.488 751.67 248.967 747.631 248.967 747.631V744.777C249.377 744.711 249.791 744.666 250.206 744.641C252.622 744.598 255.028 744.949 257.325 745.68L272.486 749.68C272.908 748.137 273.647 746.694 274.658 745.441C275.669 744.187 276.931 743.148 278.366 742.388C281.256 740.88 284.503 740.149 287.775 740.272C295.628 740.379 303.055 744.019 310.898 744.388C313.082 744.583 315.281 744.226 317.284 743.35C318.364 742.816 319.267 742.049 320.357 741.476C322.034 740.672 323.811 740.084 325.642 739.728C330.756 738.465 335.777 736.869 340.674 734.951C342.072 734.408 343.708 733.437 343.52 731.981C343.272 730.039 340.158 729.806 339.335 728.019C339.197 727.697 339.134 727.348 339.151 726.999C339.168 726.649 339.265 726.308 339.435 726C339.881 726.078 340.347 726.175 340.833 726.282C349.35 728.146 353.971 728.903 356.697 735.816Z" fill="black"/>
<path d="M313.414 585L310.748 646.949C310.748 646.949 306.755 659.599 308.921 663.218C311.088 666.836 314.742 670.445 313.414 672.585C312.086 674.724 296.112 697.855 290.951 688.981C285.789 680.108 280.697 641.654 280.697 641.654L285.46 594.16L313.414 585Z" fill="#444053"/>
<path d="M324.451 430L331.749 439.762V524.669C331.749 524.669 333.883 547.302 331.749 551.977C329.614 556.651 318.795 566 318.795 566L309.697 519.256L311.664 469.806L324.451 430Z" fill="#444053"/>
<path opacity="0.1" d="M313.414 585L310.748 646.949C310.748 646.949 306.755 659.599 308.921 663.218C311.088 666.836 314.742 670.445 313.414 672.585C312.086 674.724 296.112 697.855 290.951 688.981C285.789 680.108 280.697 641.654 280.697 641.654L285.46 594.16L313.414 585Z" fill="black"/>
<path opacity="0.1" d="M324.451 430L331.749 439.762V524.669C331.749 524.669 333.883 547.302 331.749 551.977C329.614 556.651 318.795 566 318.795 566L309.697 519.256L311.664 469.806L324.451 430Z" fill="black"/>
<path d="M331.697 393.682V439.733L323.492 475.582C323.492 475.582 320.862 562.09 323.157 572.609C325.452 583.127 315.277 593.005 315.277 593.005C315.277 593.005 309.367 593.666 309.367 598.264C309.367 602.862 299.516 616.026 299.516 616.026L299.841 641.681C299.841 641.681 304.116 689.706 297.546 698.912C290.976 708.119 299.841 709.441 299.841 709.441C291.636 736.409 252.235 730.162 248.679 727.202C245.123 724.242 248.679 666.024 248.679 666.024C248.679 666.024 257.485 577.217 264.38 573.27C271.275 569.323 264.715 564.389 267.01 558.469C269.305 552.548 264.715 536.435 264.715 536.435C264.715 536.435 262.745 517.351 257.82 508.145C252.895 498.938 253.545 473.608 253.545 473.608C253.545 473.608 239.754 455.186 235.656 447.953C231.559 440.72 228.919 421.972 229.904 407.822C230.574 398.26 235.587 384.337 238.769 376.325C240.296 372.487 241.399 370 241.399 370L242.335 370.247L296.138 384.357L331.697 393.682Z" fill="#444053"/>
<path opacity="0.1" d="M337.076 173.51C331.944 174.962 327.039 179.946 322.772 186H321.658C315.403 186.004 309.257 184.38 303.843 181.291C298.428 178.202 293.936 173.758 290.821 168.408C289.519 166.192 288.471 163.839 287.697 161.393C290.771 153.691 293.049 147 293.049 147C293.049 147 352.744 169.095 337.076 173.51Z" fill="black"/>
<path d="M357.697 149.485C357.706 154.912 356.468 160.268 354.077 165.142C351.687 170.015 348.208 174.275 343.91 177.595C339.611 180.914 334.607 183.203 329.283 184.286C323.959 185.37 318.457 185.218 313.201 183.843C307.945 182.467 303.075 179.905 298.967 176.354C294.858 172.803 291.621 168.357 289.503 163.359C287.386 158.361 286.446 152.945 286.755 147.527C287.064 142.108 288.613 136.833 291.285 132.108C292.361 130.188 293.618 128.374 295.038 126.692C297.38 123.906 300.132 121.491 303.201 119.531C308.384 116.242 314.333 114.351 320.466 114.044C326.599 113.738 332.707 115.025 338.193 117.782C343.68 120.538 348.356 124.668 351.766 129.77C355.176 134.871 357.202 140.769 357.648 146.886C357.667 147.759 357.697 148.622 357.697 149.485Z" fill="#EFB7B9"/>
<path opacity="0.1" d="M327.697 233.908L327.578 235L311.067 209.183C309.339 213.264 308.376 215.995 308.376 215.995C308.376 215.995 269.158 186.464 275.363 184.479C277.448 183.813 280.188 179.345 282.899 173.715L283.236 173C286.116 181.579 302.846 198.727 309.806 205.599C310.61 206.393 311.275 207.048 311.791 207.525L312.854 208.518L313.41 209.074C315.942 211.685 326.625 223.204 327.697 233.908Z" fill="black"/>
<path d="M338.697 320.899L336.905 378.706L336.59 389C336.59 389 315.356 387.026 295.541 384.855C279.586 383.108 264.547 381.223 262.233 380.117C259.278 378.726 252.946 377.65 247.952 376.969C244.092 376.446 241.058 376.169 241.058 376.169C241.058 376.169 239.926 376.505 238.182 376.821C234.381 377.512 227.704 378.074 223.813 374.689C218.84 370.356 231.909 354.614 235.169 350.834L235.888 350.014L234.657 338.615L231.456 309.055C231.456 309.055 229.486 292.03 226.532 282.9C225.742 280.305 225.172 277.647 224.828 274.955C223.73 266.617 224.292 258.143 226.482 250.024C227.418 246.574 228.012 243.04 228.255 239.473C228.748 230.344 256.57 195.059 263.464 191.852C266.565 190.402 269.061 187.909 270.515 184.805C270.996 183.829 271.356 182.798 271.589 181.735C274.544 168.905 282.019 173.997 282.019 173.997C283.821 184.035 311.722 210.604 311.722 210.604L312.273 211.157C315.041 213.999 327.371 227.343 326.495 238.733C326.32 242.972 326.951 247.206 328.356 251.208C334.032 269.117 337.294 287.705 338.057 306.479L338.697 320.899Z" fill="#DCE6F2"/>
<path opacity="0.1" d="M299.486 252C299.486 252 292.669 268.578 287.556 271.259C282.444 273.941 301.92 276.915 299.486 252Z" fill="black"/>
<path opacity="0.1" d="M305.697 284C305.697 284 289.697 286.115 289.697 289.288C289.697 292.461 305.697 284 305.697 284Z" fill="black"/>
<path opacity="0.1" d="M321.697 303C321.697 303 298.851 351.499 292.464 352.969C286.077 354.439 321.697 303 321.697 303Z" fill="black"/>
<path opacity="0.1" d="M311.697 212.821L292.667 221L269.697 186.701C270.18 185.734 270.542 184.712 270.776 183.658C273.745 170.941 281.256 175.989 281.256 175.989C283.067 185.938 311.103 212.274 311.103 212.274L311.697 212.821Z" fill="black"/>
<path d="M312.697 210.821L293.667 219L270.697 184.701C271.18 183.734 271.542 182.712 271.776 181.658C274.745 168.941 282.256 173.989 282.256 173.989C284.067 183.938 312.103 210.274 312.103 210.274L312.697 210.821Z" fill="#DCE6F2"/>
<path opacity="0.1" d="M337.382 389.1C337.382 389.1 316.143 387.126 296.323 384.955L331.885 394.281V405.136C330.329 406.547 328.979 407.277 328.102 406.902C324.004 405.175 290.56 399.748 290.56 399.748C290.56 399.748 271.134 389.879 250.171 378.037C249.662 377.755 249.169 377.445 248.693 377.11C246.249 375.447 244.143 373.334 242.487 370.883C238.615 365.267 236.724 358.054 235.906 350.978C235.447 346.923 235.276 342.84 235.394 338.761C235.496 334.135 235.917 329.522 236.655 324.955C234.628 307.265 233.641 289.471 233.7 271.665C233.946 244.034 259.805 234.165 259.805 234.165C307.336 229.971 292.599 306.945 292.599 306.945C292.599 306.945 289.851 328.656 289.102 330.876C288.353 333.096 285.664 336.797 286.029 341.978C286.393 347.159 295.476 353.356 295.476 353.356C295.476 353.356 304.342 357.521 307.996 363.689C310.656 368.238 327.935 374.406 337.697 378.807L337.382 389.1Z" fill="black"/>
<path opacity="0.1" d="M352.697 127.135C352.715 128.774 352.378 130.397 351.711 131.89C351.206 133.109 350.62 134.293 349.957 135.432C348.919 137.528 347.447 139.374 345.64 140.844C343.363 142.485 340.485 142.943 337.755 143.609C335.025 144.276 332.187 145.34 330.63 147.688C329.786 149.197 329.221 150.849 328.964 152.562C328.703 154.274 328.026 155.894 326.993 157.278C326.455 157.953 325.71 158.429 324.876 158.631C324.041 158.832 323.163 158.748 322.381 158.392C321.556 157.831 320.931 157.019 320.597 156.074C319.473 153.517 319.187 150.682 318.734 147.927C318.281 145.171 317.64 142.336 315.965 140.117C314.289 137.899 311.323 136.437 308.691 137.302C307.81 137.644 307.007 138.163 306.33 138.826C305.652 139.489 305.115 140.284 304.749 141.162C304.021 142.92 303.52 144.766 303.261 146.653C302.039 153.405 300.596 160.116 298.934 166.788C298.883 167.062 298.772 167.32 298.609 167.544C298.347 167.808 297.993 167.958 297.623 167.962C295.416 168.26 293.297 166.699 291.069 166.868C290.84 166.883 290.612 166.92 290.389 166.977C286.788 160.66 285.198 153.378 285.834 146.117C286.471 138.857 289.303 131.97 293.947 126.389L294.125 126.339C295.606 125.809 296.953 124.952 298.067 123.833C299.49 122.395 300.807 120.856 302.009 119.227L302.798 118.232C305.063 115.477 307.643 113.003 310.485 110.86C311.261 110.219 312.15 109.733 313.106 109.428C313.925 109.267 314.763 109.24 315.59 109.348C318.994 109.761 322.425 109.89 325.85 109.736C328.236 109.358 330.641 109.112 333.054 109C339.293 109.179 344.615 113.626 348.557 118.5C350.676 120.997 352.568 123.872 352.697 127.135Z" fill="black"/>
<path d="M285.836 132.632C284.47 134.894 282.003 136.432 281.08 138.912C279.724 142.513 282.013 146.997 279.91 150.211C279.213 151.292 278.063 152.096 277.67 153.336C277.002 155.429 278.83 157.661 278.358 159.814C277.886 161.966 275.076 163.782 275.823 165.885C276.264 166.802 277.038 167.512 277.984 167.869C279.473 168.731 281.187 169.115 282.898 168.97C285.58 168.524 287.575 165.865 290.297 165.667C292.507 165.508 294.62 167.055 296.821 166.768C297.19 166.755 297.541 166.603 297.804 166.341C297.971 166.12 298.082 165.861 298.128 165.587C299.779 158.941 301.22 152.248 302.451 145.509C302.702 143.626 303.198 141.785 303.925 140.033C304.293 139.159 304.83 138.368 305.505 137.707C306.18 137.046 306.979 136.528 307.856 136.183C310.479 135.33 313.427 136.779 315.107 138.991C316.788 141.203 317.426 144.03 317.878 146.778C318.33 149.526 318.615 152.354 319.726 154.903C320.063 155.849 320.689 156.661 321.514 157.224C322.988 158.087 324.973 157.403 326.103 156.113C327.138 154.733 327.814 153.113 328.068 151.401C328.324 149.696 328.887 148.052 329.729 146.55C331.281 144.209 334.121 143.148 336.833 142.483C339.545 141.818 342.404 141.352 344.694 139.715C346.493 138.251 347.961 136.414 348.998 134.328C350.452 131.769 351.808 128.991 351.69 126.045C351.562 122.831 349.676 119.964 347.661 117.464C343.731 112.603 338.415 108.169 332.195 108C329.789 108.102 327.39 108.347 325.012 108.734C321.598 108.889 318.176 108.756 314.783 108.337C313.958 108.238 313.123 108.268 312.307 108.427C311.353 108.721 310.467 109.207 309.703 109.855C306.867 111.988 304.291 114.452 302.029 117.196C300.57 119.149 298.988 121.004 297.293 122.751C296.182 123.87 294.839 124.727 293.362 125.261C292.38 125.539 291.397 125.341 290.464 125.648C287.565 126.571 287.182 130.39 285.836 132.632Z" fill="#965D7B"/>
<path opacity="0.1" d="M381.633 159.794C373.796 161.218 367.3 154.951 363.705 150.378C362.601 148.99 361.596 147.527 360.697 146L387.599 151.018L388.687 151.221C388.687 151.221 393.634 157.624 381.633 159.794Z" fill="black"/>
<g opacity="0.1">
<path opacity="0.1" d="M278.663 156.475C278.79 155.292 278.565 154.101 278.006 153C278.006 153.09 277.904 153.181 277.87 153.271C277.382 154.484 278.04 155.742 278.459 157C278.549 156.831 278.617 156.655 278.663 156.475Z" fill="black"/>
<path opacity="0.1" d="M280.757 141C280.656 142.333 280.683 143.672 280.836 145C280.937 143.667 280.911 142.328 280.757 141Z" fill="black"/>
<path opacity="0.1" d="M348.997 131.387C347.963 133.473 346.495 135.311 344.693 136.774C342.423 138.408 339.563 138.863 336.831 139.527C334.099 140.19 331.278 141.25 329.726 143.587C328.885 145.09 328.323 146.734 328.065 148.439C327.809 150.147 327.133 151.764 326.099 153.143C324.969 154.43 322.984 155.123 321.51 154.252C320.685 153.69 320.059 152.878 319.721 151.934C318.611 149.39 318.316 146.577 317.874 143.824C317.431 141.072 316.773 138.259 315.102 136.051C313.431 133.843 310.473 132.387 307.849 133.249C306.972 133.591 306.172 134.107 305.497 134.767C304.821 135.427 304.285 136.218 303.918 137.091C303.191 138.84 302.695 140.678 302.444 142.557C301.219 149.284 299.778 155.965 298.12 162.599C298.074 162.873 297.963 163.131 297.796 163.352C297.533 163.613 297.182 163.765 296.813 163.778C294.612 164.065 292.499 162.52 290.288 162.679C287.565 162.877 285.57 165.53 282.887 165.966C281.176 166.121 279.459 165.737 277.974 164.867C277.291 164.571 276.678 164.132 276.175 163.58C275.945 163.911 275.793 164.291 275.73 164.691C275.667 165.091 275.695 165.5 275.812 165.887C276.244 166.809 277.022 167.521 277.974 167.867C279.459 168.737 281.176 169.121 282.887 168.967C285.57 168.531 287.565 165.877 290.288 165.679C292.499 165.521 294.612 167.065 296.813 166.778C297.182 166.765 297.533 166.613 297.796 166.352C297.963 166.132 298.074 165.873 298.12 165.6C299.771 158.998 301.213 152.317 302.444 145.557C302.695 143.678 303.191 141.84 303.918 140.091C304.285 139.218 304.821 138.428 305.497 137.768C306.172 137.108 306.972 136.591 307.849 136.249C310.473 135.388 313.422 136.843 315.102 139.051C316.783 141.26 317.421 144.082 317.874 146.825C318.326 149.568 318.611 152.39 319.721 154.935C320.059 155.879 320.685 156.69 321.51 157.252C322.984 158.114 324.969 157.43 326.099 156.143C327.133 154.765 327.809 153.148 328.065 151.439C328.323 149.734 328.885 148.09 329.726 146.587C331.278 144.25 334.118 143.201 336.831 142.527C339.543 141.854 342.403 141.408 344.693 139.774C346.495 138.311 347.963 136.474 348.997 134.387C350.452 131.843 351.808 129.07 351.69 126.129C351.671 125.751 351.631 125.374 351.572 125C351.098 127.266 350.226 129.429 348.997 131.387Z" fill="black"/>
</g>
<path opacity="0.1" d="M352.301 132.226C354.835 136.762 356.336 141.808 356.697 147C347.895 142.025 339.617 136.563 335.438 134.663C328.158 131.35 300.932 131.847 290.697 132.156C291.768 130.23 293.018 128.411 294.431 126.724C296.77 123.926 299.518 121.504 302.581 119.54C306.638 116.948 311.177 115.215 315.921 114.449C320.665 113.683 325.515 113.899 330.173 115.084C334.831 116.27 339.2 118.4 343.014 121.343C346.827 124.287 350.004 127.983 352.351 132.206L352.301 132.226Z" fill="black"/>
<path opacity="0.1" d="M384.006 155.62C379.309 157.043 371.644 154.292 363.695 150.348C362.594 148.969 361.593 147.516 360.697 146L387.512 150.983C389.289 152.176 389.738 153.878 384.006 155.62Z" fill="black"/>
<path d="M323.582 98.0446C323.582 98.0446 297.569 96.569 290.255 110.588L289.076 123.012L287.094 122.796L286.697 131.246C286.697 131.246 326.456 129.525 335.504 133.578C344.552 137.631 372.666 158.054 383.934 154.611C395.202 151.168 382.943 147.97 382.943 147.97C382.943 147.97 367.434 141.448 367.434 136.333C367.434 131.217 363.589 104.193 323.582 98.0446Z" fill="#444053"/>
<path opacity="0.1" d="M273.697 560C273.697 560 290.447 576.176 297.697 574.932C297.697 574.932 277.197 573.19 273.697 560Z" fill="black"/>
<path opacity="0.1" d="M270.697 568C270.697 568 272.086 576.804 275.788 575.94C279.49 575.077 270.697 568 270.697 568Z" fill="black"/>
<path opacity="0.1" d="M295.697 706C295.697 706 272.183 724.491 276.148 724.991C280.113 725.49 295.697 706 295.697 706Z" fill="black"/>
<path d="M327.697 343.375L403.697 331V403L331.487 399.217L327.697 343.375Z" fill="#84CC16"/>
<path opacity="0.05" d="M327.697 343.375L403.697 331V403L331.487 399.217L327.697 343.375Z" fill="black"/>
<path d="M403.697 331L494.697 337.825L489.661 400.481L403.697 403V331Z" fill="#84CC16"/>
<path opacity="0.1" d="M403.697 331L494.697 337.825L489.661 400.481L403.697 403V331Z" fill="black"/>
<path d="M431.709 309L403.697 331.128L494.808 338L509.697 315.355L431.709 309Z" fill="#84CC16"/>
<path d="M299.697 319.249L368.436 311L403.697 330.753L327.343 343L299.697 319.249Z" fill="#84CC16"/>
<path d="M420.697 349.335V448L384.965 444.337L369.422 442.753L364.687 442.259L349.154 440.665L327.697 438.467V343L403.966 348.187L420.697 349.335Z" fill="#84CC16"/>
<path d="M495.697 337V432.729L466.964 438.195L452.989 440.854L420.697 447V348.838L495.697 337Z" fill="#84CC16"/>
<path opacity="0.05" d="M495.697 337V432.729L466.964 438.195L452.989 440.854L420.697 447V348.838L495.697 337Z" fill="black"/>
<path d="M299.697 363.499L327.174 343L419.697 349.253L406.077 372L299.697 363.499Z" fill="#84CC16"/>
<path opacity="0.1" d="M299.697 363.499L327.174 343L419.697 349.253L406.077 372L299.697 363.499Z" fill="white"/>
<path d="M495.162 337L420.697 349.013L444.933 371L524.697 357.448L495.162 337Z" fill="#84CC16"/>
<path opacity="0.1" d="M495.162 337L420.697 349.013L444.933 371L524.697 357.448L495.162 337Z" fill="white"/>
<path opacity="0.1" d="M466.697 439.31L452.697 442V421.308L465.811 418L466.697 439.31Z" fill="white"/>
<path opacity="0.1" d="M383.697 430V444L368.697 442.37V430H383.697Z" fill="white"/>
<path opacity="0.1" d="M363.697 435V442L348.697 440.458V435H363.697Z" fill="white"/>
<path opacity="0.1" d="M410.718 423.623C400.136 437.243 365.19 427.833 365.19 427.833L339.221 400.572L335.697 396.877L342.588 384C342.588 384 344.557 384.654 347.845 385.803C365.249 391.925 419.627 412.162 410.718 423.623Z" fill="black"/>
<path d="M409.718 421.623C399.136 435.243 364.19 425.833 364.19 425.833L338.221 398.572L334.697 394.877L341.588 382C341.588 382 343.557 382.654 346.845 383.803C364.249 389.925 418.627 410.162 409.718 421.623Z" fill="#EFB7B9"/>
<path opacity="0.1" d="M346.697 383.849C345.277 388.117 341.67 394.438 338.179 399L334.697 395.21L341.504 382C341.504 382 343.459 382.671 346.697 383.849Z" fill="black"/>
<path d="M260.842 230.169C260.842 230.169 234.946 240.04 234.7 267.677C234.641 285.487 235.629 303.285 237.659 320.979C237.659 320.979 230.26 362.188 251.224 374.033C272.187 385.878 291.67 395.748 291.67 395.748C291.67 395.748 325.162 401.177 329.276 402.904C333.39 404.632 347.684 382.423 345.465 378.721C343.245 375.02 312.752 365.89 309.132 359.721C305.511 353.551 296.593 349.396 296.593 349.396C296.593 349.396 287.498 343.187 287.133 338.005C286.768 332.823 289.451 329.122 290.21 326.901C290.97 324.68 293.722 302.965 293.722 302.965C293.722 302.965 308.441 225.925 260.842 230.169Z" fill="#DCE6F2"/>
<path opacity="0.1" d="M271.697 322C271.697 322 237.17 325.879 239.845 338C239.845 338 252.965 325.772 271.697 322Z" fill="black"/>
<path opacity="0.1" d="M272.697 327C272.697 327 252.432 341.943 256.153 342.956C259.875 343.969 272.697 327 272.697 327Z" fill="black"/>
<path opacity="0.1" d="M281.613 332C281.613 332 275.171 342.529 278.812 341.979C282.454 341.429 281.613 332 281.613 332Z" fill="black"/>
<path d="M645.951 111.049C645.951 111.049 608.698 108.779 613.051 135.209C613.051 135.209 612.179 139.878 616.365 142C616.365 142 616.433 140.017 620.188 140.701C621.525 140.929 622.884 140.995 624.236 140.9C626.07 140.776 627.812 140.048 629.197 138.828C629.197 138.828 639.677 134.456 643.755 117.126C643.755 117.126 646.774 113.339 646.696 112.367L640.402 115.094C640.402 115.094 642.549 119.684 640.853 123.501C640.853 123.501 640.657 115.262 639.441 115.451C639.196 115.451 636.177 117.047 636.177 117.047C636.177 117.047 639.873 125.037 637.079 130.857C637.079 130.857 638.137 121.002 635.02 117.622L630.589 120.239C630.589 120.239 634.912 128.497 631.981 135.239C631.981 135.239 632.736 124.899 629.658 120.873L625.638 124.036C625.638 124.036 629.707 132.185 627.227 137.777C627.227 137.777 626.903 125.741 624.766 124.829C624.766 124.829 621.256 127.962 620.727 129.251C620.727 129.251 623.501 135.199 621.776 138.282C621.776 138.282 620.717 130.262 619.815 130.222C619.815 130.222 616.316 135.536 615.953 139.145C616.122 135.781 617.16 132.52 618.962 129.687C616.945 130.073 615.084 131.048 613.61 132.493C613.61 132.493 614.149 128.735 619.825 128.408C619.825 128.408 622.766 124.373 623.491 124.125C623.491 124.125 617.845 123.649 614.423 125.186C614.423 125.186 617.433 121.647 624.531 123.203L628.452 119.932C628.452 119.932 621.021 118.94 617.864 120.041C617.864 120.041 621.492 116.908 629.52 119.188L633.834 116.581C633.834 116.581 627.501 115.193 623.727 115.698C623.727 115.698 627.707 113.527 635.099 115.877L638.187 114.479C638.187 114.479 633.54 113.557 632.187 113.408C630.834 113.26 630.756 112.883 630.756 112.883C633.695 112.388 636.713 112.731 639.471 113.874C639.471 113.874 646.088 111.465 645.951 111.049Z" fill="#84CC16"/>
<path opacity="0.1" d="M760.035 243.049C760.035 243.049 722.688 240.779 727.052 267.209C727.052 267.209 726.177 271.878 730.374 274C730.374 274 730.443 272.017 734.217 272.701C735.557 272.929 736.92 272.995 738.276 272.9C740.092 272.767 741.816 272.043 743.19 270.837C743.19 270.837 753.706 266.456 757.795 249.126C757.795 249.126 760.812 245.349 760.694 244.377L754.384 247.094C754.384 247.094 756.537 251.684 754.846 255.501C754.846 255.501 754.64 247.262 753.431 247.451C753.185 247.451 750.148 249.047 750.148 249.047C750.148 249.047 753.863 257.047 751.062 262.857C751.062 262.857 752.124 253.002 748.988 249.622L744.595 252.209C744.595 252.209 748.929 260.468 745.991 267.209C745.991 267.209 746.748 256.869 743.662 252.844L739.642 256.016C739.642 256.016 743.711 264.155 741.234 269.747C741.234 269.747 740.91 257.711 738.767 256.799C738.767 256.799 735.249 259.932 734.708 261.221C734.708 261.221 737.499 267.169 735.77 270.253C735.77 270.253 734.708 262.232 733.804 262.193C733.804 262.193 730.295 267.506 729.932 271.115C730.107 267.75 731.151 264.49 732.959 261.657C730.934 262.044 729.065 263.019 727.583 264.463C727.583 264.463 728.133 260.705 733.824 260.378C733.824 260.378 736.723 256.343 737.499 256.095C737.499 256.095 731.838 255.62 728.408 257.156C728.408 257.156 731.425 253.617 738.531 255.223L742.463 251.951C742.463 251.951 735.003 250.96 731.848 252.061C731.848 252.061 735.484 248.928 743.534 251.208L747.858 248.601C747.858 248.601 741.499 247.223 737.716 247.718C737.716 247.718 741.716 245.547 749.126 247.897L752.222 246.499C752.222 246.499 747.563 245.577 746.197 245.428C744.831 245.279 744.762 244.903 744.762 244.903C747.713 244.408 750.742 244.751 753.509 245.894C753.509 245.894 760.153 243.465 760.035 243.049Z" fill="#84CC16"/>
<path opacity="0.1" d="M532.361 219.56C532.361 219.56 541.019 182.496 514.263 182.366C514.263 182.366 509.82 180.687 507.02 184.524C507.02 184.524 508.93 184.934 507.634 188.591C507.185 189.885 506.886 191.226 506.743 192.589C506.551 194.446 506.965 196.316 507.921 197.915C507.921 197.915 510.424 209.207 526.721 216.283C526.721 216.283 529.927 219.96 530.896 220L529.313 213.215C529.313 213.215 524.425 214.584 520.962 212.215C520.962 212.215 529.105 213.424 529.115 212.215C529.115 211.965 528.126 208.658 528.126 208.658C528.126 208.658 519.626 210.996 514.382 207.189C514.382 207.189 523.891 209.947 527.76 207.399L525.979 202.482C525.979 202.482 517.073 205.41 510.978 201.303C510.978 201.303 521.021 203.841 525.514 201.443L523.089 196.866C523.089 196.866 514.382 199.544 509.306 196.096C509.306 196.096 521.18 197.835 522.466 195.856C522.466 195.856 519.992 191.789 518.815 191.03C518.815 191.03 512.522 192.809 509.751 190.54C509.751 190.54 517.815 190.85 518.003 189.99C518.003 189.99 513.382 185.563 509.86 184.564C513.143 185.319 516.174 186.924 518.656 189.221C518.62 187.127 517.981 185.088 516.816 183.355C516.816 183.355 520.418 184.554 519.784 190.35C519.784 190.35 523.248 193.948 523.356 194.767C523.356 194.767 524.791 189.181 523.871 185.474C523.871 185.474 526.839 189.111 524.039 195.956L526.572 200.503C526.572 200.503 528.868 193.208 528.284 189.851C528.284 189.851 530.748 194.028 527.116 201.702L528.947 206.489C528.947 206.489 531.391 200.353 531.549 196.496C531.549 196.496 533.004 200.873 529.412 207.898L530.263 211.236C530.263 211.236 531.965 206.729 532.341 205.39C532.717 204.051 533.103 204.041 533.103 204.041C533.088 207.081 532.235 210.057 530.639 212.635C530.639 212.635 531.935 219.61 532.361 219.56Z" fill="#84CC16"/>
<path opacity="0.1" d="M450.697 231.308C450.697 231.308 420.342 209.187 409.491 233.149C409.491 233.149 406.179 236.492 408.556 240.494C408.556 240.494 409.69 238.934 412.534 241.521C413.542 242.434 414.657 243.227 415.856 243.885C417.481 244.766 419.356 245.106 421.197 244.854C421.197 244.854 432.496 246.976 445.505 235.048C445.505 235.048 450.15 233.595 450.588 232.742L443.735 231.57C443.735 231.57 443.019 236.482 439.488 238.682C439.488 238.682 443.854 231.841 442.721 231.347C442.492 231.24 439.07 230.862 439.07 230.862C439.07 230.862 437.797 239.408 432.228 242.635C432.228 242.635 438.563 235.164 437.777 230.707L432.576 230.436C432.576 230.436 431.69 239.534 425.484 243.449C425.484 243.449 431.82 235.416 431.452 230.455L426.3 230.862C426.3 230.862 425.255 239.709 420.073 242.926C420.073 242.926 426.429 232.926 425.126 231.027C425.126 231.027 420.422 231.676 419.258 232.432C419.258 232.432 418.353 238.769 415.17 240.377C415.17 240.377 418.701 233.256 417.985 232.761C417.985 232.761 412.087 235.193 409.769 237.965C411.774 235.311 414.455 233.214 417.547 231.88C415.623 231.101 413.508 230.885 411.46 231.26C411.46 231.26 413.987 228.488 418.979 231.308C418.979 231.308 423.654 229.593 424.45 229.806C424.45 229.806 419.924 226.347 416.175 225.746C416.175 225.746 420.69 224.487 425.812 229.622L430.974 229.108C430.974 229.108 425.235 224.264 421.943 223.45C421.943 223.45 426.747 222.859 432.287 229.079L437.38 229.302C437.38 229.302 432.775 224.729 429.303 223.082C429.303 223.082 433.869 223.469 438.842 229.409L442.233 229.942C442.233 229.942 438.802 226.667 437.728 225.814C436.653 224.961 436.803 224.603 436.803 224.603C439.57 225.797 441.942 227.715 443.655 230.145C443.655 230.145 450.568 231.705 450.697 231.308Z" fill="#84CC16"/>
<path opacity="0.1" d="M550.697 22.3145C550.697 22.3145 520.342 0.178436 509.491 24.156C509.491 24.156 506.179 27.4997 508.556 31.5024C508.556 31.5024 509.69 29.942 512.534 32.5297C513.547 33.4384 514.665 34.2288 515.866 34.8848C517.491 35.7669 519.366 36.1073 521.207 35.854C521.207 35.854 532.506 37.9765 545.515 26.0362C545.515 26.0362 550.16 24.5921 550.588 23.7295L543.735 22.5762C543.735 22.5762 543.029 27.49 539.488 29.69C539.488 29.69 543.864 22.8476 542.731 22.3533C542.502 22.2467 539.08 21.8687 539.08 21.8687C539.08 21.8687 537.767 30.4363 532.198 33.6443C532.198 33.6443 538.523 26.1719 537.748 21.7136L532.546 21.4423C532.546 21.4423 531.651 30.5429 525.454 34.4487C525.454 34.4487 531.79 26.4142 531.422 21.452L526.28 21.859C526.28 21.859 525.226 30.7173 520.044 33.935C520.044 33.935 526.409 23.9331 525.106 22.0335C525.106 22.0335 520.402 22.6828 519.238 23.4388C519.238 23.4388 518.333 29.7772 515.15 31.3861C515.15 31.3861 518.681 24.2626 517.965 23.7586C517.965 23.7586 512.067 26.201 509.75 28.9728C511.751 26.316 514.433 24.2173 517.527 22.8864C515.601 22.1014 513.481 21.8857 511.43 22.2661C511.43 22.2661 513.967 19.4942 518.96 22.3145C518.96 22.3145 523.634 20.5894 524.43 20.8123C524.43 20.8123 519.904 17.3523 516.155 16.7417C516.155 16.7417 520.66 15.4915 525.783 20.6185L530.945 20.1048C530.945 20.1048 525.216 15.2589 521.914 14.4351C521.914 14.4351 526.717 13.8536 532.267 20.0757L537.36 20.2889C537.36 20.2889 532.755 15.7144 529.274 14.0765C529.274 14.0765 533.849 14.4642 538.822 20.4053L542.203 20.9383C542.203 20.9383 538.762 17.7012 537.688 16.8677C536.614 16.0342 536.763 15.666 536.763 15.666C539.531 16.8586 541.903 18.7781 543.616 21.2097C543.616 21.2097 550.528 22.6828 550.697 22.3145Z" fill="#84CC16"/>
<path opacity="0.1" d="M665.697 50.7604C665.697 50.7604 653.582 15.3141 630.732 29.2433C630.732 29.2433 626.065 30.2249 625.697 34.8483C625.697 34.8483 627.534 34.1808 628.349 37.911C628.651 39.2379 629.108 40.5258 629.709 41.7491C630.53 43.3955 631.868 44.7351 633.522 45.5676C633.522 45.5676 641.586 53.666 659.223 50.9861C659.223 50.9861 663.88 52.38 664.734 51.899L659.769 47.0793C659.769 47.0793 656.333 50.78 652.142 50.6328C652.142 50.6328 659.719 47.3738 659.093 46.3235C658.964 46.1173 656.373 43.889 656.373 43.889C656.373 43.889 650.355 50.299 643.9 49.8769C643.9 49.8769 653.443 47.1873 655.389 43.0056L651.278 39.8742C651.278 39.8742 645.26 46.9615 637.882 46.7455C637.882 46.7455 647.812 43.5946 650.325 39.2362L645.856 36.6938C645.856 36.6938 639.898 43.4964 633.721 43.2804C633.721 43.2804 644.764 38.5 644.794 36.1833C644.794 36.1833 640.553 34.0925 639.153 34.0729C639.153 34.0729 634.724 38.8533 631.209 38.4214C631.209 38.4214 638.239 34.4459 637.942 33.6311C637.942 33.6311 631.685 32.3648 628.16 33.3857C631.349 32.2883 634.772 32.0345 638.091 32.6495C636.957 30.9209 635.339 29.5563 633.433 28.723C633.433 28.723 637.127 27.8298 639.6 32.9734C639.6 32.9734 644.446 34.1612 644.962 34.7796C644.962 34.7796 643.254 29.3709 640.523 26.7598C640.523 26.7598 644.962 28.242 646.174 35.4177L650.722 37.8717C650.722 37.8717 648.845 30.5979 646.581 28.0555C646.581 28.0555 650.881 30.2544 651.814 38.549L655.886 41.5822C655.886 41.5822 654.754 35.1821 652.847 31.8642C652.847 31.8642 656.382 34.7502 657.018 42.4951L659.491 44.8314C659.491 44.8314 658.577 40.1785 658.2 38.8632C657.822 37.5478 658.13 37.4594 658.13 37.4594C659.709 40.0059 660.544 42.9344 660.543 45.921C660.543 45.921 665.35 51.0156 665.697 50.7604Z" fill="#84CC16"/>
<path opacity="0.1" d="M587.019 52.2415C587.019 52.2415 549.804 48.009 552.878 74.9791C552.878 74.9791 551.768 79.653 555.823 82C555.823 82 555.99 79.994 559.751 80.8967C561.08 81.1888 562.437 81.3268 563.796 81.3079C565.633 81.2741 567.408 80.6297 568.853 79.4725C568.853 79.4725 579.566 75.591 584.564 58.2895C584.564 58.2895 587.765 54.6286 587.696 53.6357L581.265 56.0629C581.265 56.0629 583.229 60.807 581.265 64.5782C581.265 64.5782 581.471 56.2434 580.283 56.3738C580.037 56.3738 576.934 57.8181 576.934 57.8181C576.934 57.8181 580.234 66.0927 577.15 71.8599C577.15 71.8599 578.702 61.9504 575.746 58.3798L571.18 60.7869C571.18 60.7869 575.108 69.3624 571.819 76.0222C571.819 76.0222 573.095 65.6113 570.218 61.3887L566.045 64.3977C566.045 64.3977 569.698 72.8327 566.939 78.3592C566.939 78.3592 567.223 66.183 565.132 65.1499C565.132 65.1499 561.46 68.1589 560.861 69.4026C560.861 69.4026 563.345 75.5207 561.469 78.5798C561.469 78.5798 560.811 70.4256 559.947 70.3454C559.947 70.3454 556.177 75.5308 555.627 79.1917C555.968 75.7976 557.173 72.5539 559.123 69.7837C557.085 70.0713 555.174 70.9602 553.624 72.3413C553.624 72.3413 554.351 68.5801 560.046 68.54C560.046 68.54 563.139 64.6183 563.973 64.4077C563.973 64.4077 558.347 63.6354 554.841 65.0095C554.841 65.0095 558.033 61.5793 565.044 63.5752L569.177 60.476C569.177 60.476 561.705 58.9314 558.543 59.9344C558.543 59.9344 562.333 56.9255 570.248 59.6837L574.696 57.2665C574.696 57.2665 568.421 55.5414 564.621 55.8523C564.621 55.8523 568.716 53.8463 575.992 56.6246L579.154 55.3708C579.154 55.3708 574.548 54.1974 573.193 53.9767C571.838 53.756 571.789 53.3749 571.789 53.3749C574.758 53.027 577.762 53.527 580.469 54.8192C580.469 54.8192 587.087 52.6628 587.019 52.2415Z" fill="#84CC16"/>
<path opacity="0.1" d="M914.047 343.242C914.047 343.242 876.8 339.005 879.878 365.972C879.878 365.972 878.767 370.651 882.828 373C882.828 373 882.995 370.992 886.761 371.886C888.09 372.188 889.45 372.326 890.812 372.297C892.652 372.268 894.431 371.623 895.876 370.46C895.876 370.46 906.604 366.575 911.559 349.266C911.559 349.266 914.765 345.591 914.696 344.608L908.256 347.027C908.256 347.027 910.222 351.786 908.256 355.561C908.256 355.561 908.462 347.208 907.272 347.348C907.027 347.348 903.919 348.784 903.919 348.784C903.919 348.784 907.223 357.067 904.136 362.84C904.136 362.84 905.689 352.931 902.73 349.346L898.157 351.766C898.157 351.766 902.09 360.35 898.806 367.016C898.806 367.016 900.075 356.595 897.194 352.358L893.015 355.37C893.015 355.37 896.673 363.814 893.91 369.335C893.91 369.335 894.195 357.147 892.1 356.123C892.1 356.123 888.433 359.135 887.823 360.38C887.823 360.38 890.321 366.504 888.433 369.566C888.433 369.566 887.774 361.404 886.909 361.324C886.909 361.324 883.133 366.514 882.582 370.179C882.923 366.781 884.13 363.535 886.083 360.762C884.041 361.044 882.126 361.935 880.576 363.322C880.576 363.322 881.304 359.547 887.007 359.507C887.007 359.507 890.114 355.581 890.94 355.38C890.94 355.38 885.306 354.597 881.795 355.973C881.795 355.973 884.991 352.549 892.022 354.547L896.151 351.445C896.151 351.445 888.757 350.019 885.542 351.003C885.542 351.003 889.337 347.991 897.263 350.742L901.717 348.332C901.717 348.332 895.434 346.606 891.628 346.917C891.628 346.917 895.729 344.909 903.015 347.69L906.181 346.425C906.181 346.425 901.569 345.25 900.212 345.039C898.855 344.828 898.806 344.437 898.806 344.437C901.778 344.082 904.788 344.579 907.499 345.873C907.499 345.873 914.145 343.674 914.047 343.242Z" fill="#84CC16"/>
<path opacity="0.1" d="M972.086 378.241C972.086 378.241 934.797 374.014 937.878 400.972C937.878 400.972 936.776 405.651 940.831 408C940.831 408 940.999 405.992 944.769 406.896C946.097 407.19 947.455 407.325 948.815 407.297C950.647 407.259 952.418 406.618 953.865 405.47C953.865 405.47 964.594 401.584 969.556 384.265C969.556 384.265 972.775 380.6 972.696 379.606L966.248 382.026C966.248 382.026 968.217 386.785 966.248 390.56C966.248 390.56 966.455 382.217 965.264 382.347C965.018 382.347 961.907 383.783 961.907 383.783C961.907 383.783 965.215 392.066 962.124 397.839C962.124 397.839 963.679 387.93 960.716 384.355L956.139 386.765C956.139 386.765 960.076 395.349 956.788 402.016C956.788 402.016 958.058 391.594 955.174 387.367L950.99 390.379C950.99 390.379 954.652 398.823 951.896 404.355C951.896 404.355 952.171 392.157 950.075 391.132C950.075 391.132 946.403 394.145 945.793 395.39C945.793 395.39 948.293 401.514 946.403 404.576C946.403 404.576 945.743 396.414 944.877 396.333C944.877 396.333 941.097 401.524 940.556 405.189C940.896 401.793 942.101 398.546 944.05 395.771C942.008 396.059 940.092 396.949 938.538 398.331C938.538 398.331 939.276 394.556 944.985 394.526C944.985 394.526 948.086 390.6 948.923 390.39C948.923 390.39 943.283 389.616 939.768 390.992C939.768 390.992 942.967 387.558 950.006 389.556L954.14 386.454C954.14 386.454 946.738 385.028 943.519 386.012C943.519 386.012 947.318 383 955.253 385.761L959.712 383.341C959.712 383.341 953.422 381.614 949.612 381.926C949.612 381.926 953.717 379.918 961.011 382.699L964.181 381.444C964.181 381.444 959.564 380.269 958.216 380.048C956.867 379.827 956.798 379.446 956.798 379.446C959.774 379.097 962.786 379.598 965.5 380.891C965.5 380.891 972.184 378.673 972.086 378.241Z" fill="#84CC16"/>
<path opacity="0.1" d="M844.697 83.308C844.697 83.308 814.342 61.1869 803.491 85.149C803.491 85.149 800.179 88.4918 802.556 92.4936C802.556 92.4936 803.69 90.9336 806.534 93.5207C807.542 94.4339 808.657 95.2275 809.856 95.8849C811.481 96.7654 813.356 97.1056 815.197 96.8539C815.197 96.8539 826.496 98.9758 839.515 87.0481C839.515 87.0481 844.15 85.5947 844.588 84.742L837.755 83.5405C837.755 83.5405 837.039 88.4531 833.508 90.6526C833.508 90.6526 837.874 83.8118 836.74 83.3177C836.512 83.2111 833.1 82.8332 833.1 82.8332C833.1 82.8332 831.817 91.3793 826.247 94.6059C826.247 94.6059 832.583 87.1353 831.797 82.6782L826.596 82.4069C826.596 82.4069 825.71 91.5053 819.504 95.4198C819.504 95.4198 825.85 87.3873 825.472 82.4262L820.32 82.8332C820.32 82.8332 819.325 91.6797 814.093 94.8966C814.093 94.8966 820.459 84.8971 819.146 82.9979C819.146 82.9979 814.441 83.6471 813.278 84.4029C813.278 84.4029 812.383 90.7398 809.2 92.3482C809.2 92.3482 812.721 85.2265 812.005 84.7323C812.005 84.7323 806.107 87.1644 803.789 89.9356C805.794 87.2822 808.475 85.1847 811.567 83.8506C809.643 83.0716 807.528 82.8561 805.48 83.2305C805.48 83.2305 808.016 80.4593 813.009 83.2789C813.009 83.2789 817.674 81.5639 818.47 81.777C818.47 81.777 813.944 78.3179 810.195 77.7172C810.195 77.7172 814.71 76.4575 819.832 81.593L824.994 81.0794C824.994 81.0794 819.265 76.2347 815.963 75.4208C815.963 75.4208 820.767 74.8297 826.307 81.0503L831.409 81.2732C831.409 81.2732 826.794 76.6998 823.323 75.0526C823.323 75.0526 827.898 75.4401 832.861 81.3798L836.253 81.9127C836.253 81.9127 832.822 78.6377 831.748 77.785C830.673 76.9323 830.833 76.6513 830.833 76.6513C833.596 77.8469 835.964 79.7655 837.675 82.1937C837.675 82.1937 844.568 83.7052 844.697 83.308Z" fill="#84CC16"/>
<path opacity="0.1" d="M867.697 246.78C867.697 246.78 857.313 210.914 833.958 223.79C833.958 223.79 829.28 224.505 828.697 229.146C828.697 229.146 830.553 228.568 831.195 232.318C831.432 233.666 831.83 234.98 832.379 236.235C833.111 237.922 834.38 239.325 835.992 240.23C835.992 240.23 843.632 248.65 861.261 246.77C861.261 246.77 865.822 248.357 866.69 247.926L862.021 242.893C862.021 242.893 858.438 246.438 854.293 246.105C854.293 246.105 861.952 243.167 861.36 242.12C861.242 241.904 858.774 239.564 858.774 239.564C858.774 239.564 852.516 245.693 846.119 244.979C846.119 244.979 855.724 242.727 857.836 238.673L853.888 235.363C853.888 235.363 847.59 242.159 840.276 241.63C840.276 241.63 850.226 238.918 852.97 234.698L848.646 231.966C848.646 231.966 842.378 238.477 836.298 237.988C836.298 237.988 847.482 233.709 847.62 231.408C847.62 231.408 843.494 229.136 842.102 229.058C842.102 229.058 837.492 233.621 833.988 233.033C833.988 233.033 841.154 229.381 840.898 228.558C840.898 228.558 834.738 227.021 831.195 227.873C834.404 226.929 837.806 226.831 841.065 227.589C840.022 225.817 838.477 224.388 836.624 223.477C836.624 223.477 840.335 222.742 842.546 227.981C842.546 227.981 847.294 229.371 847.788 230.017C847.788 230.017 846.337 224.544 843.741 221.832C843.741 221.832 848.084 223.496 848.962 230.703L853.365 233.356C853.365 233.356 851.825 226.013 849.693 223.428C849.693 223.428 853.858 225.807 854.421 234.11L858.369 237.312C858.369 237.312 857.53 230.889 855.793 227.521C855.793 227.521 859.179 230.556 859.455 238.291L861.804 240.739C861.804 240.739 861.113 236.059 860.817 234.727C860.521 233.395 860.817 233.209 860.817 233.209C862.278 235.814 862.979 238.77 862.841 241.747C862.841 241.747 867.342 247.015 867.697 246.78Z" fill="#84CC16"/>
<path opacity="0.1" d="M636.697 327.974C636.697 327.974 616.3 295.945 597.361 315.114C597.361 315.114 593.028 317.105 593.786 321.833C593.786 321.833 595.434 320.738 597.131 324.221C597.741 325.456 598.499 326.612 599.387 327.665C600.578 329.102 602.209 330.109 604.03 330.532C604.03 330.532 613.864 336.583 630.437 329.735C630.437 329.735 635.32 329.994 636.038 329.327L630.048 325.744C630.048 325.744 627.582 330.223 623.459 331.069C623.459 331.069 630.068 326.093 629.179 325.177C629.01 324.998 625.935 323.425 625.935 323.425C625.935 323.425 621.612 331.169 615.202 332.293C615.202 332.293 623.878 327.367 624.776 322.808L619.994 320.708C619.994 320.708 615.831 329.118 608.583 330.661C608.583 330.661 617.468 325.197 618.916 320.3L613.924 318.867C613.924 318.867 609.711 326.998 603.671 328.243C603.671 328.243 613.295 320.897 612.766 318.608C612.766 318.608 608.113 317.563 606.776 317.881C606.776 317.881 603.611 323.644 600.036 324.062C600.036 324.062 605.947 318.469 605.458 317.732C605.458 317.732 599.038 317.981 595.843 319.822C598.693 317.982 601.977 316.918 605.368 316.737C603.85 315.304 601.944 314.346 599.887 313.98C599.887 313.98 603.271 312.218 606.875 316.697C606.875 316.697 611.867 316.697 612.556 317.195C612.556 317.195 609.561 312.218 606.276 310.357C606.276 310.357 610.969 310.755 613.884 317.533L618.926 318.867C618.926 318.867 615.322 312.148 612.516 310.227C612.516 310.227 617.239 311.362 620.164 319.315L624.876 321.305C624.876 321.305 622.221 315.284 619.555 312.467C619.555 312.467 623.708 314.458 626.194 321.932L629.189 323.654C629.189 323.654 627.193 319.285 626.484 318.08C625.775 316.876 626.054 316.597 626.054 316.597C628.215 318.725 629.739 321.409 630.457 324.351C630.457 324.351 636.428 328.312 636.697 327.974Z" fill="#84CC16"/>
<path d="M768.697 165.669C768.697 165.669 749.648 133.214 730.462 151.684C730.462 151.684 726.148 153.564 726.756 158.256C726.756 158.256 728.393 157.207 729.962 160.72C730.523 161.969 731.23 163.146 732.07 164.224C733.196 165.684 734.767 166.727 736.54 167.193C736.54 167.193 746.001 173.508 762.482 167.193C762.482 167.193 767.266 167.599 767.991 166.956L762.236 163.215C762.236 163.215 759.687 167.579 755.609 168.302C755.609 168.302 762.246 163.521 761.413 162.621C761.236 162.433 758.276 160.77 758.276 160.77C758.276 160.77 753.795 168.342 747.491 169.262C747.491 169.262 756.158 164.63 757.168 160.136L752.54 157.939C752.54 157.939 748.197 166.184 741.031 167.5C741.031 167.5 749.923 162.344 751.491 157.523L746.648 155.94C746.648 155.94 742.256 163.858 736.295 164.947C736.295 164.947 745.962 157.939 745.511 155.653C745.511 155.653 740.981 154.465 739.629 154.742C739.629 154.742 736.344 160.374 732.825 160.681C732.825 160.681 738.795 155.316 738.344 154.564C738.344 154.564 732.03 154.613 728.844 156.345C731.698 154.607 734.953 153.652 738.285 153.574C736.836 152.103 734.993 151.091 732.981 150.664C732.981 150.664 736.364 149.011 739.844 153.574C739.844 153.574 744.746 153.742 745.403 154.247C745.403 154.247 742.629 149.298 739.452 147.259C739.452 147.259 744.04 147.794 746.697 154.623L751.599 156.108C751.599 156.108 748.276 149.318 745.57 147.319C745.57 147.319 750.178 148.595 752.805 156.583L757.364 158.731C757.364 158.731 754.942 152.663 752.462 149.823C752.462 149.823 756.472 151.931 758.697 159.434L761.57 161.235C761.57 161.235 759.727 156.83 759.08 155.613C758.433 154.396 758.707 154.128 758.707 154.128C760.762 156.309 762.177 159.023 762.795 161.967C762.795 161.967 768.413 165.996 768.697 165.669Z" fill="#84CC16"/>
<path d="M647.692 234.215C647.692 234.215 648.686 196.154 622.392 201.518C622.392 201.518 617.684 200.789 615.697 205.124C615.697 205.124 617.684 205.124 617.128 208.97C616.946 210.342 616.926 211.73 617.068 213.106C617.248 214.973 618.033 216.728 619.303 218.101C619.303 218.101 624.041 228.63 641.534 232.207C641.534 232.207 645.418 235.154 646.391 234.994L643.411 228.68C643.411 228.68 638.891 231.018 635.008 229.429C635.008 229.429 643.252 228.94 643.024 227.721C643.024 227.471 641.315 224.435 641.315 224.435C641.315 224.435 633.428 228.48 627.518 225.823C627.518 225.823 637.451 226.572 640.699 223.286L637.928 218.86C637.928 218.86 629.803 223.535 622.949 220.778C622.949 220.778 633.329 221.198 637.262 217.931L633.955 213.935C633.955 213.935 625.938 218.351 620.257 216.013C620.257 216.013 632.296 215.284 633.17 213.076C633.17 213.076 629.912 209.61 628.601 209.08C628.601 209.08 622.78 212.077 619.601 210.459C619.601 210.459 627.548 209.12 627.597 208.231C627.597 208.231 622.164 204.845 618.498 204.595C621.878 204.656 625.183 205.606 628.084 207.352C627.632 205.31 626.596 203.446 625.104 201.988C625.104 201.988 628.889 202.417 629.405 208.181C629.405 208.181 633.547 210.998 633.816 211.778C633.816 211.778 634.104 206.013 632.445 202.577C632.445 202.577 636.1 205.524 634.729 212.797L638.137 216.732C638.137 216.732 638.911 209.12 637.67 205.954C637.67 205.954 640.928 209.54 638.921 217.791L641.673 222.097C641.673 222.097 642.845 215.594 642.219 211.768C642.219 211.768 644.524 215.763 642.418 223.366L643.928 226.462C643.928 226.462 644.693 221.697 644.792 220.309C644.891 218.92 645.269 218.83 645.269 218.83C645.867 221.81 645.629 224.899 644.583 227.751C644.583 227.751 647.255 234.344 647.692 234.215Z" fill="#84CC16"/>
<path opacity="0.1" d="M691.197 712C705.833 712 717.697 709.985 717.697 707.5C717.697 705.015 705.833 703 691.197 703C676.562 703 664.697 705.015 664.697 707.5C664.697 709.985 676.562 712 691.197 712Z" fill="#84CC16"/>
<path opacity="0.1" d="M594.197 780C608.833 780 620.697 777.985 620.697 775.5C620.697 773.015 608.833 771 594.197 771C579.562 771 567.697 773.015 567.697 775.5C567.697 777.985 579.562 780 594.197 780Z" fill="#84CC16"/>
<path opacity="0.1" d="M92.1973 745C106.833 745 118.697 742.985 118.697 740.5C118.697 738.015 106.833 736 92.1973 736C77.5617 736 65.6973 738.015 65.6973 740.5C65.6973 742.985 77.5617 745 92.1973 745Z" fill="#84CC16"/>
<path opacity="0.1" d="M795.197 776C809.833 776 821.697 773.985 821.697 771.5C821.697 769.015 809.833 767 795.197 767C780.562 767 768.697 769.015 768.697 771.5C768.697 773.985 780.562 776 795.197 776Z" fill="#84CC16"/>
<path d="M823.197 720C845.012 720 862.697 717.09 862.697 713.5C862.697 709.91 845.012 707 823.197 707C801.382 707 783.697 709.91 783.697 713.5C783.697 717.09 801.382 720 823.197 720Z" fill="#84CC16"/>
<path d="M839.754 702.966C841.583 701.519 842.914 699.563 843.57 697.359C844.068 695.128 843.091 692.46 840.91 691.645C838.459 690.733 835.839 692.382 833.846 694.051C831.853 695.72 829.592 697.631 826.992 697.281C828.327 696.101 829.325 694.604 829.891 692.936C830.456 691.269 830.57 689.487 830.22 687.765C830.107 687.051 829.797 686.38 829.323 685.825C827.958 684.408 825.497 685.019 823.863 686.135C818.683 689.686 817.238 696.534 817.208 702.704C816.69 700.483 817.129 698.164 817.119 695.914C817.109 693.663 816.461 691.063 814.478 689.88C813.261 689.219 811.886 688.884 810.493 688.91C808.162 688.832 805.562 689.055 803.978 690.714C801.985 692.77 802.513 696.234 804.227 698.475C805.94 700.715 808.56 702.161 810.971 703.732C812.901 704.854 814.549 706.382 815.793 708.205C815.935 708.458 816.052 708.725 816.142 709H830.748C834.017 707.396 837.047 705.366 839.754 702.966Z" fill="#84CC16"/>
<path d="M74.6973 719.292C74.6973 719.292 89.7337 718.822 94.2888 715.525C98.8438 712.228 117.436 708.301 118.563 713.587C119.689 718.872 141.171 739.855 124.185 739.995C107.2 740.135 84.7183 737.297 80.1927 734.48C75.667 731.662 74.6973 719.292 74.6973 719.292Z" fill="#A8A8A8"/>
<path opacity="0.2" d="M124.491 738.239C107.498 738.374 85.0068 735.633 80.4792 732.912C77.0297 730.847 75.6577 723.426 75.1971 720H74.6973C74.6973 720 75.6773 731.957 80.1754 734.668C84.6736 737.38 107.194 740.13 124.187 739.995C129.087 739.995 130.782 738.239 130.694 735.691C130.008 737.245 128.136 738.21 124.491 738.239Z" fill="black"/>
</g>
<defs>
<linearGradient id="paint0_linear_44_1963" x1="220.826" y1="428.078" x2="528.697" y2="428.078" gradientUnits="userSpaceOnUse">
<stop stop-color="#808080" stop-opacity="0.25"/>
<stop offset="0.54" stop-color="#808080" stop-opacity="0.12"/>
<stop offset="1" stop-color="#808080" stop-opacity="0.1"/>
</linearGradient>
<clipPath id="clip0_44_1963">
<rect width="997" height="780" fill="white" transform="translate(0.697266)"/>
</clipPath>
</defs>
</svg>
