<svg width="1028" height="780" viewBox="0 0 1028 780" fill="none" xmlns="http://www.w3.org/2000/svg">
<g clip-path="url(#clip0_44_778)">
<path opacity="0.1" d="M244.619 650.956C235.97 650.079 226.935 649.141 218.744 651.435C210.553 653.729 203.766 660.428 206.198 666.832C211.631 681.107 243.52 671.165 258.223 680.923C263.473 684.41 265.518 689.896 269.619 694.179C276.253 701.133 287.659 704.375 298.669 706.16C364.806 716.876 440.203 689.294 498.171 715.856C516.944 724.462 531.748 738.156 552.332 743.897C579.601 751.503 609.465 743.377 637.68 738.166C672.869 731.722 708.738 729.838 744.406 732.558C770.79 734.598 805.884 735.281 814.329 716.081C819.763 703.733 808.265 689.988 793.002 684.145C777.74 678.303 759.872 678.486 742.829 679.047C709.933 680.23 677.027 682.616 644.132 681.453C580.517 679.19 520.423 653.923 458.478 653.087C386.337 652.21 317.096 658.277 244.619 650.956Z" fill="#84CC16"/>
<path opacity="0.1" d="M177.581 332.117C167.323 342.335 166.697 358 166.697 358C166.697 358 182.587 357.111 192.803 346.883C203.02 336.655 203.697 321 203.697 321C203.697 321 187.798 321.92 177.581 332.117Z" fill="#84CC16"/>
<path opacity="0.1" d="M218.722 78.1489C222.39 92.2387 235.844 101 235.844 101C235.844 101 243.356 86.9307 239.688 72.8409C236.021 58.7511 222.566 50 222.566 50C222.566 50 215.013 64.0693 218.722 78.1489Z" fill="#84CC16"/>
<path opacity="0.1" d="M813.591 116.124C803.333 126.339 802.697 142 802.697 142C802.697 142 818.597 141.111 828.814 130.886C839.031 120.661 839.697 105 839.697 105C839.697 105 823.808 105.96 813.591 116.124Z" fill="#84CC16"/>
<path opacity="0.1" d="M503.796 260.127C502.634 274.487 512.083 287 512.083 287C512.083 287 523.436 276.224 524.598 261.853C525.761 247.482 516.312 235 516.312 235C516.312 235 504.959 245.755 503.796 260.127Z" fill="#84CC16"/>
<path opacity="0.1" d="M837.796 462.132C836.634 476.49 846.083 489 846.083 489C846.083 489 857.436 478.226 858.598 463.868C859.761 449.51 850.312 437 850.312 437C850.312 437 838.959 447.774 837.796 462.132Z" fill="#84CC16"/>
<path opacity="0.1" d="M597.394 98.096C531.555 96.1113 468.849 77.7406 408.971 57.5888C349.093 37.4369 289.785 15.158 225.523 4.49176C184.19 -2.36801 136.917 -3.33488 103.621 15.8501C71.5659 34.3022 61.2099 66.1686 55.6454 95.7347C51.4541 117.973 48.9923 141.382 60.4673 162.205C68.4429 176.668 82.5832 188.82 92.3696 202.662C126.418 250.853 102.349 310.27 65.4622 357.362C48.1683 379.438 28.0768 400.485 14.7197 423.986C1.36269 447.486 -4.81227 474.396 6.87641 498.354C18.4532 522.109 46.0523 539.95 75.9505 552.499C136.673 577.943 208.198 585.282 277.995 589.414C432.45 598.574 587.719 594.604 742.581 590.635C799.896 589.169 857.454 587.684 913.832 580.01C945.145 575.755 977.464 568.997 1000.2 552.672C1029.05 531.951 1036.2 496.868 1016.86 470.884C984.432 427.314 894.789 416.485 872.093 369.718C859.621 343.979 872.429 315.308 890.567 291.431C929.468 240.217 994.666 195.283 998.095 136.73C1000.45 96.5286 969.112 56.2657 920.648 37.2436C869.855 17.2953 799.407 19.8092 761.951 52.8154C723.344 86.758 655.532 99.8364 597.394 98.096Z" fill="#84CC16"/>
<path d="M815.775 289.409C814.374 289.768 813.077 290.454 811.992 291.411C810.907 292.368 810.064 293.569 809.532 294.916L808.515 294.753L804.723 294.142C804.723 294.142 784.632 292.483 780.88 292.737C777.129 292.992 774.78 289.287 774.78 289.287L759.844 276.636L758.685 275.618C760.302 275.007 761.308 274.692 761.308 274.692C761.308 274.692 721.228 224.82 712.586 223.853C703.944 222.886 689.658 211.242 689.516 211.13L689.364 210.336C689.048 208.657 688.815 206.957 688.642 205.247L690.767 206.55C690.767 205.96 690.767 205.37 690.828 204.779C691.145 198.624 693.22 192.69 696.806 187.68C700.985 181.879 707.167 177.319 709.637 170.632C710.622 167.756 711.067 164.723 710.949 161.686C711.012 156.214 709.57 150.83 706.78 146.123C705.358 143.771 703.454 141.747 701.193 140.186C698.932 138.624 696.366 137.56 693.664 137.065C692.241 136.841 690.787 136.811 689.384 136.485C681.036 134.521 677.966 123.315 669.852 120.566C666.07 119.284 661.861 120.129 658.211 121.717C654.561 123.304 651.256 125.584 647.687 127.345C644.119 129.106 640.072 130.398 636.829 132.892C636.493 133.146 636.137 133.452 635.812 133.767L635.171 134.388C633.833 135.748 632.668 137.27 631.704 138.917L631.552 139.172C631.45 139.345 631.359 139.528 631.267 139.711C631.176 139.894 631.115 139.996 631.054 140.139C630.993 140.281 630.891 140.464 630.82 140.627L630.606 141.116L630.423 141.584C630.362 141.757 630.291 141.93 630.24 142.113C630.189 142.297 630.138 142.408 630.098 142.561L629.945 143.101L629.854 143.538C629.854 143.721 629.783 143.915 629.752 144.098C629.722 144.281 629.752 144.373 629.752 144.505C629.752 144.637 629.752 144.892 629.752 145.085C629.752 145.279 629.752 145.34 629.752 145.462C629.752 145.584 629.752 145.869 629.752 146.083C629.752 146.296 629.752 146.286 629.752 146.388C629.791 146.687 629.853 146.983 629.935 147.274C630.484 149.146 632.375 151.06 633.819 152.729C633.656 152.882 633.494 153.024 633.331 153.187C629.899 156.498 627.169 160.468 625.305 164.859C623.441 169.25 622.481 173.973 622.482 178.744C622.484 180.864 622.678 182.98 623.062 185.064C621.214 183.667 619.228 182.463 617.134 181.472C610.249 178.167 602.717 176.429 595.081 176.383C582.626 176.24 565.128 171.558 565.128 171.558C565.575 172.413 565.916 173.318 566.145 174.255C565.382 173.818 564.559 173.35 563.654 172.861C556.359 168.94 548.451 166.29 540.269 165.024C540.269 165.024 535.083 165.747 534.392 154.846C534.155 151.44 533.541 148.071 532.562 144.8C529.586 134.831 527.523 124.611 526.4 114.266L524.662 98.2665C524.662 98.2665 532.491 56.5367 527.783 38.7456C529.298 33.168 528.444 28.0587 523.452 24.3844C503.758 9.87057 483.891 66.3585 483.891 66.3585L476.509 73.534C474.616 72.2985 472.48 71.483 470.246 71.1421C470.246 71.1421 466.27 75.2133 463.505 86.3277C462.041 92.2207 452.036 102.063 442.987 109.992C436.561 115.62 430.359 121.472 424.167 127.345C419.592 131.701 409.394 137.93 387.148 141.452C383.66 142.001 380.488 142.52 377.59 142.999C378.331 140.369 378.707 137.65 378.709 134.917C378.674 128.04 376.304 121.379 371.988 116.028C367.672 110.677 361.666 106.955 354.958 105.473C355.059 104.76 355.059 104.037 354.958 103.325C354.583 101.792 353.807 100.387 352.711 99.2538C348.024 93.4523 342.94 87.488 335.965 84.7399C333.089 83.6201 330.008 83.124 326.926 83.2845H325.381C325.066 83.2845 324.76 83.2845 324.445 83.2845C321.157 83.4667 317.945 84.349 315.024 85.8724C312.103 87.3959 309.54 89.5254 307.506 92.119C305.005 95.4675 303.5 99.4369 301.345 103.009C297.339 109.625 291.178 114.724 284.498 118.755C280.481 121.187 276.262 123.284 272.47 126.042C258.713 136.047 252.369 154.541 255.826 171.07C257.351 178.327 260.574 185.472 259.709 192.83C259.028 198.54 255.958 203.67 252.826 208.515C249.695 213.359 246.38 218.285 245.14 223.894C243.899 229.502 245.201 236.107 249.898 239.507C251.626 240.748 253.721 241.542 255.195 243.048C256.176 244.209 256.997 245.496 257.635 246.875C260.129 251.386 263.512 255.343 267.579 258.506C271.646 261.669 276.312 263.973 281.295 265.277C282.875 265.681 284.504 265.86 286.135 265.807H286.307H286.623C290.354 266.041 294.177 265.043 295.428 261.735C295.617 260.983 295.901 260.259 296.271 259.578C296.623 259.07 297.147 258.708 297.746 258.56C298.949 258.835 300.108 259.273 301.192 259.863C306.401 262.567 312.099 264.197 317.948 264.656C318.926 264.734 319.907 264.751 320.887 264.707C322.922 264.898 324.974 264.605 326.875 263.852C328.704 262.923 330.283 261.569 331.481 259.903C331.746 259.567 331.99 259.211 332.244 258.885C330.9 267.014 328.372 274.901 324.74 282.295C324.74 282.295 318.64 292.473 319.077 302.732C318.842 306.47 319.633 310.201 321.365 313.521C321.365 313.521 321.537 313.073 321.893 312.371C323.642 315.302 329.377 324.676 333.138 327.964C333.321 337.643 333.281 349.765 332.071 352.258C330.037 356.523 323.612 386.864 351.247 407.555L357.622 421.53L331.379 423.392C328.726 423.026 294.411 418.405 294.238 425.133C294.065 432.125 299.423 500.216 317.216 495.605C333.799 491.31 328.329 471.453 327.506 468.786L328.095 468.623L327.445 468.44L340.713 455.85C340.963 454.317 340.598 452.748 339.696 451.484L339.829 451.412L371.876 452.848L379.41 469.234C379.41 469.234 392.191 488.694 381.83 505.071C371.47 521.447 360.753 547.055 359.025 562.587C357.611 575.289 348.217 587.767 344.851 591.879C338.842 593.915 315.793 602.973 324.994 616.683C335.528 632.377 369.731 662.25 383.559 661.222C397.386 660.194 391.845 650.128 391.845 650.128L380.285 638.912C380.285 638.912 378.251 615.014 379.075 608.021C379.522 604.388 376.848 601.772 373.991 600.663C375.079 592.876 377.834 578.118 383.752 569.966C392.038 558.526 418.646 508.185 418.646 508.185C418.646 508.185 427.106 500.674 425.204 478.323C424.442 469.305 424.015 461.387 423.771 455.127L453.887 456.481C453.887 456.481 486.188 453.234 464.247 418.588C442.306 383.943 395.668 349.989 395.668 349.989L395.251 328.544C397.366 329.073 398.606 329.338 398.606 329.338C398.606 329.338 398.423 328.564 398.118 327.18L398.606 327.292C398.606 327.292 391.865 298.091 389.791 274.875L391.693 275.75C411.732 298.966 425.245 279.343 425.245 279.343C425.245 279.343 467.572 219.782 463.424 222.509C462.994 222.722 462.526 222.847 462.048 222.877C461.57 222.907 461.09 222.841 460.638 222.682L463.688 212.952C463.688 212.952 476.184 193.838 458.045 183.09C443.241 174.316 443.628 201.817 444.268 212.209L443.536 211.588C443.536 211.588 429.373 232.962 421.768 244.87C414.162 256.779 407.777 248.942 407.777 248.942L398.169 238.102C399.747 233.759 400.522 229.165 400.457 224.545C400.667 221.321 400.197 218.089 399.077 215.059C397.958 212.029 396.214 209.269 393.96 206.957C386.629 199.476 384.484 192.23 384.26 186.652C384.332 183.762 384.986 180.917 386.182 178.286L436.114 151.823C436.114 151.823 446.647 151.986 460.811 130.144C469.989 116.175 480.091 102.835 491.048 90.2157C491.048 90.2157 490.754 89.7882 490.245 89.0859C490.754 88.4854 491.048 88.1597 491.048 88.1597C491.048 88.1597 490.469 87.315 489.483 86.0122L497.179 77.1268C496.936 81.1427 496.906 85.1686 497.088 89.1877L501.073 102.674L503.31 177.757C503.31 177.757 500.89 184.881 516.447 192.097C529.603 198.204 550.446 208.382 556.526 211.385C556.303 211.934 556.171 212.23 556.171 212.23L557.98 212.107L558.245 212.23C588.635 209.502 587.598 239.873 587.598 239.873C587.598 239.873 589.632 301.653 580.349 323.16C571.066 344.666 572.398 371.281 572.398 371.281C572.398 371.281 573.323 366.742 578.498 372.675C578.397 373.195 578.285 373.754 578.163 374.334C575.194 389.225 569.012 420.899 567.863 433.743C566.598 445.449 564.343 457.025 561.122 468.349L558.072 525.172L577.502 526.119L577.288 528.155C577.182 529.186 576.827 530.177 576.253 531.04C575.679 531.904 574.904 532.615 573.994 533.111C567.345 536.724 551.626 549.396 552.887 588.5L552.215 594.79C551.139 605.442 547.912 615.765 542.729 625.13C542.282 625.924 541.885 626.688 541.55 627.421C541.601 627.009 541.787 626.626 542.079 626.332C542.079 626.332 531.982 628.428 534.056 655.736C536.131 683.043 539.242 687.817 543.39 688.153C547.538 688.489 567.792 693.445 566.704 683.379C565.616 673.313 564.671 650.952 566.013 647.542C567.355 644.133 572.865 634.932 567.639 632.713C569.155 626.45 569.889 620.023 569.825 613.578C569.825 613.578 579.993 597.538 587.263 591.563C594.532 585.589 598.447 575.442 601.08 562.383C601.263 561.528 622.503 547.36 619.381 535.595C618.832 533.559 618.436 531.758 618.131 530.129C617.999 529.406 617.887 528.725 617.785 528.094H618.161L622.482 502.15V527.412L625.045 527.747L624.953 529.783L623.865 554.007C623.668 558.725 622.635 563.37 620.815 567.727C616.24 578.566 607.801 602.698 610.099 628.795L609.854 652.062C609.122 652.204 598.569 654.698 600.572 681.069C602.605 708.366 605.747 713.15 609.895 713.486C614.043 713.822 634.297 718.778 633.219 708.712C632.141 698.646 631.186 676.285 632.528 672.876C633.87 669.466 636.29 660.448 631.064 658.229C631.091 655.171 631.836 652.162 633.239 649.446C635.517 645.568 643.122 627.136 648.846 612.958C654.699 598.608 657.952 583.33 658.455 567.839C658.455 567.666 658.455 567.493 658.455 567.32C658.609 562.093 659.729 556.941 661.759 552.124C664.099 546.734 665.951 541.144 667.29 535.422C667.433 534.74 667.544 534.078 667.646 533.386L672.608 534.048L689.547 460.664C689.547 460.664 694.183 420.889 691.916 402.924C691.824 402.181 691.722 401.5 691.6 400.838L692.617 400.93C692.617 400.93 696.074 392.065 695.037 354.172C694 316.279 701.951 304.3 701.951 304.3C706.241 290.682 710.979 286.122 713.745 284.595C714.457 284.141 715.272 283.875 716.114 283.822L728.935 298.508L731.294 301.216C731.299 301.162 731.299 301.107 731.294 301.053L732.311 302.244C732.233 301.64 732.206 301.03 732.229 300.422C739.072 304.401 754.882 313.704 764.318 320.381C776.62 329.083 779.996 328.065 790.753 327.159C797.28 326.62 806.106 322.956 812.023 320.167L812.562 319.913C814.154 320.763 815.831 321.446 817.564 321.948C817.564 321.948 834.93 336.676 836.608 309.796C838.286 282.916 815.775 289.409 815.775 289.409ZM365.359 602.444C363.591 601.917 361.886 601.197 360.275 600.296L365.359 602.444ZM338.171 311.475L338.232 315.292L337.968 315.414C338.049 314.071 338.11 312.747 338.171 311.475ZM609.783 652.153V653.639C609.595 653.437 609.491 653.172 609.491 652.896C609.491 652.62 609.595 652.355 609.783 652.153Z" fill="url(#paint0_linear_44_778)"/>
<path d="M665.697 205H635.697V236H665.697V205Z" fill="#FF7590"/>
<path d="M599.38 563.061C596.78 576.018 592.924 586.089 585.785 592.024C578.646 597.959 568.62 613.874 568.62 613.874C568.447 635.043 562.838 641.476 562.838 641.476L557.055 643H542.776C542.776 643 540.227 635.886 539.717 631.659C539.543 630.246 540.553 627.878 541.96 625.337C547.064 616.025 550.238 605.785 551.292 595.226L551.955 588.976C550.752 550.185 566.234 537.593 572.731 534.006C573.628 533.507 574.391 532.799 574.954 531.943C575.517 531.086 575.863 530.106 575.964 529.087L577.116 518L615.525 519.88C615.525 519.88 614.709 523.254 616.168 531.059C616.463 532.675 616.861 534.474 617.392 536.476C620.451 548.152 599.543 562.207 599.38 563.061Z" fill="#8E5362"/>
<path d="M664.021 536.388C662.712 542.069 660.904 547.623 658.618 552.984C656.63 557.777 655.53 562.895 655.375 568.085C655.375 568.257 655.375 568.43 655.375 568.603C654.881 583.985 651.701 599.16 645.978 613.436C640.372 627.519 632.942 645.845 630.711 649.702C627.001 656.143 629.191 667 629.191 667L607.701 665.474L608.076 629.178C605.835 603.261 614.087 579.318 618.557 568.502C620.364 564.176 621.393 559.563 621.598 554.877L622.612 530.802L622.926 523.679C622.926 523.679 660.92 518.255 664.123 526.904C665.005 529.194 664.792 532.603 664.021 536.388Z" fill="#8E5362"/>
<path opacity="0.1" d="M616.697 531L576.697 529.037L577.843 518L616.059 519.872C616.059 519.872 615.217 523.22 616.697 531Z" fill="black"/>
<path opacity="0.1" d="M664.025 536L622.697 530.564L623.011 523.634C623.011 523.634 660.919 518.356 664.116 526.772C665.006 529 664.793 532.317 664.025 536Z" fill="black"/>
<path d="M686.758 462.93L670.142 536L620.966 529.373V504.221L616.713 530.066L557.697 527.171L560.75 470.587C563.912 459.295 566.125 447.758 567.364 436.096C568.513 423.311 574.557 391.776 577.478 376.963C578.495 372.079 579.065 369 579.065 369C579.065 369 680.144 390.064 686.758 397.71C687.887 399.015 688.63 401.788 689.088 405.469C691.306 423.331 686.758 462.93 686.758 462.93Z" fill="#BDD2E8"/>
<path opacity="0.1" d="M568.697 467C568.697 467 608.095 446.22 617.697 450.609L568.697 467Z" fill="black"/>
<path opacity="0.1" d="M589.697 399C589.697 399 622.682 424.198 623.697 431L589.697 399Z" fill="black"/>
<path opacity="0.1" d="M580.697 485.062C580.697 485.062 604.955 484.074 612.697 490L580.697 485.062Z" fill="black"/>
<path opacity="0.1" d="M624.183 459C624.183 459 635.306 495.944 630.486 506.049C625.666 516.154 620.697 503.685 620.697 503.685L624.183 459Z" fill="black"/>
<path d="M608.006 653C608.006 653 596.928 654.711 598.942 682.031C600.956 709.35 603.977 714.146 608.006 714.484C612.034 714.823 631.672 719.782 630.665 709.699C629.658 699.615 628.651 677.256 629.99 673.833C631.33 670.41 633.646 661.403 628.57 659.179L627.472 664.446C627.472 664.446 616.727 654.363 610.352 661.71C610.078 659.919 609.637 658.159 609.033 656.453C608.398 654.855 607.009 654.025 608.006 653Z" fill="#494457"/>
<path d="M812.697 319.275C812.697 319.275 810.131 320.706 806.364 322.492C800.549 325.253 791.884 328.887 785.468 329.425C774.899 330.318 771.589 331.333 759.502 322.705C750.226 316.088 734.697 306.861 727.935 302.923L724.993 301.187L724.697 301.015V300.893L730.308 285.526L750.165 275L755.093 279.212L769.766 291.748C769.766 291.748 772.058 295.422 775.754 295.168C779.45 294.914 799.174 296.559 799.174 296.559L802.901 297.168L810.752 298.467L812.697 319.275Z" fill="#8E5362"/>
<path opacity="0.1" d="M813.697 318.82C813.697 318.82 811.09 320.234 807.263 322C803.218 319.994 798.19 316.232 800.125 310.042C801.873 304.474 802.349 300.13 803.787 297L811.763 298.284L813.697 318.82Z" fill="black"/>
<path d="M810.898 291.66C810.898 291.66 833.275 285.317 831.609 311.959C829.942 338.601 812.699 324.016 812.699 324.016C812.699 324.016 798.038 320.21 801.124 310.183C804.211 300.155 803.316 294.076 810.898 291.66Z" fill="#8E5362"/>
<path d="M581.697 205.173L558.518 214.848L558.16 215L557.904 214.878L556.462 214.157C550.468 211.189 529.866 201.037 516.906 195.011C501.562 187.897 503.945 180.784 503.945 180.784L501.736 106.264L497.808 92.8806C497.808 92.8806 495.036 47.5165 517.243 36.1449C539.451 24.7734 525.089 101.854 525.089 101.854L526.808 117.87C527.917 128.115 529.955 138.24 532.894 148.122C533.854 151.371 534.457 154.714 534.694 158.092C535.38 168.924 540.494 168.203 540.494 168.203C548.573 169.463 556.372 172.096 563.551 175.987C566.217 177.386 568.768 178.989 571.182 180.784L581.697 205.173Z" fill="#8E5362"/>
<path d="M663.209 242L643.697 239.948C643.697 239.948 649.448 231.245 651.98 222.778C652.338 221.618 652.625 220.435 652.838 219.238C653.423 215.882 653.271 212.772 651.768 210.525C646.058 201.976 685.736 190 685.736 190C685.254 194.731 685.109 199.492 685.303 204.244C685.416 207.551 685.753 210.847 686.311 214.107C687.512 220.746 689.903 226.996 694.463 230.198C706.922 238.921 663.209 242 663.209 242Z" fill="#8E5362"/>
<path opacity="0.1" d="M663.204 242L643.697 239.94C643.697 239.94 649.446 231.204 651.978 222.705C654.227 225.971 655.004 225.898 658.161 226.547C658.161 226.547 677.848 229.525 686.321 214C687.521 220.665 689.911 226.939 694.47 230.153C706.906 238.909 663.204 242 663.204 242Z" fill="black"/>
<path opacity="0.1" d="M727.883 303.177C727.86 303.786 727.887 304.396 727.964 305L724.949 301.425L724.697 301.128L730.235 285.621L749.833 275L754.697 279.251C747.732 281.965 728.195 290.579 727.883 303.177Z" fill="black"/>
<path opacity="0.1" d="M580.697 205.207L558.046 214.878H557.447L555.697 215C555.697 215 555.827 214.705 556.037 214.157C557.926 209.494 566.693 186.728 562.904 176C565.51 177.398 568.003 179.001 570.361 180.795L580.697 205.207Z" fill="black"/>
<path opacity="0.1" d="M689.697 405C680.692 404.204 590.593 395.987 582.19 382.907C580.862 380.775 579.359 378.755 577.697 376.865C578.718 372.041 579.29 369 579.29 369C579.29 369 680.722 389.804 687.359 397.357C688.492 398.626 689.238 401.355 689.697 405Z" fill="black"/>
<path d="M657.878 226.911C657.878 226.911 677.91 229.883 686.377 214.279C686.377 214.279 700.52 225.923 708.978 226.921C717.435 227.918 756.697 277.468 756.697 277.468C756.697 277.468 725.223 287.646 727.253 303.932L712.359 286.628C712.359 286.628 704.917 286.282 698.49 306.986C698.49 306.986 690.702 318.854 691.718 356.514C692.733 394.175 689.352 403 689.352 403C689.352 403 590.522 394.521 581.73 380.607C572.937 366.693 571.577 373.482 571.577 373.482C571.577 373.482 570.216 347.018 579.354 325.643C588.492 304.268 586.461 242.861 586.461 242.861C586.461 242.861 587.476 212.661 557.697 215.378C557.697 215.378 570.216 186.196 564.469 175C564.469 175 581.598 179.662 593.802 179.804C601.292 179.863 608.675 181.602 615.407 184.894C619.073 186.695 622.454 188.965 624.372 191.672C630.119 199.815 639.602 196.09 639.602 196.09C641.992 203.541 644.945 210.799 648.435 217.801C648.831 218.544 649.227 219.277 649.633 219.979C650.222 220.997 650.831 222.015 651.44 222.849C653.877 226.341 654.568 226.249 657.878 226.911Z" fill="#FF7590"/>
<path opacity="0.1" d="M685.227 204.04C684.139 205.567 682.929 207.005 681.607 208.339C678.281 211.714 674.306 214.397 669.915 216.228C665.524 218.059 660.807 219.002 656.042 219C654.81 219.001 653.578 218.94 652.351 218.818C652.944 215.51 652.791 212.445 651.267 210.23C645.479 201.804 685.697 190 685.697 190C685.198 194.663 685.041 199.355 685.227 204.04Z" fill="black"/>
<path d="M691.697 182.5C691.697 189.521 689.615 196.385 685.714 202.223C681.813 208.061 676.269 212.611 669.782 215.298C663.296 217.985 656.158 218.688 649.271 217.318C642.385 215.948 636.06 212.567 631.095 207.602C626.13 202.638 622.749 196.312 621.379 189.426C620.01 182.539 620.713 175.402 623.4 168.915C626.086 162.428 630.637 156.884 636.474 152.983C642.312 149.082 649.176 147 656.197 147C660.864 146.983 665.488 147.889 669.803 149.667C674.118 151.445 678.038 154.059 681.338 157.359C684.638 160.659 687.252 164.579 689.03 168.894C690.808 173.209 691.714 177.833 691.697 182.5Z" fill="#8E5362"/>
<path opacity="0.1" d="M709.697 264.041L710.448 288C710.448 288 721.346 279.386 721.69 271.202C722.034 263.018 709.697 264.041 709.697 264.041Z" fill="black"/>
<path opacity="0.1" d="M623.697 287C623.697 287 651.509 325.754 667.69 329.686C683.871 333.618 629.765 299.566 623.697 287Z" fill="black"/>
<path opacity="0.1" d="M653.697 291C653.697 291 669.417 308.782 680.697 311L653.697 291Z" fill="black"/>
<path opacity="0.1" d="M598.697 336C598.697 336 627.334 364.282 643.697 366L598.697 336Z" fill="black"/>
<path opacity="0.1" d="M692.697 182.908C692.702 192.294 689.026 201.306 682.462 208L678.532 205.548C677.012 204.755 675.7 203.613 674.704 202.214C673.405 200.04 673.783 197.311 673.886 194.777C674.101 189.412 672.627 183.606 668.441 180.251C661.655 174.804 650.775 177.82 643.877 172.476C642.216 171.062 640.752 169.43 639.527 167.624L633.059 158.935C632.67 158.422 632.199 157.909 631.697 157.304C636.733 152.34 643.121 148.979 650.058 147.644C656.994 146.309 664.17 147.059 670.682 149.8C677.194 152.541 682.753 157.15 686.659 163.048C690.566 168.946 692.645 175.87 692.636 182.949L692.697 182.908Z" fill="black"/>
<path d="M634.81 136.84C638.001 134.411 641.895 133.131 645.483 131.342C649.072 129.554 652.242 127.278 655.831 125.754C659.419 124.23 663.568 123.335 667.289 124.606C675.272 127.339 678.289 138.455 686.496 140.406C687.882 140.731 689.309 140.762 690.706 140.975C693.372 141.479 695.9 142.541 698.123 144.091C700.346 145.641 702.214 147.644 703.602 149.968C706.341 154.656 707.751 159.998 707.68 165.423C707.793 168.434 707.355 171.44 706.385 174.294C703.959 180.929 697.873 185.471 693.764 191.212C689.875 196.706 687.811 203.276 687.862 210L677.912 203.832C676.395 203.05 675.088 201.917 674.099 200.53C672.804 198.376 673.182 195.673 673.284 193.163C673.498 187.849 672.03 182.097 667.87 178.775C661.101 173.379 650.265 176.367 643.404 171.073C641.749 169.672 640.292 168.055 639.071 166.266L632.628 157.66C631.231 155.79 628.55 153.463 627.939 151.187C626.583 146.289 631.221 139.593 634.81 136.84Z" fill="#362133"/>
<path opacity="0.1" d="M678.842 202.747C677.332 201.967 676.03 200.839 675.044 199.455C673.755 197.308 674.13 194.613 674.232 192.111C674.445 186.814 672.983 181.08 668.83 177.768C662.097 172.389 651.302 175.367 644.458 170.09C642.81 168.694 641.358 167.082 640.142 165.299L633.724 156.719C632.323 154.855 629.662 152.536 629.053 150.267C627.946 146.357 630.749 141.262 633.745 138C630.383 141.1 626.697 146.985 627.946 151.371C628.596 153.64 631.226 155.959 632.617 157.823L639.035 166.403C640.251 168.186 641.703 169.798 643.351 171.194C650.165 176.472 660.96 173.494 667.723 178.872C671.866 182.185 673.328 187.918 673.115 193.216C673.013 195.718 672.638 198.412 673.927 200.559C674.912 201.943 676.215 203.071 677.725 203.851L687.636 210C687.636 209.412 687.636 208.825 687.697 208.248L678.842 202.747Z" fill="black"/>
<path d="M541.752 627C541.752 627 531.958 629.037 533.969 656.24C535.98 683.442 538.997 688.158 543.019 688.494C547.041 688.83 566.649 693.759 565.643 683.738C564.638 673.716 563.632 651.494 564.97 648.092C566.307 644.69 571.616 635.555 566.548 633.345L562.456 638.763C562.456 638.763 551.727 628.742 545.362 636.044C545.362 636.044 539.409 629.373 541.752 627Z" fill="#494457"/>
<path opacity="0.1" d="M547.697 644C549.857 645.041 551.874 646.311 554.024 647.352C556.141 648.48 558.503 649.045 560.892 648.997C561.907 648.978 562.889 648.632 563.697 648.008" fill="black"/>
<path opacity="0.1" d="M613.697 670C614.929 671.143 615.884 672.604 617.274 673.548C619.244 674.879 621.766 674.959 624.17 674.989C624.57 675.025 624.974 674.974 625.352 674.839C625.782 674.604 626.145 674.262 626.407 673.846L627.697 672.166" fill="black"/>
<path d="M446.216 219.597C446.216 219.597 441.719 175.961 459.209 186.701C476.698 197.441 464.655 216.528 464.655 216.528L460.548 230L446.216 219.597Z" fill="#FFC1C7"/>
<path d="M474.697 80.2342L484.884 70.2133C484.884 70.2133 504.412 13.915 523.768 28.3748C543.123 42.8346 499.238 79.3974 499.238 79.3974L487.604 93L474.697 80.2342Z" fill="#FFC1C7"/>
<path d="M325.212 302.361L324.697 313.735C324.697 313.735 334.141 329.797 338.085 330.971C342.03 332.146 341.69 297 341.69 297L325.212 302.361Z" fill="#FF5374"/>
<path opacity="0.1" d="M325.212 302.361L324.697 313.735C324.697 313.735 334.141 329.797 338.085 330.971C342.03 332.146 341.69 297 341.69 297L325.212 302.361Z" fill="black"/>
<path d="M341.697 290L342.389 332H389.697L386.136 307.53L341.697 290Z" fill="#FFC1C7"/>
<path d="M351.927 396L354.126 409.588L381.662 471.094C381.662 471.094 394.158 490.461 384.023 506.77C373.888 523.079 363.419 548.562 361.727 564.015C360.034 579.468 346.697 594.595 346.697 594.595L375.753 607C375.753 607 377.78 582.71 385.888 571.324C393.996 559.938 420.001 509.828 420.001 509.828C420.001 509.828 428.281 502.346 426.426 480.094C424.572 457.842 424.734 442.206 424.734 442.206L421.866 406.703L351.927 396Z" fill="#575988"/>
<path opacity="0.1" d="M351.927 396L354.126 409.588L381.662 471.094C381.662 471.094 394.158 490.461 384.023 506.77C373.888 523.079 363.419 548.562 361.727 564.015C360.034 579.468 346.697 594.595 346.697 594.595L375.753 607C375.753 607 377.78 582.71 385.888 571.324C393.996 559.938 420.001 509.828 420.001 509.828C420.001 509.828 428.281 502.346 426.426 480.094C424.572 457.842 424.734 442.206 424.734 442.206L421.866 406.703L351.927 396Z" fill="black"/>
<path d="M349.725 592C349.725 592 318.428 601.44 328.806 616.961C339.184 632.482 372.858 661.986 386.46 660.975C400.062 659.963 394.623 650.007 394.623 650.007L383.225 638.877C383.225 638.877 381.184 615.271 382.042 608.361C382.899 601.45 372.348 598.243 370.98 602.29C369.613 606.337 349.725 592 349.725 592Z" fill="#C4747B"/>
<path d="M369.761 314L344.96 316.739C342.744 316.983 340.701 318.049 339.234 319.726C337.768 321.402 336.986 323.567 337.043 325.791C337.309 335.689 337.482 351.431 336.094 354.302C334.054 358.548 327.77 388.759 354.968 409.287L391.868 420.997L332.697 425.243L334.574 458L343.756 452.909L455.977 458C455.977 458 487.776 454.772 466.179 420.325C444.581 385.878 398.683 352.103 398.683 352.103L398.173 325.282L394.766 317.482L369.761 314Z" fill="#575988"/>
<path opacity="0.1" d="M399.697 421C403.64 419.021 407.895 418 412.197 418C416.499 418 420.755 419.021 424.697 421H399.697Z" fill="black"/>
<path d="M335.567 424.905C335.567 424.905 298.875 419.644 298.701 426.607C298.527 433.57 303.822 501.365 321.405 496.777C338.988 492.19 331.471 469.762 331.471 469.762L344.62 457.191C344.62 457.191 345.982 450.228 337.277 450.901L335.567 424.905Z" fill="#C4747B"/>
<path d="M395.781 235.676L410.109 252.121C410.109 252.121 416.353 259.921 423.77 248.053C431.187 236.184 445.02 215 445.02 215C445.02 215 460.371 228.557 464.418 225.851C468.466 223.146 427.15 282.305 427.15 282.305C427.15 282.305 413.995 301.791 394.425 278.746L388.697 276.03L395.781 235.676Z" fill="#FF5374"/>
<path opacity="0.1" d="M395.781 235.676L410.109 252.121C410.109 252.121 416.353 259.921 423.77 248.053C431.187 236.184 445.02 215 445.02 215C445.02 215 460.371 228.557 464.418 225.851C468.466 223.146 427.15 282.305 427.15 282.305C427.15 282.305 413.995 301.791 394.425 278.746L388.697 276.03L395.781 235.676Z" fill="black"/>
<path d="M351.697 169C368.266 169 381.697 155.569 381.697 139C381.697 122.431 368.266 109 351.697 109C335.129 109 321.697 122.431 321.697 139C321.697 155.569 335.129 169 351.697 169Z" fill="#FFC1C7"/>
<path opacity="0.1" d="M351.306 154.641C351.306 154.641 325.483 166.872 328.539 188.278C331.595 209.683 332.104 236.695 332.104 236.695C332.104 236.695 343.829 254.023 328.284 287.15C328.284 287.15 318.352 303.969 324.973 316.201C324.973 316.201 332.318 296.834 351.306 311.104C370.293 325.374 400.863 332 400.863 332C400.863 332 385.074 262.687 394.751 253.004C394.751 253.004 411.559 228.031 396.279 212.231C381 196.432 388.64 181.652 388.64 181.652L437.708 155.324C437.708 155.324 448.058 155.487 461.983 133.745C470.998 119.851 480.925 106.571 491.697 93.9919C491.697 93.9919 481.164 78.1926 471.324 77C471.324 77 467.412 81.0772 464.703 92.1265C463.256 97.9875 453.426 107.783 444.533 115.683C438.218 121.289 432.126 127.109 426.045 133.011C421.542 137.343 411.519 143.54 389.658 147.047C353.679 152.785 351.306 154.641 351.306 154.641Z" fill="black"/>
<path d="M351.306 152.641C351.306 152.641 325.483 164.872 328.539 186.278C331.595 207.683 332.104 234.695 332.104 234.695C332.104 234.695 343.829 252.023 328.284 285.15C328.284 285.15 318.352 301.969 324.973 314.201C324.973 314.201 332.318 294.834 351.306 309.104C370.293 323.374 400.863 330 400.863 330C400.863 330 385.074 260.687 394.751 251.004C394.751 251.004 411.559 226.031 396.279 210.231C381 194.432 388.64 179.652 388.64 179.652L437.708 153.324C437.708 153.324 448.058 153.487 461.983 131.745C470.998 117.851 480.925 104.571 491.697 91.9919C491.697 91.9919 481.164 76.1926 471.324 75C471.324 75 467.412 79.0772 464.703 90.1265C463.256 95.9875 453.426 105.783 444.533 113.683C438.218 119.289 432.126 125.109 426.045 131.011C421.542 135.343 411.519 141.54 389.658 145.047C353.679 150.785 351.306 152.641 351.306 152.641Z" fill="#FF5374"/>
<path opacity="0.1" d="M373.697 281C373.697 281 394.176 310.853 394.697 316C394.708 316 391.583 283.913 373.697 281Z" fill="black"/>
<path opacity="0.1" d="M347.697 181C347.697 181 361.604 197.111 381.697 183.607C376.144 185.422 370.264 186.127 364.418 185.679C358.572 185.231 352.882 183.639 347.697 181Z" fill="black"/>
<path opacity="0.1" d="M357.631 106.885C357.267 105.364 356.511 103.964 355.44 102.825C350.854 97.0706 345.872 91.1639 339.043 88.4338C334.511 86.74 329.555 86.5414 324.902 87.8672C320.248 89.193 316.141 91.9735 313.181 95.8019C310.726 99.1105 309.264 103.048 307.144 106.59C303.228 113.146 297.17 118.201 290.656 122.199C286.73 124.605 282.59 126.685 278.887 129.415C265.423 139.331 259.203 157.66 262.592 174.07C264.084 181.256 267.239 188.34 266.387 195.637C265.727 201.3 262.714 206.374 259.66 211.185C256.606 215.995 253.349 220.867 252.131 226.408C250.914 231.95 252.192 238.516 256.789 241.875C258.483 243.113 260.522 243.905 261.973 245.387C262.933 246.54 263.735 247.817 264.358 249.182C266.774 253.642 270.075 257.563 274.058 260.704C278.041 263.844 282.622 266.14 287.521 267.45C291.884 268.597 297.738 268.181 299.331 263.959C299.514 263.214 299.79 262.494 300.153 261.818C301.594 259.788 304.77 260.925 307.002 262.092C312.083 264.749 317.651 266.347 323.368 266.791C325.635 267.09 327.941 266.814 330.074 265.989C331.875 265.074 333.425 263.733 334.589 262.082C339.926 255.13 341.458 246.046 342.371 237.328C342.97 231.655 343.386 225.88 342.3 220.278C340.576 211.286 335.107 202.883 335.918 193.769C336.781 184.026 344.685 176.059 345.892 166.367C346.506 161.293 345.239 156.169 342.331 151.966C341.258 150.668 340.348 149.243 339.622 147.724C339.275 146.955 339.168 146.1 339.312 145.27C339.457 144.439 339.848 143.671 340.433 143.065C341.076 142.613 341.789 142.27 342.544 142.051C349.068 139.544 352.548 133.008 353.015 126.32C353.197 123.782 353.015 121.448 353.715 118.972C354.831 115.146 358.21 110.964 357.631 106.885Z" fill="black"/>
<path d="M355.631 106.885C355.267 105.364 354.511 103.964 353.44 102.825C348.854 97.0706 343.872 91.1639 337.043 88.4338C332.511 86.74 327.555 86.5414 322.902 87.8672C318.248 89.193 314.141 91.9735 311.181 95.8019C308.726 99.1105 307.264 103.048 305.144 106.59C301.228 113.146 295.17 118.201 288.656 122.199C284.73 124.605 280.59 126.685 276.887 129.415C263.423 139.331 257.203 157.66 260.592 174.07C262.084 181.256 265.239 188.34 264.387 195.637C263.727 201.3 260.714 206.374 257.66 211.185C254.606 215.995 251.349 220.867 250.131 226.408C248.914 231.95 250.192 238.516 254.789 241.875C256.483 243.113 258.522 243.905 259.973 245.387C260.933 246.54 261.735 247.817 262.358 249.182C264.774 253.642 268.075 257.563 272.058 260.704C276.041 263.844 280.622 266.14 285.521 267.45C289.884 268.597 295.738 268.181 297.331 263.959C297.514 263.214 297.79 262.494 298.153 261.818C299.594 259.788 302.77 260.925 305.002 262.092C310.083 264.749 315.651 266.347 321.368 266.791C323.635 267.09 325.941 266.814 328.074 265.989C329.875 265.074 331.425 263.733 332.589 262.082C337.926 255.13 339.458 246.046 340.371 237.328C340.97 231.655 341.386 225.88 340.3 220.278C338.576 211.286 333.107 202.883 333.918 193.769C334.781 184.026 342.685 176.059 343.892 166.367C344.506 161.293 343.239 156.169 340.331 151.966C339.258 150.668 338.348 149.243 337.622 147.724C337.275 146.955 337.168 146.1 337.312 145.27C337.457 144.439 337.848 143.671 338.433 143.065C339.076 142.613 339.789 142.27 340.544 142.051C347.068 139.544 350.548 133.008 351.015 126.32C351.197 123.782 351.015 121.448 351.715 118.972C352.831 115.146 356.21 110.964 355.631 106.885Z" fill="#BB7684"/>
<g opacity="0.1">
<path opacity="0.1" d="M295.657 262.079C295.296 262.728 295.018 263.417 294.829 264.13C293.889 266.541 291.435 267.649 288.697 267.922C292.505 268.291 296.576 267.406 297.859 264.13C298.048 263.417 298.326 262.728 298.687 262.079C298.941 261.722 299.29 261.436 299.697 261.252C298.162 260.825 296.586 260.844 295.657 262.079Z" fill="black"/>
<path opacity="0.1" d="M356.631 106.926C356.276 105.4 355.519 103.997 354.438 102.863C349.848 97.1043 344.863 91.193 338.029 88.4608C335.059 87.3008 331.867 86.8219 328.688 87.0591C330.847 87.195 332.971 87.6679 334.983 88.4608C341.817 91.193 346.802 97.1043 351.392 102.863C352.473 103.997 353.23 105.4 353.585 106.926C354.164 110.989 350.793 115.204 349.676 118.962C348.934 121.44 349.148 123.766 348.975 126.316C348.498 132.999 345.025 139.52 338.486 142.059C337.731 142.278 337.017 142.621 336.374 143.075C335.788 143.683 335.397 144.454 335.254 145.287C335.111 146.12 335.222 146.977 335.572 147.747C336.295 149.267 337.202 150.693 338.273 151.992C341.186 156.194 342.458 161.318 341.847 166.395C340.629 176.115 332.709 184.078 331.856 193.819C331.044 202.96 336.527 211.349 338.243 220.338C339.319 225.945 338.913 231.724 338.314 237.402C337.4 246.127 335.877 255.227 330.526 262.175C329.365 263.827 327.817 265.17 326.018 266.085C324.966 266.546 323.843 266.825 322.697 266.908C324.855 267.165 327.042 266.882 329.064 266.085C330.866 265.194 332.424 263.876 333.602 262.246C338.953 255.299 340.476 246.198 341.39 237.473C341.989 231.795 342.406 226.016 341.319 220.409C339.603 211.421 334.12 203 334.932 193.89C335.806 184.129 343.705 176.166 344.924 166.466C345.534 161.389 344.263 156.265 341.35 152.063C340.279 150.764 339.372 149.338 338.649 147.818C338.299 147.048 338.188 146.191 338.331 145.358C338.474 144.525 338.864 143.754 339.451 143.146C340.094 142.693 340.808 142.349 341.563 142.13C348.102 139.611 351.574 133.07 352.052 126.387C352.224 123.837 352.052 121.511 352.752 119.033C353.839 115.204 357.21 111.019 356.631 106.926Z" fill="black"/>
</g>
<path opacity="0.1" d="M317.697 466C319.432 467.707 321.665 468.939 324.141 469.555C326.617 470.171 329.236 470.147 331.697 469.484" fill="black"/>
<path opacity="0.1" d="M382.697 640C381.728 640.819 380.6 641.408 379.391 641.727C378.183 642.045 376.922 642.086 375.697 641.846" fill="black"/>
<path opacity="0.1" d="M108.197 672C123.385 672 135.697 669.985 135.697 667.5C135.697 665.015 123.385 663 108.197 663C93.0094 663 80.6973 665.015 80.6973 667.5C80.6973 669.985 93.0094 672 108.197 672Z" fill="#84CC16"/>
<path d="M858.197 764C873.385 764 885.697 761.985 885.697 759.5C885.697 757.015 873.385 755 858.197 755C843.009 755 830.697 757.015 830.697 759.5C830.697 761.985 843.009 764 858.197 764Z" fill="#84CC16"/>
<path opacity="0.1" d="M858.197 675C873.385 675 885.697 672.985 885.697 670.5C885.697 668.015 873.385 666 858.197 666C843.009 666 830.697 668.015 830.697 670.5C830.697 672.985 843.009 675 858.197 675Z" fill="#84CC16"/>
<path opacity="0.1" d="M185.197 715C200.385 715 212.697 712.985 212.697 710.5C212.697 708.015 200.385 706 185.197 706C170.009 706 157.697 708.015 157.697 710.5C157.697 712.985 170.009 715 185.197 715Z" fill="#84CC16"/>
<path d="M944.697 717C967.341 717 985.697 713.866 985.697 710C985.697 706.134 967.341 703 944.697 703C922.054 703 903.697 706.134 903.697 710C903.697 713.866 922.054 717 944.697 717Z" fill="#84CC16"/>
<path opacity="0.1" d="M356.197 780C407.284 780 448.697 773.06 448.697 764.5C448.697 755.94 407.284 749 356.197 749C305.111 749 263.697 755.94 263.697 764.5C263.697 773.06 305.111 780 356.197 780Z" fill="#84CC16"/>
<path d="M961.651 698.732C963.525 697.218 964.891 695.177 965.571 692.879C966.071 690.554 965.071 687.774 962.835 686.925C960.325 685.975 957.64 687.693 955.609 689.442C953.578 691.191 951.24 693.162 948.576 692.798C949.946 691.57 950.971 690.01 951.551 688.272C952.13 686.534 952.245 684.676 951.883 682.881C951.768 682.137 951.45 681.438 950.965 680.859C949.566 679.383 947.045 680.02 945.371 681.183C940.064 684.883 938.583 692.02 938.553 698.449C938.022 696.134 938.471 693.718 938.461 691.373C938.451 689.028 937.787 686.318 935.766 685.075C934.517 684.393 933.11 684.045 931.684 684.064C929.295 683.983 926.641 684.216 925.008 685.944C922.967 688.097 923.508 691.696 925.273 694.032C927.039 696.367 929.714 697.873 932.173 699.511C934.153 700.676 935.842 702.269 937.114 704.171C937.261 704.436 937.384 704.714 937.481 705H952.435C955.778 703.331 958.878 701.223 961.651 698.732Z" fill="#84CC16"/>
<path d="M874.661 748.695C876.531 747.183 877.894 745.146 878.57 742.853C879.07 740.533 878.08 737.809 875.835 736.911C873.324 735.963 870.639 737.678 868.608 739.423C866.577 741.168 864.24 743.136 861.576 742.772C862.946 741.546 863.971 739.99 864.55 738.255C865.13 736.52 865.245 734.667 864.883 732.875C864.773 732.131 864.455 731.432 863.964 730.858C862.576 729.385 860.045 730.02 858.381 731.18C853.073 734.873 851.593 741.996 851.563 748.412C851.022 746.102 851.471 743.69 851.461 741.35C851.451 739.009 850.787 736.306 848.766 735.065C847.513 734.399 846.106 734.069 844.683 734.106C842.295 734.025 839.641 734.257 838.008 735.983C835.967 738.132 836.508 741.723 838.273 744.054C840.039 746.384 842.713 747.887 845.183 749.522C847.159 750.686 848.845 752.276 850.113 754.173C850.26 754.437 850.383 754.714 850.481 755H865.434C868.782 753.317 871.886 751.196 874.661 748.695Z" fill="#84CC16"/>
<path d="M216.335 657C216.335 657 202.011 608.447 219.027 572.717C226.272 557.77 228.462 540.878 225.266 524.582C223.689 516.862 221.406 509.303 218.446 502" stroke="#535461" stroke-width="2" stroke-miterlimit="10"/>
<path d="M229.692 479.008C229.692 484.907 218.692 502 218.692 502C218.692 502 207.702 484.907 207.702 479.008C207.657 477.578 207.908 476.155 208.44 474.821C208.972 473.488 209.775 472.271 210.801 471.245C211.826 470.218 213.053 469.402 214.41 468.845C215.766 468.287 217.224 468 218.697 468C220.17 468 221.628 468.287 222.985 468.845C224.341 469.402 225.569 470.218 226.594 471.245C227.619 472.271 228.422 473.488 228.954 474.821C229.486 476.155 229.737 477.578 229.692 479.008Z" fill="#84CC16"/>
<path d="M246.139 512.384C242.935 517.371 224.697 526 224.697 526C224.697 526 225.03 505.648 228.234 500.671C229.808 498.358 232.214 496.757 234.94 496.208C237.665 495.659 240.495 496.206 242.828 497.732C245.16 499.258 246.811 501.642 247.43 504.379C248.048 507.115 247.585 509.987 246.139 512.384Z" fill="#84CC16"/>
<path d="M246.091 568.524C240.816 571.246 220.697 569.369 220.697 569.369C220.697 569.369 231.176 551.746 236.451 549.034C238.972 547.827 241.855 547.67 244.487 548.597C247.12 549.525 249.294 551.463 250.549 554C251.804 556.537 252.04 559.473 251.208 562.185C250.375 564.897 248.54 567.171 246.091 568.524Z" fill="#84CC16"/>
<path d="M235.789 610.971C231.001 614.461 210.697 616 210.697 616C210.697 616 218.175 597.291 222.922 593.791C225.226 592.273 228.033 591.689 230.761 592.158C233.489 592.628 235.93 594.115 237.579 596.313C239.227 598.51 239.956 601.249 239.615 603.963C239.274 606.676 237.89 609.157 235.748 610.89L235.789 610.971Z" fill="#84CC16"/>
<path d="M202.764 526.485C207 530.665 226.697 535 226.697 535C226.697 535 221.876 515.063 217.62 510.882C215.573 508.959 212.869 507.926 210.084 508.004C207.3 508.082 204.656 509.265 202.715 511.3C200.775 513.335 199.692 516.062 199.697 518.898C199.703 521.735 200.796 524.457 202.744 526.485H202.764Z" fill="#84CC16"/>
<path d="M191.376 576.535C196.638 579.242 216.697 577.369 216.697 577.369C216.697 577.369 206.244 559.776 200.982 557.069C198.463 555.837 195.57 555.663 192.926 556.584C190.282 557.505 188.097 559.447 186.839 561.995C185.582 564.543 185.353 567.492 186.201 570.211C187.049 572.929 188.907 575.2 191.376 576.535Z" fill="#84CC16"/>
<path d="M186.606 625.969C191.394 629.47 211.697 631 211.697 631C211.697 631 204.22 612.283 199.472 608.791C197.169 607.273 194.362 606.689 191.633 607.158C188.905 607.628 186.464 609.116 184.816 611.314C183.168 613.513 182.439 616.253 182.779 618.968C183.12 621.683 184.505 624.164 186.647 625.898L186.606 625.969Z" fill="#84CC16"/>
<path d="M182.697 653.823C182.697 653.823 200.017 650.395 204.643 645.827C209.268 641.259 230.039 633.274 232.347 638.981C234.655 644.688 263.524 664.098 243.897 667.526C224.27 670.954 197.709 672.094 191.939 669.815C186.169 667.536 182.697 653.823 182.697 653.823Z" fill="#A8A8A8"/>
<path opacity="0.2" d="M243.927 664.482C224.3 667.844 197.739 668.962 191.969 666.717C187.566 665.016 184.509 656.827 183.305 653L182.697 653.148C182.697 653.148 186.159 666.588 191.939 668.833C197.719 671.078 224.269 669.951 243.897 666.588C249.565 665.599 251.185 663.345 250.577 660.457C250.122 662.306 248.148 663.76 243.927 664.482Z" fill="black"/>
<path d="M863.118 604C863.118 604 868.727 611.388 860.539 622.495C852.351 633.602 845.6 643.044 848.302 650C848.302 650 860.661 629.296 870.735 629.009C880.81 628.721 874.161 616.422 863.118 604Z" fill="#84CC16"/>
<path opacity="0.1" d="M863.96 604C864.456 604.715 864.849 605.496 865.126 606.321C875.046 617.923 880.327 628.756 870.787 629.023C861.908 629.279 851.255 645.092 848.697 649.086C848.781 649.396 848.881 649.701 848.996 650C848.996 650 861.495 629.31 871.684 629.023C881.874 628.735 875.129 616.414 863.96 604Z" fill="black"/>
<path d="M873.697 612.58C873.697 615.022 873.469 617 873.193 617C872.918 617 872.697 615.07 872.697 612.58C872.697 610.091 872.973 611.287 873.248 611.287C873.524 611.287 873.697 610.139 873.697 612.58Z" fill="#FFD037"/>
<path d="M877.269 615.512C874.925 616.57 872.877 617.209 872.709 616.938C872.54 616.667 874.281 615.6 876.625 614.541C878.968 613.483 878.05 614.253 878.229 614.541C878.409 614.83 879.612 614.454 877.269 615.512Z" fill="#FFD037"/>
<path d="M834.281 604C834.281 604 828.675 611.388 836.86 622.495C845.046 633.602 851.794 643.044 849.092 650C849.092 650 836.748 629.296 826.667 629.009C816.586 628.721 823.222 616.422 834.281 604Z" fill="#84CC16"/>
<path opacity="0.1" d="M834.443 604C833.948 604.715 833.556 605.496 833.279 606.321C823.364 617.923 818.087 628.756 827.621 629.023C836.495 629.279 847.141 645.092 849.697 649.086C849.614 649.397 849.511 649.702 849.388 650C849.388 650 836.907 629.31 826.714 629.023C816.52 628.735 823.261 616.414 834.443 604Z" fill="black"/>
<path d="M823.697 612.58C823.697 615.022 823.926 617 824.201 617C824.477 617 824.697 615.07 824.697 612.58C824.697 610.091 824.422 611.287 824.146 611.287C823.87 611.287 823.697 610.139 823.697 612.58Z" fill="#FFD037"/>
<path d="M820.125 615.512C822.468 616.57 824.505 617.209 824.685 616.938C824.864 616.667 823.112 615.6 820.769 614.541C818.426 613.483 819.345 614.253 819.165 614.541C818.986 614.83 817.783 614.454 820.125 615.512Z" fill="#FFD037"/>
<path d="M824.697 648.319C824.697 648.319 840.281 647.839 844.988 644.546C849.696 641.254 868.962 637.311 870.129 642.545C871.296 647.779 893.545 668.855 875.953 668.995C858.36 669.135 835.076 666.293 830.389 663.481C825.702 660.669 824.697 648.319 824.697 648.319Z" fill="#A8A8A8"/>
<path opacity="0.2" d="M876.27 667.15C858.673 667.292 835.383 664.413 830.695 661.564C827.123 659.395 825.692 651.599 825.225 648H824.697C824.697 648 825.712 660.56 830.38 663.409C835.048 666.258 858.359 669.137 875.956 668.995C881.03 668.995 882.785 667.15 882.694 664.484C881.984 666.116 880.045 667.119 876.27 667.15Z" fill="black"/>
</g>
<defs>
<linearGradient id="paint0_linear_44_778" x1="540.726" y1="715.043" x2="540.726" y2="22.0027" gradientUnits="userSpaceOnUse">
<stop stop-color="#808080" stop-opacity="0.25"/>
<stop offset="0.54" stop-color="#808080" stop-opacity="0.12"/>
<stop offset="1" stop-color="#808080" stop-opacity="0.1"/>
</linearGradient>
<clipPath id="clip0_44_778">
<rect width="1027" height="780" fill="white" transform="translate(0.697266)"/>
</clipPath>
</defs>
</svg>
