<svg width="24" height="24" viewBox="0 0 24 24" fill="none" xmlns="http://www.w3.org/2000/svg">
<path fill-rule="evenodd" clip-rule="evenodd" d="M14.329 20.0005C14.262 20.0005 14.193 19.9975 14.124 19.9905C13.244 19.9035 12.554 19.2825 12.364 18.4075L9.681 6.0155L6.918 12.3975C6.759 12.7635 6.398 13.0005 6 13.0005H3C2.447 13.0005 2 12.5525 2 12.0005C2 11.4475 2.447 11.0005 3 11.0005H5.344L7.85 5.2115C8.205 4.3955 8.987 3.9205 9.876 4.0095C10.756 4.0965 11.446 4.7175 11.636 5.5925L14.319 17.9845L17.082 11.6025C17.241 11.2365 17.601 11.0005 18 11.0005H21C21.553 11.0005 22 11.4475 22 12.0005C22 12.5525 21.553 13.0005 21 13.0005H18.656L16.15 18.7885C15.823 19.5415 15.122 20.0005 14.329 20.0005Z" fill="#365314"/>
<mask id="mask0_13_18835" style="mask-type:luminance" maskUnits="userSpaceOnUse" x="2" y="3" width="20" height="18">
<path fill-rule="evenodd" clip-rule="evenodd" d="M14.329 20.0005C14.262 20.0005 14.193 19.9975 14.124 19.9905C13.244 19.9035 12.554 19.2825 12.364 18.4075L9.681 6.0155L6.918 12.3975C6.759 12.7635 6.398 13.0005 6 13.0005H3C2.447 13.0005 2 12.5525 2 12.0005C2 11.4475 2.447 11.0005 3 11.0005H5.344L7.85 5.2115C8.205 4.3955 8.987 3.9205 9.876 4.0095C10.756 4.0965 11.446 4.7175 11.636 5.5925L14.319 17.9845L17.082 11.6025C17.241 11.2365 17.601 11.0005 18 11.0005H21C21.553 11.0005 22 11.4475 22 12.0005C22 12.5525 21.553 13.0005 21 13.0005H18.656L16.15 18.7885C15.823 19.5415 15.122 20.0005 14.329 20.0005Z" fill="white"/>
</mask>
<g mask="url(#mask0_13_18835)">
<rect width="24" height="24" fill="#365314"/>
</g>
</svg>
