<svg width="24" height="24" viewBox="0 0 24 24" fill="none" xmlns="http://www.w3.org/2000/svg">
<path fill-rule="evenodd" clip-rule="evenodd" d="M13.8287 19C13.5367 19 13.2467 18.873 13.0487 18.627L8.22066 12.627C7.92266 12.256 7.92666 11.726 8.23166 11.36L13.2317 5.36C13.5847 4.936 14.2157 4.879 14.6407 5.232C15.0647 5.585 15.1217 6.216 14.7677 6.64L10.2927 12.011L14.6077 17.373C14.9537 17.803 14.8857 18.433 14.4547 18.779C14.2707 18.928 14.0487 19 13.8287 19Z" fill="#365314"/>
<mask id="mask0_13_18859" style="mask-type:luminance" maskUnits="userSpaceOnUse" x="8" y="5" width="7" height="14">
<path fill-rule="evenodd" clip-rule="evenodd" d="M13.8287 19C13.5367 19 13.2467 18.873 13.0487 18.627L8.22066 12.627C7.92266 12.256 7.92666 11.726 8.23166 11.36L13.2317 5.36C13.5847 4.936 14.2157 4.879 14.6407 5.232C15.0647 5.585 15.1217 6.216 14.7677 6.64L10.2927 12.011L14.6077 17.373C14.9537 17.803 14.8857 18.433 14.4547 18.779C14.2707 18.928 14.0487 19 13.8287 19Z" fill="white"/>
</mask>
<g mask="url(#mask0_13_18859)">
<rect width="24" height="24" fill="#365314"/>
</g>
</svg>
