<svg width="24" height="24" viewBox="0 0 24 24" fill="none" xmlns="http://www.w3.org/2000/svg">
<path fill-rule="evenodd" clip-rule="evenodd" d="M18.7684 6.6402L14.2924 12.0112L18.6074 17.3732C18.9534 17.8032 18.8854 18.4322 18.4554 18.7792C18.2704 18.9282 18.0484 19.0002 17.8284 19.0002C17.5364 19.0002 17.2464 18.8722 17.0484 18.6272L12.2204 12.6272C11.9224 12.2562 11.9264 11.7252 12.2314 11.3602L17.2314 5.3602C17.5854 4.9352 18.2154 4.8792 18.6404 5.2322C19.0644 5.5852 19.1214 6.2162 18.7684 6.6402ZM10.232 5.3599C10.585 4.9359 11.215 4.8789 11.64 5.2319C12.064 5.5859 12.121 6.2159 11.768 6.6399L7.29204 12.0109L11.607 17.3729C11.953 17.8029 11.885 18.4329 11.455 18.7789C11.27 18.9279 11.049 18.9999 10.828 18.9999C10.536 18.9999 10.246 18.8729 10.049 18.6269L5.22104 12.6269C4.92204 12.2559 4.92704 11.7259 5.23204 11.3599L10.232 5.3599Z" fill="#365314"/>
<mask id="mask0_13_18848" style="mask-type:luminance" maskUnits="userSpaceOnUse" x="5" y="5" width="14" height="15">
<path fill-rule="evenodd" clip-rule="evenodd" d="M18.7684 6.6402L14.2924 12.0112L18.6074 17.3732C18.9534 17.8032 18.8854 18.4322 18.4554 18.7792C18.2704 18.9282 18.0484 19.0002 17.8284 19.0002C17.5364 19.0002 17.2464 18.8722 17.0484 18.6272L12.2204 12.6272C11.9224 12.2562 11.9264 11.7252 12.2314 11.3602L17.2314 5.3602C17.5854 4.9352 18.2154 4.8792 18.6404 5.2322C19.0644 5.5852 19.1214 6.2162 18.7684 6.6402ZM10.232 5.3599C10.585 4.9359 11.215 4.8789 11.64 5.2319C12.064 5.5859 12.121 6.2159 11.768 6.6399L7.29204 12.0109L11.607 17.3729C11.953 17.8029 11.885 18.4329 11.455 18.7789C11.27 18.9279 11.049 18.9999 10.828 18.9999C10.536 18.9999 10.246 18.8729 10.049 18.6269L5.22104 12.6269C4.92204 12.2559 4.92704 11.7259 5.23204 11.3599L10.232 5.3599Z" fill="white"/>
</mask>
<g mask="url(#mask0_13_18848)">
<rect width="24" height="24" fill="#365314"/>
</g>
</svg>
