<svg width="24" height="24" viewBox="0 0 24 24" fill="none" xmlns="http://www.w3.org/2000/svg">
<path fill-rule="evenodd" clip-rule="evenodd" d="M15.828 16.0003C15.879 15.9773 16 15.8243 16 15.5713V8.4283C16 8.1703 15.874 8.0163 15.824 7.9983L4.167 8.0003C4.126 8.0163 4 8.1703 4 8.4283V15.5713C4 15.8293 4.126 15.9833 4.176 16.0013L15.828 16.0003ZM4.167 6.0003H15.833C17.028 6.0003 18 7.0893 18 8.4283V15.5713C18 16.9103 17.028 18.0003 15.833 18.0003H4.167C2.972 18.0003 2 16.9103 2 15.5713V8.4283C2 7.0893 2.972 6.0003 4.167 6.0003ZM20 10C20 9.448 20.448 9 21 9C21.552 9 22 9.448 22 10V14C22 14.552 21.552 15 21 15C20.448 15 20 14.552 20 14V10Z" fill="#365314"/>
<mask id="mask0_13_18844" style="mask-type:luminance" maskUnits="userSpaceOnUse" x="2" y="6" width="20" height="13">
<path fill-rule="evenodd" clip-rule="evenodd" d="M15.828 16.0003C15.879 15.9773 16 15.8243 16 15.5713V8.4283C16 8.1703 15.874 8.0163 15.824 7.9983L4.167 8.0003C4.126 8.0163 4 8.1703 4 8.4283V15.5713C4 15.8293 4.126 15.9833 4.176 16.0013L15.828 16.0003ZM4.167 6.0003H15.833C17.028 6.0003 18 7.0893 18 8.4283V15.5713C18 16.9103 17.028 18.0003 15.833 18.0003H4.167C2.972 18.0003 2 16.9103 2 15.5713V8.4283C2 7.0893 2.972 6.0003 4.167 6.0003ZM20 10C20 9.448 20.448 9 21 9C21.552 9 22 9.448 22 10V14C22 14.552 21.552 15 21 15C20.448 15 20 14.552 20 14V10Z" fill="white"/>
</mask>
<g mask="url(#mask0_13_18844)">
<rect width="24" height="24" fill="#365314"/>
</g>
</svg>
