<svg width="24" height="24" viewBox="0 0 24 24" fill="none" xmlns="http://www.w3.org/2000/svg">
<path fill-rule="evenodd" clip-rule="evenodd" d="M17.7657 7.39261L11.8987 13.2576C11.7477 13.0316 11.5747 12.8176 11.3777 12.6216C11.1807 12.4246 10.9667 12.2526 10.7407 12.1046L16.6097 6.23761C16.9157 5.93061 17.4577 5.92961 17.7667 6.23861C17.9197 6.39161 18.0027 6.59161 17.9997 6.82761C18.0027 7.03861 17.9187 7.23861 17.7657 7.39261ZM8.24568 17.9406L6.01768 17.9816L6.05668 15.7506C6.07768 14.4846 7.12668 13.4346 8.39568 13.4126C8.40968 13.4126 8.42168 13.4116 8.43568 13.4116C9.01968 13.4116 9.56068 13.6316 9.96368 14.0356C10.3767 14.4476 10.5977 15.0036 10.5877 15.6016C10.5667 16.8696 9.51568 17.9186 8.24568 17.9406ZM19.9997 6.82761C20.0097 6.07161 19.7177 5.35961 19.1807 4.82361C18.1187 3.76261 16.2557 3.75961 15.1957 4.82361L8.58268 11.4336C8.50768 11.4296 8.43568 11.4136 8.36068 11.4126C6.02668 11.4546 4.09568 13.3856 4.05668 15.7166L3.99968 18.9826C3.99468 19.2536 4.10168 19.5156 4.29268 19.7066C4.48068 19.8946 4.73568 19.9996 4.99968 19.9996H5.01868L8.28468 19.9406C10.6167 19.8996 12.5467 17.9686 12.5877 15.6356C12.5887 15.5606 12.5727 15.4896 12.5707 15.4136L19.1797 8.80661C19.7177 8.26861 20.0097 7.55661 19.9997 6.82761Z" fill="#365314"/>
<mask id="mask0_13_19045" style="mask-type:luminance" maskUnits="userSpaceOnUse" x="3" y="4" width="17" height="16">
<path fill-rule="evenodd" clip-rule="evenodd" d="M17.7657 7.39261L11.8987 13.2576C11.7477 13.0316 11.5747 12.8176 11.3777 12.6216C11.1807 12.4246 10.9667 12.2526 10.7407 12.1046L16.6097 6.23761C16.9157 5.93061 17.4577 5.92961 17.7667 6.23861C17.9197 6.39161 18.0027 6.59161 17.9997 6.82761C18.0027 7.03861 17.9187 7.23861 17.7657 7.39261ZM8.24568 17.9406L6.01768 17.9816L6.05668 15.7506C6.07768 14.4846 7.12668 13.4346 8.39568 13.4126C8.40968 13.4126 8.42168 13.4116 8.43568 13.4116C9.01968 13.4116 9.56068 13.6316 9.96368 14.0356C10.3767 14.4476 10.5977 15.0036 10.5877 15.6016C10.5667 16.8696 9.51568 17.9186 8.24568 17.9406ZM19.9997 6.82761C20.0097 6.07161 19.7177 5.35961 19.1807 4.82361C18.1187 3.76261 16.2557 3.75961 15.1957 4.82361L8.58268 11.4336C8.50768 11.4296 8.43568 11.4136 8.36068 11.4126C6.02668 11.4546 4.09568 13.3856 4.05668 15.7166L3.99968 18.9826C3.99468 19.2536 4.10168 19.5156 4.29268 19.7066C4.48068 19.8946 4.73568 19.9996 4.99968 19.9996H5.01868L8.28468 19.9406C10.6167 19.8996 12.5467 17.9686 12.5877 15.6356C12.5887 15.5606 12.5727 15.4896 12.5707 15.4136L19.1797 8.80661C19.7177 8.26861 20.0097 7.55661 19.9997 6.82761Z" fill="white"/>
</mask>
<g mask="url(#mask0_13_19045)">
<rect width="24" height="24" fill="#365314"/>
</g>
</svg>
