<svg width="24" height="24" viewBox="0 0 24 24" fill="none" xmlns="http://www.w3.org/2000/svg">
<path fill-rule="evenodd" clip-rule="evenodd" d="M19.7808 12.3755L15.7808 7.3755C15.4358 6.9435 14.8058 6.8745 14.3758 7.2195C13.9438 7.5635 13.8738 8.1935 14.2188 8.6245L16.9198 12.0005H7.99976C7.44876 12.0005 6.99976 11.5515 6.99976 11.0005V6.0005C6.99976 5.4475 6.55176 5.0005 5.99976 5.0005C5.44776 5.0005 4.99976 5.4475 4.99976 6.0005V11.0005C4.99976 12.6545 6.34576 14.0005 7.99976 14.0005H16.9198L14.2188 17.3755C13.8738 17.8065 13.9438 18.4365 14.3758 18.7805C14.5598 18.9285 14.7808 19.0005 14.9998 19.0005C15.2928 19.0005 15.5838 18.8715 15.7808 18.6245L19.7808 13.6245C20.0728 13.2595 20.0728 12.7405 19.7808 12.3755Z" fill="#365314"/>
<mask id="mask0_13_18904" style="mask-type:luminance" maskUnits="userSpaceOnUse" x="4" y="5" width="16" height="15">
<path fill-rule="evenodd" clip-rule="evenodd" d="M19.7808 12.3755L15.7808 7.3755C15.4358 6.9435 14.8058 6.8745 14.3758 7.2195C13.9438 7.5635 13.8738 8.1935 14.2188 8.6245L16.9198 12.0005H7.99976C7.44876 12.0005 6.99976 11.5515 6.99976 11.0005V6.0005C6.99976 5.4475 6.55176 5.0005 5.99976 5.0005C5.44776 5.0005 4.99976 5.4475 4.99976 6.0005V11.0005C4.99976 12.6545 6.34576 14.0005 7.99976 14.0005H16.9198L14.2188 17.3755C13.8738 17.8065 13.9438 18.4365 14.3758 18.7805C14.5598 18.9285 14.7808 19.0005 14.9998 19.0005C15.2928 19.0005 15.5838 18.8715 15.7808 18.6245L19.7808 13.6245C20.0728 13.2595 20.0728 12.7405 19.7808 12.3755Z" fill="white"/>
</mask>
<g mask="url(#mask0_13_18904)">
<rect width="24" height="24" fill="#365314"/>
</g>
</svg>
