<svg width="24" height="24" viewBox="0 0 24 24" fill="none" xmlns="http://www.w3.org/2000/svg">
<path fill-rule="evenodd" clip-rule="evenodd" d="M7.49521 9.51647C5.46321 11.7155 5.50621 15.2015 7.62421 17.3605C8.65821 18.4175 10.0322 19.0005 11.4962 19.0015H11.5012C12.9682 19.0015 14.3472 18.4185 15.3862 17.3605C17.5422 15.1625 17.5382 11.5875 15.3772 9.39247L12.3912 6.34147C12.0892 8.82347 11.1582 11.0015 9.50021 11.0015C8.99221 11.0015 8.16421 10.7755 7.49521 9.51647ZM11.5012 21.0015H11.4942C9.48821 20.9995 7.60621 20.2045 6.19521 18.7595C3.28121 15.7895 3.27721 10.9565 6.18621 7.99147L7.16921 6.99747C7.42321 6.74347 7.79221 6.64547 8.14121 6.73647C8.48821 6.83047 8.75821 7.10347 8.84821 7.45147C9.07821 8.34047 9.35221 8.77747 9.50321 8.94347C9.85821 8.56947 10.5002 7.05847 10.5002 4.50147C10.5002 4.35447 10.5002 4.21547 10.4922 4.07647C10.4732 3.78147 10.5862 3.49247 10.8002 3.28847C11.1972 2.91147 11.8332 2.91147 12.2142 3.30347L16.8042 7.99247C19.7242 10.9565 19.7292 15.7895 16.8142 18.7605C15.3952 20.2065 13.5092 21.0015 11.5012 21.0015Z" fill="#365314"/>
<mask id="mask0_13_19067" style="mask-type:luminance" maskUnits="userSpaceOnUse" x="4" y="3" width="15" height="19">
<path fill-rule="evenodd" clip-rule="evenodd" d="M7.49521 9.51647C5.46321 11.7155 5.50621 15.2015 7.62421 17.3605C8.65821 18.4175 10.0322 19.0005 11.4962 19.0015H11.5012C12.9682 19.0015 14.3472 18.4185 15.3862 17.3605C17.5422 15.1625 17.5382 11.5875 15.3772 9.39247L12.3912 6.34147C12.0892 8.82347 11.1582 11.0015 9.50021 11.0015C8.99221 11.0015 8.16421 10.7755 7.49521 9.51647ZM11.5012 21.0015H11.4942C9.48821 20.9995 7.60621 20.2045 6.19521 18.7595C3.28121 15.7895 3.27721 10.9565 6.18621 7.99147L7.16921 6.99747C7.42321 6.74347 7.79221 6.64547 8.14121 6.73647C8.48821 6.83047 8.75821 7.10347 8.84821 7.45147C9.07821 8.34047 9.35221 8.77747 9.50321 8.94347C9.85821 8.56947 10.5002 7.05847 10.5002 4.50147C10.5002 4.35447 10.5002 4.21547 10.4922 4.07647C10.4732 3.78147 10.5862 3.49247 10.8002 3.28847C11.1972 2.91147 11.8332 2.91147 12.2142 3.30347L16.8042 7.99247C19.7242 10.9565 19.7292 15.7895 16.8142 18.7605C15.3952 20.2065 13.5092 21.0015 11.5012 21.0015Z" fill="white"/>
</mask>
<g mask="url(#mask0_13_19067)">
<rect width="24" height="24" fill="#365314"/>
</g>
</svg>
