<svg width="24" height="24" viewBox="0 0 24 24" fill="none" xmlns="http://www.w3.org/2000/svg">
<path fill-rule="evenodd" clip-rule="evenodd" d="M7.86617 9.09859L13.0642 10.1556C13.4582 10.2346 13.7652 10.5416 13.8452 10.9356L14.9012 16.1336L18.4192 5.58059L7.86617 9.09859ZM14.6672 20.9996C14.6462 20.9996 14.6262 20.9986 14.6062 20.9976C14.1542 20.9706 13.7772 20.6426 13.6862 20.1996L12.0172 11.9826L3.80117 10.3126C3.35717 10.2226 3.02917 9.84559 3.00217 9.39359C2.97417 8.94159 3.25417 8.52759 3.68317 8.38459L19.6832 3.05159C20.0432 2.92959 20.4392 3.02459 20.7072 3.29259C20.9752 3.56059 21.0682 3.95659 20.9492 4.31659L15.6152 20.3166C15.4782 20.7266 15.0952 20.9996 14.6672 20.9996Z" fill="#365314"/>
<mask id="mask0_13_18976" style="mask-type:luminance" maskUnits="userSpaceOnUse" x="3" y="2" width="18" height="19">
<path fill-rule="evenodd" clip-rule="evenodd" d="M7.86617 9.09859L13.0642 10.1556C13.4582 10.2346 13.7652 10.5416 13.8452 10.9356L14.9012 16.1336L18.4192 5.58059L7.86617 9.09859ZM14.6672 20.9996C14.6462 20.9996 14.6262 20.9986 14.6062 20.9976C14.1542 20.9706 13.7772 20.6426 13.6862 20.1996L12.0172 11.9826L3.80117 10.3126C3.35717 10.2226 3.02917 9.84559 3.00217 9.39359C2.97417 8.94159 3.25417 8.52759 3.68317 8.38459L19.6832 3.05159C20.0432 2.92959 20.4392 3.02459 20.7072 3.29259C20.9752 3.56059 21.0682 3.95659 20.9492 4.31659L15.6152 20.3166C15.4782 20.7266 15.0952 20.9996 14.6672 20.9996Z" fill="white"/>
</mask>
<g mask="url(#mask0_13_18976)">
<rect width="24" height="24" fill="#365314"/>
</g>
</svg>
