<svg width="24" height="24" viewBox="0 0 24 24" fill="none" xmlns="http://www.w3.org/2000/svg">
<path fill-rule="evenodd" clip-rule="evenodd" d="M4.40287 11.6221C5.51887 12.0051 6.40787 12.9391 6.77987 14.1231L6.81987 14.2431C7.24587 15.4991 7.07287 16.8511 6.35887 17.8651C6.22887 18.0491 6.25787 18.2691 6.39487 18.3731L8.46687 19.9471C8.53987 20.0021 8.61087 20.0021 8.65487 19.9971C8.70487 19.9891 8.77787 19.9621 8.83687 19.8781L9.06787 19.5501C9.75687 18.5731 10.8669 17.9701 12.0389 17.9361C13.3549 17.9091 14.5369 18.5121 15.2729 19.5751L15.3909 19.7461C15.4499 19.8301 15.5219 19.8581 15.5729 19.8661C15.6169 19.8751 15.6889 19.8721 15.7609 19.8161L17.8219 18.2611C17.9659 18.1531 17.9979 17.9221 17.8909 17.7671L17.6309 17.3921C16.9609 16.4241 16.7619 15.1681 17.0989 14.0331C17.4649 12.7971 18.3959 11.8191 19.5909 11.4191L19.7919 11.3511C19.9529 11.2981 20.0399 11.0981 19.9829 10.9141L19.1959 8.3931C19.1589 8.2751 19.0829 8.2221 19.0409 8.2001C18.9809 8.1691 18.9159 8.1641 18.8539 8.1851L18.5139 8.2981C17.3509 8.6851 16.0679 8.4751 15.0829 7.7341L14.9749 7.6531C14.0389 6.9491 13.4819 5.8141 13.4859 4.6181L13.4879 4.3381C13.4879 4.2051 13.4249 4.1221 13.3869 4.0841C13.3509 4.0471 13.2899 4.0031 13.2039 4.0031L10.6569 4.0001C10.5009 4.0001 10.3739 4.1491 10.3729 4.3331L10.3719 4.5751C10.3669 5.7901 9.79787 6.9461 8.84987 7.6691L8.72087 7.7671C7.67787 8.5601 6.31787 8.7841 5.08587 8.3641C5.03887 8.3481 4.99487 8.3511 4.95287 8.3731C4.92087 8.3891 4.86287 8.4301 4.83487 8.5211L4.01787 11.1171C3.95887 11.3061 4.05587 11.5031 4.23887 11.5661L4.40287 11.6221ZM8.61387 22.0001C8.12787 22.0001 7.65587 21.8421 7.25787 21.5391L5.18587 19.9661C4.19587 19.2161 3.97687 17.7731 4.69687 16.7501C5.07087 16.2201 5.14787 15.5391 4.92787 14.8931L4.87287 14.7251C4.68987 14.1431 4.27187 13.6911 3.75487 13.5141H3.75387L3.59087 13.4571C2.37287 13.0401 1.72287 11.7491 2.10987 10.5171L2.92587 7.9221C3.11087 7.3351 3.50987 6.8611 4.04987 6.5881C4.57787 6.3221 5.17487 6.2811 5.73287 6.4721C6.33187 6.6761 6.99687 6.5651 7.50987 6.1751L7.63887 6.0771C8.09487 5.7291 8.36987 5.1641 8.37187 4.5671L8.37287 4.3261C8.37787 3.0421 9.40287 2.0001 10.6559 2.0001H10.6599L13.2069 2.0031C13.8089 2.0041 14.3769 2.2421 14.8049 2.6731C15.2479 3.1181 15.4899 3.7131 15.4879 4.3481L15.4859 4.6271C15.4839 5.1931 15.7429 5.7281 16.1799 6.0561L16.2869 6.1371C16.7459 6.4821 17.3439 6.5811 17.8809 6.4011L18.2199 6.2881C18.7969 6.0961 19.4109 6.1431 19.9519 6.4201C20.5069 6.7041 20.9169 7.1931 21.1049 7.7981L21.8919 10.3191C22.2719 11.5371 21.6139 12.8511 20.4269 13.2481L20.2259 13.3151C19.6499 13.5091 19.1969 13.9891 19.0159 14.6011C18.8499 15.1621 18.9459 15.7791 19.2749 16.2531L19.5349 16.6281C20.2489 17.6601 20.0209 19.1081 19.0269 19.8571L16.9659 21.4131C16.4709 21.7871 15.8639 21.9381 15.2549 21.8411C14.6409 21.7421 14.1049 21.4021 13.7459 20.8841L13.6279 20.7121C13.2779 20.2081 12.7179 19.9021 12.1309 19.9351C11.5429 19.9511 11.0349 20.2301 10.7029 20.7021L10.4719 21.0301C10.1099 21.5431 9.57287 21.8781 8.96187 21.9741C8.84487 21.9921 8.72887 22.0001 8.61387 22.0001ZM12.0001 10.5C11.1731 10.5 10.5001 11.173 10.5001 12C10.5001 12.827 11.1731 13.5 12.0001 13.5C12.8271 13.5 13.5001 12.827 13.5001 12C13.5001 11.173 12.8271 10.5 12.0001 10.5ZM12.0001 15.5C10.0701 15.5 8.50007 13.93 8.50007 12C8.50007 10.07 10.0701 8.5 12.0001 8.5C13.9301 8.5 15.5001 10.07 15.5001 12C15.5001 13.93 13.9301 15.5 12.0001 15.5Z" fill="#365314"/>
<mask id="mask0_13_18877" style="mask-type:luminance" maskUnits="userSpaceOnUse" x="1" y="2" width="21" height="20">
<path fill-rule="evenodd" clip-rule="evenodd" d="M4.40287 11.6221C5.51887 12.0051 6.40787 12.9391 6.77987 14.1231L6.81987 14.2431C7.24587 15.4991 7.07287 16.8511 6.35887 17.8651C6.22887 18.0491 6.25787 18.2691 6.39487 18.3731L8.46687 19.9471C8.53987 20.0021 8.61087 20.0021 8.65487 19.9971C8.70487 19.9891 8.77787 19.9621 8.83687 19.8781L9.06787 19.5501C9.75687 18.5731 10.8669 17.9701 12.0389 17.9361C13.3549 17.9091 14.5369 18.5121 15.2729 19.5751L15.3909 19.7461C15.4499 19.8301 15.5219 19.8581 15.5729 19.8661C15.6169 19.8751 15.6889 19.8721 15.7609 19.8161L17.8219 18.2611C17.9659 18.1531 17.9979 17.9221 17.8909 17.7671L17.6309 17.3921C16.9609 16.4241 16.7619 15.1681 17.0989 14.0331C17.4649 12.7971 18.3959 11.8191 19.5909 11.4191L19.7919 11.3511C19.9529 11.2981 20.0399 11.0981 19.9829 10.9141L19.1959 8.3931C19.1589 8.2751 19.0829 8.2221 19.0409 8.2001C18.9809 8.1691 18.9159 8.1641 18.8539 8.1851L18.5139 8.2981C17.3509 8.6851 16.0679 8.4751 15.0829 7.7341L14.9749 7.6531C14.0389 6.9491 13.4819 5.8141 13.4859 4.6181L13.4879 4.3381C13.4879 4.2051 13.4249 4.1221 13.3869 4.0841C13.3509 4.0471 13.2899 4.0031 13.2039 4.0031L10.6569 4.0001C10.5009 4.0001 10.3739 4.1491 10.3729 4.3331L10.3719 4.5751C10.3669 5.7901 9.79787 6.9461 8.84987 7.6691L8.72087 7.7671C7.67787 8.5601 6.31787 8.7841 5.08587 8.3641C5.03887 8.3481 4.99487 8.3511 4.95287 8.3731C4.92087 8.3891 4.86287 8.4301 4.83487 8.5211L4.01787 11.1171C3.95887 11.3061 4.05587 11.5031 4.23887 11.5661L4.40287 11.6221ZM8.61387 22.0001C8.12787 22.0001 7.65587 21.8421 7.25787 21.5391L5.18587 19.9661C4.19587 19.2161 3.97687 17.7731 4.69687 16.7501C5.07087 16.2201 5.14787 15.5391 4.92787 14.8931L4.87287 14.7251C4.68987 14.1431 4.27187 13.6911 3.75487 13.5141H3.75387L3.59087 13.4571C2.37287 13.0401 1.72287 11.7491 2.10987 10.5171L2.92587 7.9221C3.11087 7.3351 3.50987 6.8611 4.04987 6.5881C4.57787 6.3221 5.17487 6.2811 5.73287 6.4721C6.33187 6.6761 6.99687 6.5651 7.50987 6.1751L7.63887 6.0771C8.09487 5.7291 8.36987 5.1641 8.37187 4.5671L8.37287 4.3261C8.37787 3.0421 9.40287 2.0001 10.6559 2.0001H10.6599L13.2069 2.0031C13.8089 2.0041 14.3769 2.2421 14.8049 2.6731C15.2479 3.1181 15.4899 3.7131 15.4879 4.3481L15.4859 4.6271C15.4839 5.1931 15.7429 5.7281 16.1799 6.0561L16.2869 6.1371C16.7459 6.4821 17.3439 6.5811 17.8809 6.4011L18.2199 6.2881C18.7969 6.0961 19.4109 6.1431 19.9519 6.4201C20.5069 6.7041 20.9169 7.1931 21.1049 7.7981L21.8919 10.3191C22.2719 11.5371 21.6139 12.8511 20.4269 13.2481L20.2259 13.3151C19.6499 13.5091 19.1969 13.9891 19.0159 14.6011C18.8499 15.1621 18.9459 15.7791 19.2749 16.2531L19.5349 16.6281C20.2489 17.6601 20.0209 19.1081 19.0269 19.8571L16.9659 21.4131C16.4709 21.7871 15.8639 21.9381 15.2549 21.8411C14.6409 21.7421 14.1049 21.4021 13.7459 20.8841L13.6279 20.7121C13.2779 20.2081 12.7179 19.9021 12.1309 19.9351C11.5429 19.9511 11.0349 20.2301 10.7029 20.7021L10.4719 21.0301C10.1099 21.5431 9.57287 21.8781 8.96187 21.9741C8.84487 21.9921 8.72887 22.0001 8.61387 22.0001ZM12.0001 10.5C11.1731 10.5 10.5001 11.173 10.5001 12C10.5001 12.827 11.1731 13.5 12.0001 13.5C12.8271 13.5 13.5001 12.827 13.5001 12C13.5001 11.173 12.8271 10.5 12.0001 10.5ZM12.0001 15.5C10.0701 15.5 8.50007 13.93 8.50007 12C8.50007 10.07 10.0701 8.5 12.0001 8.5C13.9301 8.5 15.5001 10.07 15.5001 12C15.5001 13.93 13.9301 15.5 12.0001 15.5Z" fill="white"/>
</mask>
<g mask="url(#mask0_13_18877)">
<rect width="24" height="24" fill="#365314"/>
</g>
</svg>
