<svg width="24" height="24" viewBox="0 0 24 24" fill="none" xmlns="http://www.w3.org/2000/svg">
<path fill-rule="evenodd" clip-rule="evenodd" d="M12 4.1465L5 8.0845V8.2295C5 12.9695 7.566 17.3585 11.698 19.6835L12 19.8535L12.302 19.6835C16.434 17.3585 19 12.9695 19 8.2295V8.0845L12 4.1465ZM12 21.8505C11.661 21.8505 11.322 21.7665 11.021 21.5965L10.718 21.4255C5.957 18.7485 3 13.6915 3 8.2295V8.0845C3 7.3655 3.39 6.6975 4.018 6.3425L11.02 2.4045C11.625 2.0645 12.376 2.0635 12.979 2.4035L19.98 6.3415C20.61 6.6975 21 7.3655 21 8.0845V8.2295C21 13.6915 18.043 18.7485 13.282 21.4255L12.98 21.5955C12.678 21.7655 12.339 21.8505 12 21.8505Z" fill="#365314"/>
<mask id="mask0_13_18958" style="mask-type:luminance" maskUnits="userSpaceOnUse" x="3" y="2" width="18" height="20">
<path fill-rule="evenodd" clip-rule="evenodd" d="M12 4.1465L5 8.0845V8.2295C5 12.9695 7.566 17.3585 11.698 19.6835L12 19.8535L12.302 19.6835C16.434 17.3585 19 12.9695 19 8.2295V8.0845L12 4.1465ZM12 21.8505C11.661 21.8505 11.322 21.7665 11.021 21.5965L10.718 21.4255C5.957 18.7485 3 13.6915 3 8.2295V8.0845C3 7.3655 3.39 6.6975 4.018 6.3425L11.02 2.4045C11.625 2.0645 12.376 2.0635 12.979 2.4035L19.98 6.3415C20.61 6.6975 21 7.3655 21 8.0845V8.2295C21 13.6915 18.043 18.7485 13.282 21.4255L12.98 21.5955C12.678 21.7655 12.339 21.8505 12 21.8505Z" fill="white"/>
</mask>
<g mask="url(#mask0_13_18958)">
<rect width="24" height="24" fill="#365314"/>
</g>
</svg>
