<svg width="24" height="24" viewBox="0 0 24 24" fill="none" xmlns="http://www.w3.org/2000/svg">
<path fill-rule="evenodd" clip-rule="evenodd" d="M20.9923 6.9629C20.9902 6.8909 20.9692 6.8229 20.9503 6.7539C20.9353 6.6959 20.9283 6.6369 20.9033 6.5839C20.8803 6.5319 20.8413 6.4899 20.8073 6.4419C20.7653 6.3809 20.7273 6.3199 20.6733 6.2699C20.6643 6.2609 20.6603 6.2489 20.6503 6.2409C20.6143 6.2099 20.5703 6.1989 20.5313 6.1739C20.4713 6.1349 20.4123 6.0949 20.3443 6.0689C20.2773 6.0449 20.2113 6.0389 20.1423 6.0289C20.0943 6.0219 20.0513 5.9999 20.0003 5.9999H15.0003C14.4473 5.9999 14.0003 6.4479 14.0003 6.9999C14.0003 7.5519 14.4473 7.9999 15.0003 7.9999H17.8263L13.7903 12.7079L9.51425 10.1429C9.09125 9.8869 8.54725 9.9809 8.23125 10.3599L3.23125 16.3599C2.87825 16.7839 2.93525 17.4149 3.35925 17.7679C3.54725 17.9239 3.77325 17.9999 3.99925 17.9999C4.28625 17.9999 4.57025 17.8779 4.76825 17.6399L9.22025 12.2979L13.4853 14.8579C13.9043 15.1089 14.4423 15.0209 14.7593 14.6509L19.0003 9.7029V11.9999C19.0003 12.5519 19.4473 12.9999 20.0003 12.9999C20.5533 12.9999 21.0003 12.5519 21.0003 11.9999V6.9999C21.0003 6.9869 20.9932 6.9759 20.9923 6.9629Z" fill="#365314"/>
<mask id="mask0_13_18912" style="mask-type:luminance" maskUnits="userSpaceOnUse" x="2" y="6" width="20" height="12">
<path fill-rule="evenodd" clip-rule="evenodd" d="M20.9923 6.9629C20.9902 6.8909 20.9692 6.8229 20.9503 6.7539C20.9353 6.6959 20.9283 6.6369 20.9033 6.5839C20.8803 6.5319 20.8413 6.4899 20.8073 6.4419C20.7653 6.3809 20.7273 6.3199 20.6733 6.2699C20.6643 6.2609 20.6603 6.2489 20.6503 6.2409C20.6143 6.2099 20.5703 6.1989 20.5313 6.1739C20.4713 6.1349 20.4123 6.0949 20.3443 6.0689C20.2773 6.0449 20.2113 6.0389 20.1423 6.0289C20.0943 6.0219 20.0513 5.9999 20.0003 5.9999H15.0003C14.4473 5.9999 14.0003 6.4479 14.0003 6.9999C14.0003 7.5519 14.4473 7.9999 15.0003 7.9999H17.8263L13.7903 12.7079L9.51425 10.1429C9.09125 9.8869 8.54725 9.9809 8.23125 10.3599L3.23125 16.3599C2.87825 16.7839 2.93525 17.4149 3.35925 17.7679C3.54725 17.9239 3.77325 17.9999 3.99925 17.9999C4.28625 17.9999 4.57025 17.8779 4.76825 17.6399L9.22025 12.2979L13.4853 14.8579C13.9043 15.1089 14.4423 15.0209 14.7593 14.6509L19.0003 9.7029V11.9999C19.0003 12.5519 19.4473 12.9999 20.0003 12.9999C20.5533 12.9999 21.0003 12.5519 21.0003 11.9999V6.9999C21.0003 6.9869 20.9932 6.9759 20.9923 6.9629Z" fill="white"/>
</mask>
<g mask="url(#mask0_13_18912)">
<rect width="24" height="24" fill="#365314"/>
</g>
</svg>
