<svg width="24" height="24" viewBox="0 0 24 24" fill="none" xmlns="http://www.w3.org/2000/svg">
<path fill-rule="evenodd" clip-rule="evenodd" d="M17 15.5859L15 13.5859L8.414 6.99991L6.414 4.99991L4.707 3.29291C4.316 2.90191 3.684 2.90191 3.293 3.29291C2.902 3.68391 2.902 4.31591 3.293 4.70691L3.826 5.23991L5.586 6.99991L14.931 16.3449L16.386 17.7999L19.293 20.7069C19.488 20.9019 19.744 20.9999 20 20.9999C20.256 20.9999 20.512 20.9019 20.707 20.7069C21.098 20.3159 21.098 19.6839 20.707 19.2929L17 15.5859ZM20 14.5996L17.191 11.9996L20 9.40061V14.5996ZM21.012 7.14561C20.386 6.87261 19.66 6.99161 19.161 7.45161L17 9.45161V7.99961C17 6.34561 15.654 4.99961 14 4.99961H7.828L9.828 6.99961H14C14.552 6.99961 15 7.44861 15 7.99961V12.1716L19.718 16.8896C19.91 16.9616 20.113 16.9996 20.319 16.9996C20.553 16.9996 20.788 16.9526 21.012 16.8546C21.621 16.5886 22 16.0196 22 15.3706V8.62961C22 7.98061 21.621 7.41161 21.012 7.14561ZM5 17H14C14.0313 17 14.0595 16.9921 14.088 16.9842C14.106 16.9792 14.124 16.9741 14.143 16.971L15.665 18.493C15.188 18.812 14.616 19 14 19H5C3.346 19 2 17.654 2 16V8.00001C2 7.12901 2.379 6.35101 2.974 5.80201L4.396 7.22401C4.161 7.40701 4 7.68001 4 8.00001V16C4 16.552 4.448 17 5 17Z" fill="#365314"/>
<mask id="mask0_13_19016" style="mask-type:luminance" maskUnits="userSpaceOnUse" x="2" y="2" width="20" height="19">
<path fill-rule="evenodd" clip-rule="evenodd" d="M17 15.5859L15 13.5859L8.414 6.99991L6.414 4.99991L4.707 3.29291C4.316 2.90191 3.684 2.90191 3.293 3.29291C2.902 3.68391 2.902 4.31591 3.293 4.70691L3.826 5.23991L5.586 6.99991L14.931 16.3449L16.386 17.7999L19.293 20.7069C19.488 20.9019 19.744 20.9999 20 20.9999C20.256 20.9999 20.512 20.9019 20.707 20.7069C21.098 20.3159 21.098 19.6839 20.707 19.2929L17 15.5859ZM20 14.5996L17.191 11.9996L20 9.40061V14.5996ZM21.012 7.14561C20.386 6.87261 19.66 6.99161 19.161 7.45161L17 9.45161V7.99961C17 6.34561 15.654 4.99961 14 4.99961H7.828L9.828 6.99961H14C14.552 6.99961 15 7.44861 15 7.99961V12.1716L19.718 16.8896C19.91 16.9616 20.113 16.9996 20.319 16.9996C20.553 16.9996 20.788 16.9526 21.012 16.8546C21.621 16.5886 22 16.0196 22 15.3706V8.62961C22 7.98061 21.621 7.41161 21.012 7.14561ZM5 17H14C14.0313 17 14.0595 16.9921 14.088 16.9842C14.106 16.9792 14.124 16.9741 14.143 16.971L15.665 18.493C15.188 18.812 14.616 19 14 19H5C3.346 19 2 17.654 2 16V8.00001C2 7.12901 2.379 6.35101 2.974 5.80201L4.396 7.22401C4.161 7.40701 4 7.68001 4 8.00001V16C4 16.552 4.448 17 5 17Z" fill="white"/>
</mask>
<g mask="url(#mask0_13_19016)">
<rect width="24" height="24" fill="#365314"/>
</g>
</svg>
