<svg width="24" height="24" viewBox="0 0 24 24" fill="none" xmlns="http://www.w3.org/2000/svg">
<path fill-rule="evenodd" clip-rule="evenodd" d="M9.899 14.6036L15 18.1016V5.89859L9.899 9.39659C9.732 9.50959 9.535 9.57159 9.333 9.57159H5V14.4286H9.333C9.535 14.4286 9.732 14.4906 9.899 14.6036ZM15.435 3.17459C15.741 2.96459 16.138 2.94159 16.466 3.11559C16.794 3.28859 17 3.62859 17 3.99959V19.9996C17 20.3716 16.794 20.7116 16.466 20.8846C16.32 20.9616 16.16 20.9996 16 20.9996C15.802 20.9996 15.604 20.9416 15.435 20.8256L9.023 16.4286H4C3.448 16.4286 3 15.9816 3 15.4286V8.57159C3 8.01859 3.448 7.57159 4 7.57159H9.023L15.435 3.17459ZM19.3733 8.22099C19.8023 7.87599 20.4333 7.94299 20.7793 8.37299C22.4153 10.407 22.4153 13.593 20.7793 15.627C20.5813 15.872 20.2913 16 19.9993 16C19.7793 16 19.5583 15.928 19.3733 15.779C18.9433 15.433 18.8743 14.804 19.2203 14.373C20.2563 13.087 20.2563 10.913 19.2203 9.62699C18.8743 9.19599 18.9433 8.56699 19.3733 8.22099Z" fill="#365314"/>
<mask id="mask0_13_19022" style="mask-type:luminance" maskUnits="userSpaceOnUse" x="3" y="2" width="20" height="19">
<path fill-rule="evenodd" clip-rule="evenodd" d="M9.899 14.6036L15 18.1016V5.89859L9.899 9.39659C9.732 9.50959 9.535 9.57159 9.333 9.57159H5V14.4286H9.333C9.535 14.4286 9.732 14.4906 9.899 14.6036ZM15.435 3.17459C15.741 2.96459 16.138 2.94159 16.466 3.11559C16.794 3.28859 17 3.62859 17 3.99959V19.9996C17 20.3716 16.794 20.7116 16.466 20.8846C16.32 20.9616 16.16 20.9996 16 20.9996C15.802 20.9996 15.604 20.9416 15.435 20.8256L9.023 16.4286H4C3.448 16.4286 3 15.9816 3 15.4286V8.57159C3 8.01859 3.448 7.57159 4 7.57159H9.023L15.435 3.17459ZM19.3733 8.22099C19.8023 7.87599 20.4333 7.94299 20.7793 8.37299C22.4153 10.407 22.4153 13.593 20.7793 15.627C20.5813 15.872 20.2913 16 19.9993 16C19.7793 16 19.5583 15.928 19.3733 15.779C18.9433 15.433 18.8743 14.804 19.2203 14.373C20.2563 13.087 20.2563 10.913 19.2203 9.62699C18.8743 9.19599 18.9433 8.56699 19.3733 8.22099Z" fill="white"/>
</mask>
<g mask="url(#mask0_13_19022)">
<rect width="24" height="24" fill="#365314"/>
</g>
</svg>
