<svg width="24" height="24" viewBox="0 0 24 24" fill="none" xmlns="http://www.w3.org/2000/svg">
<path fill-rule="evenodd" clip-rule="evenodd" d="M12.4364 11.0225L10.5444 9.1305L8.08243 6.6675L6.53143 5.1175L4.70743 3.2935C4.31643 2.9025 3.68343 2.9025 3.29243 3.2935C2.90243 3.6835 2.90243 4.3165 3.29243 4.7075L4.66843 6.0835L6.12943 7.5435L8.36343 9.7775L9.90943 11.3235L12.6484 14.0625L15.4414 16.8555L19.2924 20.7075C19.4884 20.9025 19.7444 21.0005 19.9994 21.0005C20.2554 21.0005 20.5114 20.9025 20.7074 20.7075C21.0974 20.3165 21.0974 19.6835 20.7074 19.2935L12.4364 11.0225ZM11.9999 18C11.4469 18 10.9999 18.448 10.9999 19C10.9999 19.552 11.4469 20 11.9999 20C12.5529 20 12.9999 19.552 12.9999 19C12.9999 18.448 12.5529 18 11.9999 18ZM11.9995 4.0002C15.6475 4.0002 19.1005 5.3952 21.7245 7.9292C22.1215 8.3122 22.1325 8.9462 21.7495 9.3432C21.5535 9.5462 21.2915 9.6482 21.0305 9.6482C20.7805 9.6482 20.5295 9.5552 20.3355 9.3672C18.0855 7.1962 15.1255 6.0002 11.9995 6.0002C11.0365 6.0002 10.0915 6.1272 9.17553 6.3472L7.56053 4.7322C8.97653 4.2602 10.4685 4.0002 11.9995 4.0002ZM3.82413 6.6528C3.28513 7.0428 2.76213 7.4598 2.27513 7.9288C1.87813 8.3128 1.86713 8.9458 2.25013 9.3428C2.63413 9.7408 3.26913 9.7518 3.66413 9.3678C4.16013 8.8888 4.69613 8.4658 5.25613 8.0838L3.82413 6.6528ZM17.7551 13.4427C17.4931 13.4427 17.2311 13.3407 17.0351 13.1377C16.2431 12.3167 15.2581 11.7117 14.1861 11.3587L11.8371 9.0087C11.8622 9.00824 11.8873 9.00627 11.9124 9.00428C11.9415 9.002 11.9707 8.9997 12.0001 8.9997C14.4281 8.9997 16.7881 10.0017 18.4741 11.7477C18.8571 12.1457 18.8471 12.7787 18.4491 13.1617C18.2561 13.3497 18.0051 13.4427 17.7551 13.4427ZM7.43153 10.2603C6.73753 10.6683 6.09053 11.1623 5.52553 11.7483C5.14253 12.1453 5.15353 12.7793 5.55053 13.1623C5.94653 13.5463 6.58053 13.5353 6.96453 13.1373C7.52653 12.5553 8.18853 12.0883 8.90553 11.7343L7.43153 10.2603ZM8.50223 16.8173C8.11923 16.4203 8.13023 15.7873 8.52723 15.4033C9.27923 14.6763 10.2262 14.2273 11.2442 14.0723L13.7612 16.5903C12.6192 15.7753 10.9412 15.8523 9.91623 16.8413C9.52023 17.2263 8.88623 17.2153 8.50223 16.8173Z" fill="#365314"/>
<mask id="mask0_13_18853" style="mask-type:luminance" maskUnits="userSpaceOnUse" x="1" y="3" width="22" height="19">
<path fill-rule="evenodd" clip-rule="evenodd" d="M12.4364 11.0225L10.5444 9.1305L8.08243 6.6675L6.53143 5.1175L4.70743 3.2935C4.31643 2.9025 3.68343 2.9025 3.29243 3.2935C2.90243 3.6835 2.90243 4.3165 3.29243 4.7075L4.66843 6.0835L6.12943 7.5435L8.36343 9.7775L9.90943 11.3235L12.6484 14.0625L15.4414 16.8555L19.2924 20.7075C19.4884 20.9025 19.7444 21.0005 19.9994 21.0005C20.2554 21.0005 20.5114 20.9025 20.7074 20.7075C21.0974 20.3165 21.0974 19.6835 20.7074 19.2935L12.4364 11.0225ZM11.9999 18C11.4469 18 10.9999 18.448 10.9999 19C10.9999 19.552 11.4469 20 11.9999 20C12.5529 20 12.9999 19.552 12.9999 19C12.9999 18.448 12.5529 18 11.9999 18ZM11.9995 4.0002C15.6475 4.0002 19.1005 5.3952 21.7245 7.9292C22.1215 8.3122 22.1325 8.9462 21.7495 9.3432C21.5535 9.5462 21.2915 9.6482 21.0305 9.6482C20.7805 9.6482 20.5295 9.5552 20.3355 9.3672C18.0855 7.1962 15.1255 6.0002 11.9995 6.0002C11.0365 6.0002 10.0915 6.1272 9.17553 6.3472L7.56053 4.7322C8.97653 4.2602 10.4685 4.0002 11.9995 4.0002ZM3.82413 6.6528C3.28513 7.0428 2.76213 7.4598 2.27513 7.9288C1.87813 8.3128 1.86713 8.9458 2.25013 9.3428C2.63413 9.7408 3.26913 9.7518 3.66413 9.3678C4.16013 8.8888 4.69613 8.4658 5.25613 8.0838L3.82413 6.6528ZM17.7551 13.4427C17.4931 13.4427 17.2311 13.3407 17.0351 13.1377C16.2431 12.3167 15.2581 11.7117 14.1861 11.3587L11.8371 9.0087C11.8622 9.00824 11.8873 9.00627 11.9124 9.00428C11.9415 9.002 11.9707 8.9997 12.0001 8.9997C14.4281 8.9997 16.7881 10.0017 18.4741 11.7477C18.8571 12.1457 18.8471 12.7787 18.4491 13.1617C18.2561 13.3497 18.0051 13.4427 17.7551 13.4427ZM7.43153 10.2603C6.73753 10.6683 6.09053 11.1623 5.52553 11.7483C5.14253 12.1453 5.15353 12.7793 5.55053 13.1623C5.94653 13.5463 6.58053 13.5353 6.96453 13.1373C7.52653 12.5553 8.18853 12.0883 8.90553 11.7343L7.43153 10.2603ZM8.50223 16.8173C8.11923 16.4203 8.13023 15.7873 8.52723 15.4033C9.27923 14.6763 10.2262 14.2273 11.2442 14.0723L13.7612 16.5903C12.6192 15.7753 10.9412 15.8523 9.91623 16.8413C9.52023 17.2263 8.88623 17.2153 8.50223 16.8173Z" fill="white"/>
</mask>
<g mask="url(#mask0_13_18853)">
<rect width="24" height="24" fill="#365314"/>
</g>
</svg>
