<svg width="20" height="20" viewBox="0 0 20 20" fill="none" xmlns="http://www.w3.org/2000/svg">
<path d="M1.70798 13.0661C1.85554 13.4758 2.24827 13.7508 2.68493 13.7508C2.80409 13.7508 2.9216 13.7303 3.03413 13.6897L8.81891 11.605C8.88668 11.5805 8.9503 11.5497 9.00937 11.5132C9.06118 11.5082 9.11237 11.4991 9.16148 11.4815L13.5492 9.90022L13.1453 11.5961C13.0753 11.8902 13.1984 12.2771 13.4257 12.4767L14.8903 13.7628C15.0267 13.8826 15.2206 13.9512 15.4227 13.9512C15.5614 13.9512 15.6923 13.9187 15.8013 13.8569L15.8807 13.8121C16.0299 13.7278 16.1309 13.5885 16.1572 13.4306C16.1837 13.2725 16.1338 13.1081 16.0202 12.9799L14.9394 11.7567C14.8358 11.6396 14.7832 11.3967 14.8285 11.2471L15.5309 8.93633C15.5696 8.80929 15.5645 8.68764 15.5195 8.5836C15.5149 8.56702 15.5131 8.55024 15.5071 8.53366L15.0584 7.28875C14.9697 7.04316 14.7345 6.87799 14.4725 6.87799C14.4008 6.87799 14.3301 6.89043 14.2628 6.91467L8.29168 9.0671C8.13584 9.12326 8.01108 9.23704 7.9402 9.38771C7.89916 9.47516 7.88176 9.56842 7.88321 9.6621L2.30712 11.6715C1.76953 11.8653 1.48976 12.4601 1.68353 12.9977L1.70798 13.0661Z" fill="#365314"/>
<path d="M19.8739 6.25727C19.5734 5.42374 18.7767 4.86377 17.8912 4.86377C17.6479 4.86377 17.4077 4.90605 17.1768 4.98894C16.6473 5.17982 16.2237 5.5655 15.9841 6.0749C15.7445 6.5843 15.7178 7.1565 15.9087 7.68601C16.2092 8.51954 17.0058 9.07951 17.8914 9.07951C18.1345 9.07951 18.3749 9.03723 18.6055 8.95434C19.1353 8.76347 19.5589 8.37779 19.7982 7.86838C20.0378 7.35898 20.0647 6.78678 19.8739 6.25727Z" fill="#365314"/>
<path d="M19.17 14.3073H0.414486C0.18569 14.3073 0 14.4929 0 14.7217C0 14.9505 0.18569 15.1362 0.414486 15.1362H19.17C19.3988 15.1362 19.5845 14.9505 19.5845 14.7217C19.5845 14.4929 19.3988 14.3073 19.17 14.3073Z" fill="#365314"/>
</svg>
