<svg width="20" height="20" viewBox="0 0 20 20" fill="none" xmlns="http://www.w3.org/2000/svg">
<g clip-path="url(#clip0_88_47)">
<path d="M6.93205 16.7249C6.95144 16.205 6.76754 15.7092 6.41401 15.3281C6.04692 14.9327 5.52677 14.7058 4.98677 14.7058C4.49443 14.7058 4.0243 14.8902 3.66351 15.2253C3.2824 15.5788 3.06182 16.0592 3.0422 16.5789C3.02257 17.0986 3.20646 17.5946 3.56 17.9755C3.92709 18.3713 4.44723 18.5982 4.98724 18.5982C4.98724 18.5982 4.98724 18.5982 4.98747 18.5982C5.47957 18.5982 5.94948 18.4139 6.31073 18.0788C6.69184 17.7253 6.91242 17.2444 6.93205 16.7249Z" fill="#365314"/>
<path d="M15.3779 7.25882C15.2428 7.05085 15.0388 6.93168 14.8185 6.93168C14.6182 6.93168 14.4301 7.02865 14.289 7.20507L12.8531 9.0001C12.6648 9.23563 12.2778 9.54828 12.008 9.68311L10.9445 10.2147L11.6649 9.46883C11.9189 9.20596 12.2271 8.73512 12.3669 8.39724L13.3284 6.06992C13.4936 5.66988 13.3721 5.12871 13.0515 4.83803L12.8751 4.67773C12.7377 4.55295 12.5802 4.48706 12.4199 4.48706C12.1633 4.48706 11.9428 4.65904 11.8439 4.93617L10.9677 7.39434C10.867 7.67661 10.5999 8.0909 10.3844 8.29933L8.68545 9.94131C8.66162 9.96444 8.64292 9.99061 8.62236 10.0158C8.58661 10.038 8.5525 10.063 8.52118 10.0925L6.65582 11.8585C6.63152 11.8639 6.60745 11.8653 6.58292 11.8737L4.80472 12.4848C4.53623 12.5771 4.15022 12.7846 3.9259 12.957L1.97104 14.4607C1.67428 14.6892 1.5939 15.1334 1.79205 15.4512L1.90398 15.6309C2.02478 15.8246 2.22878 15.9405 2.44959 15.9405C2.59797 15.9405 2.7398 15.8893 2.85991 15.7926L4.29275 14.6387C4.47431 14.4924 4.81196 14.2999 5.02974 14.2181L5.75504 13.9461L7.2449 15.5521C7.25401 15.5619 7.26476 15.5689 7.27434 15.578L7.15891 16.5267C7.13063 16.7578 7.02291 17.1315 6.92384 17.342L6.13965 19.0069C6.05904 19.1779 6.0539 19.3723 6.12587 19.5401C6.19784 19.7079 6.34224 19.838 6.52217 19.8976L6.72289 19.964C6.79579 19.9883 6.87196 20.0002 6.94978 20.0002C7.24653 20.0002 7.5253 19.8219 7.6433 19.5569L8.64409 17.303C8.75929 17.0434 8.86911 16.6186 8.89435 16.3363L9.04063 14.692C9.04133 14.6847 9.04016 14.678 9.04039 14.6707L10.9188 12.6462C10.9523 12.6102 10.9808 12.571 11.0055 12.5299C11.0121 12.5257 11.0191 12.5226 11.0254 12.5184L12.9632 11.2008C13.2613 10.9977 13.6712 10.6185 13.8962 10.3374L15.3321 8.54211C15.6041 8.20236 15.6314 7.65021 15.3945 7.28522L15.3779 7.25882Z" fill="#365314"/>
<path d="M17.8488 2.40698C17.0704 2.40698 16.6564 2.71799 16.3236 2.96778C16.0348 3.18486 15.8261 3.34165 15.3597 3.34165C14.8933 3.34165 14.6847 3.18486 14.3959 2.96778C14.0631 2.71799 13.6488 2.40698 12.8707 2.40698C12.0928 2.40698 11.6788 2.71799 11.3463 2.96802C11.0577 3.18486 10.8493 3.34165 10.3833 3.34165C9.91717 3.34165 9.70874 3.18486 9.41993 2.96802C9.08719 2.71799 8.67313 2.40698 7.89525 2.40698C7.11738 2.40698 6.70332 2.71799 6.37081 2.96802C6.08223 3.18486 5.8738 3.34165 5.40787 3.34165C4.94217 3.34165 4.73398 3.18486 4.4454 2.96802C4.11289 2.71799 3.69907 2.40698 2.92119 2.40698C2.66322 2.40698 2.45386 2.61635 2.45386 2.87432C2.45386 3.13228 2.66322 3.34165 2.92119 3.34165C3.38689 3.34165 3.59532 3.49844 3.8839 3.71528C4.21641 3.96531 4.63023 4.27632 5.40787 4.27632C6.18575 4.27632 6.59981 3.96531 6.93231 3.71528C7.22089 3.49844 7.42932 3.34165 7.89525 3.34165C8.36142 3.34165 8.56985 3.49844 8.85866 3.71528C9.1914 3.96531 9.60546 4.27632 10.3833 4.27632C11.1612 4.27632 11.5753 3.96531 11.9078 3.71528C12.1964 3.49844 12.4048 3.34165 12.8707 3.34165C13.3371 3.34165 13.5458 3.49844 13.8346 3.71552C14.1673 3.96531 14.5816 4.27632 15.3597 4.27632C16.1381 4.27632 16.5521 3.96531 16.8849 3.71552C17.1737 3.49844 17.3824 3.34165 17.8488 3.34165C18.1067 3.34165 18.3161 3.13228 18.3161 2.87432C18.3161 2.61635 18.107 2.40698 17.8488 2.40698Z" fill="#365314"/>
<path d="M2.92119 0.934667C3.38689 0.934667 3.59532 1.09122 3.8839 1.3083C4.21617 1.55809 4.63023 1.86933 5.40787 1.86933C6.18575 1.86933 6.59981 1.55809 6.93231 1.3083C7.22089 1.09122 7.42932 0.934667 7.89525 0.934667C8.36142 0.934667 8.56985 1.09146 8.85866 1.3083C9.1914 1.55832 9.60546 1.86933 10.3833 1.86933C11.1612 1.86933 11.5753 1.55809 11.9078 1.3083C12.1964 1.09122 12.405 0.934667 12.871 0.934667C13.3374 0.934667 13.546 1.09146 13.8348 1.3083C14.1676 1.55832 14.5816 1.86933 15.36 1.86933C16.1383 1.86933 16.5524 1.55832 16.8851 1.3083C17.1742 1.09146 17.3828 0.934667 17.849 0.934667C18.107 0.934667 18.3163 0.725301 18.3163 0.467333C18.3163 0.209365 18.107 0 17.849 0C17.0706 0 16.6566 0.31101 16.3238 0.561034C16.035 0.777876 15.8264 0.934667 15.36 0.934667C14.8936 0.934667 14.6849 0.777876 14.3961 0.561034C14.0634 0.31101 13.6491 0 12.871 0C12.0931 0 11.679 0.311244 11.3465 0.561034C11.0577 0.77811 10.8493 0.934667 10.3833 0.934667C9.91717 0.934667 9.70874 0.777876 9.41993 0.561034C9.08719 0.31101 8.67313 0 7.89525 0C7.11738 0 6.70332 0.311244 6.37081 0.561034C6.08223 0.777876 5.87357 0.934667 5.40787 0.934667C4.94217 0.934667 4.73398 0.77811 4.4454 0.561034C4.11289 0.311244 3.69883 0 2.92119 0C2.66322 0 2.45386 0.209365 2.45386 0.467333C2.45386 0.725301 2.66299 0.934667 2.92119 0.934667Z" fill="#365314"/>
</g>
<defs>
<clipPath id="clip0_88_47">
<rect width="20" height="20" fill="white"/>
</clipPath>
</defs>
</svg>
