<svg width="20" height="20" viewBox="0 0 20 20" fill="none" xmlns="http://www.w3.org/2000/svg">
<path d="M14.9725 9.99082L14.754 9.84844V7.14883C14.754 6.97397 14.6124 6.83245 14.4376 6.83245C14.2627 6.83245 14.1212 6.97397 14.1212 7.14883V9.4363L12.9759 8.69047C12.8217 8.59007 12.6388 8.34772 12.5848 8.17181L11.8114 5.65929C11.7987 5.61858 11.7814 5.58125 11.7618 5.54581C11.6745 5.30114 11.4429 5.12375 11.1691 5.12249L8.40578 5.10941C8.08117 5.10941 7.81625 5.35682 7.78187 5.67236H7.54669V5.52915C7.54669 5.2965 7.35749 5.1073 7.12484 5.1073H6.91392H6.07085H5.15671C4.92406 5.1073 4.73486 5.2965 4.73486 5.52915V7.57258C4.73486 7.80522 4.92406 7.99442 5.15671 7.99442H5.43808V10.5234C5.43808 10.8723 5.72199 11.1562 6.07085 11.1562H6.91392C7.26278 11.1562 7.54669 10.8723 7.54669 10.5234V10.33H7.77512V11.9551L7.69138 14.2745C7.68168 14.5415 7.55512 14.9591 7.41528 15.1865L5.30963 18.6073C5.19953 18.7861 5.17548 18.9907 5.24403 19.1685C5.31258 19.3463 5.4674 19.482 5.66926 19.5406L6.32839 19.7325C6.40243 19.7541 6.48068 19.765 6.56125 19.765C6.88966 19.765 7.21512 19.5838 7.37078 19.3139L9.37835 15.8383C9.54751 15.5455 9.6844 15.0513 9.6901 14.7132L9.7211 12.8408L10.3507 12.8438L10.9799 14.0144C11.1003 14.2384 11.1714 14.6554 11.1322 14.9066L10.5623 18.5486C10.5317 18.7442 10.5785 18.9262 10.6939 19.0612C10.8057 19.1919 10.9696 19.2639 11.1554 19.2639C11.1887 19.2639 11.2229 19.2615 11.2583 19.2567L11.9379 19.1624C12.3323 19.1076 12.6802 18.7553 12.7299 18.3603L13.1897 14.71C13.2323 14.3713 13.1539 13.8632 13.0111 13.5533L11.801 10.9271V10.1551L14.1214 11.3743V19.6836C14.1214 19.8585 14.2629 20 14.4378 20C14.6126 20 14.7542 19.8585 14.7542 19.6836V11.3793C14.8588 11.3243 14.9488 11.2437 15.0106 11.141L15.1747 10.8678C15.3519 10.5723 15.2614 10.1787 14.9725 9.99082ZM7.54669 9.4865V7.57279V6.51606H7.77512V9.4865H7.54669Z" fill="#365314"/>
<path d="M9.41033 4.57114C10.6706 4.57114 11.6959 3.54584 11.6959 2.28557C11.6959 1.0253 10.6706 0 9.41033 0C8.15006 0 7.12476 1.0253 7.12476 2.28557C7.12476 3.54584 8.15006 4.57114 9.41033 4.57114Z" fill="#365314"/>
</svg>
