<svg width="20" height="20" viewBox="0 0 20 20" fill="none" xmlns="http://www.w3.org/2000/svg">
<g clip-path="url(#clip0_88_46)">
<path d="M16.1497 9.14277L14.3683 9.42865C14.2296 9.45056 14.0787 9.35417 14.036 9.22886L12.9078 5.92864C12.8975 5.89885 12.8826 5.87497 12.8694 5.84869C12.8587 5.8224 12.8491 5.79589 12.8348 5.77092C12.7483 5.61779 12.6079 5.5076 12.4392 5.4605L11.092 5.08568C11.0858 5.08393 11.0797 5.08415 11.0736 5.08261L10.4247 4.90386C10.1265 4.82171 9.7022 4.91415 9.46649 5.10825L6.825 7.28291C6.57549 7.48817 6.44076 7.89454 6.51809 8.20846L7.25963 11.2171C7.33564 11.5255 7.63489 11.8335 7.9407 11.9185L7.96874 11.9264L6.89094 14.615C6.79587 14.852 6.50714 15.1482 6.27252 15.2492L3.56378 16.4151C3.36136 16.502 3.22072 16.6615 3.17756 16.8528C3.13463 17.0438 3.19334 17.2484 3.3388 17.4138L3.61416 17.7268C3.79445 17.9317 4.09282 18.0589 4.39272 18.0589C4.52657 18.0589 4.65187 18.0344 4.76469 17.9858L7.47322 16.8199C7.81101 16.6745 8.19153 16.297 8.33984 15.9607L9.33242 13.7085L10.081 15.0762C10.2039 15.3005 10.251 15.7136 10.182 15.9601L9.2816 19.174C9.22267 19.3843 9.25728 19.5953 9.37689 19.7528C9.49628 19.9103 9.69016 20.0005 9.90856 20.0005H10.3252C10.7377 20.0005 11.148 19.6894 11.2593 19.2921L12.1597 16.0782C12.2561 15.7338 12.2405 15.199 12.1238 14.8608L11.2287 12.2642L12.2061 8.75021L12.8366 10.6576C12.9328 10.9485 13.2292 11.1597 13.5409 11.1597C13.5772 11.1597 13.6136 11.1569 13.6495 11.1509L16.219 10.7343C16.5646 10.6782 16.8354 10.3599 16.8354 10.0096V9.72833C16.8361 9.3557 16.5313 9.08121 16.1497 9.14277ZM8.16831 8.62161C8.12734 8.47878 8.20007 8.27001 8.32056 8.18348L9.65489 7.22617L8.61279 10.1728L8.16831 8.62161Z" fill="#365314"/>
<path d="M12.2719 4.45535C13.5002 4.45535 14.4996 3.45597 14.4996 2.22767C14.4996 0.999376 13.5002 0 12.2719 0C11.0436 0 10.0444 0.999376 10.0444 2.22767C10.0444 3.45597 11.0436 4.45535 12.2719 4.45535Z" fill="#365314"/>
</g>
<defs>
<clipPath id="clip0_88_46">
<rect width="20" height="20" fill="white"/>
</clipPath>
</defs>
</svg>
